G04 #@! TF.GenerationSoftware,KiCad,Pcbnew,(5.0.0)*
G04 #@! TF.CreationDate,2018-11-29T21:10:00+03:00*
G04 #@! TF.ProjectId,aks,616B732E6B696361645F706362000000,rev?*
G04 #@! TF.SameCoordinates,Original*
G04 #@! TF.FileFunction,Soldermask,Top*
G04 #@! TF.FilePolarity,Negative*
%FSLAX46Y46*%
G04 Gerber Fmt 4.6, Leading zero omitted, Abs format (unit mm)*
G04 Created by KiCad (PCBNEW (5.0.0)) date 11/29/18 21:10:00*
%MOMM*%
%LPD*%
G01*
G04 APERTURE LIST*
%ADD10C,0.100000*%
G04 APERTURE END LIST*
D10*
G36*
X532950000Y-322200000D02*
X531050000Y-322200000D01*
X531050000Y-317800000D01*
X532950000Y-317800000D01*
X532950000Y-322200000D01*
X532950000Y-322200000D01*
G37*
G36*
X518141716Y-317884545D02*
X518542091Y-318050385D01*
X518902418Y-318291148D01*
X519208852Y-318597582D01*
X519449615Y-318957909D01*
X519615455Y-319358284D01*
X519700000Y-319783319D01*
X519700000Y-320216681D01*
X519615455Y-320641716D01*
X519449615Y-321042091D01*
X519208852Y-321402418D01*
X518902418Y-321708852D01*
X518542091Y-321949615D01*
X518141716Y-322115455D01*
X517716681Y-322200000D01*
X517283319Y-322200000D01*
X516858284Y-322115455D01*
X516457909Y-321949615D01*
X516097582Y-321708852D01*
X515791148Y-321402418D01*
X515550385Y-321042091D01*
X515384545Y-320641716D01*
X515300000Y-320216681D01*
X515300000Y-319783319D01*
X515384545Y-319358284D01*
X515550385Y-318957909D01*
X515791148Y-318597582D01*
X516097582Y-318291148D01*
X516457909Y-318050385D01*
X516858284Y-317884545D01*
X517283319Y-317800000D01*
X517716681Y-317800000D01*
X518141716Y-317884545D01*
X518141716Y-317884545D01*
G37*
G36*
X541141716Y-317884545D02*
X541542091Y-318050385D01*
X541902418Y-318291148D01*
X542208852Y-318597582D01*
X542449615Y-318957909D01*
X542615455Y-319358284D01*
X542700000Y-319783319D01*
X542700000Y-320216681D01*
X542615455Y-320641716D01*
X542449615Y-321042091D01*
X542208852Y-321402418D01*
X541902418Y-321708852D01*
X541542091Y-321949615D01*
X541141716Y-322115455D01*
X540716681Y-322200000D01*
X540283319Y-322200000D01*
X539858284Y-322115455D01*
X539457909Y-321949615D01*
X539097582Y-321708852D01*
X538791148Y-321402418D01*
X538550385Y-321042091D01*
X538384545Y-320641716D01*
X538300000Y-320216681D01*
X538300000Y-319783319D01*
X538384545Y-319358284D01*
X538550385Y-318957909D01*
X538791148Y-318597582D01*
X539097582Y-318291148D01*
X539457909Y-318050385D01*
X539858284Y-317884545D01*
X540283319Y-317800000D01*
X540716681Y-317800000D01*
X541141716Y-317884545D01*
X541141716Y-317884545D01*
G37*
G36*
X537450000Y-322200000D02*
X535550000Y-322200000D01*
X535550000Y-317800000D01*
X537450000Y-317800000D01*
X537450000Y-322200000D01*
X537450000Y-322200000D01*
G37*
G36*
X525600000Y-317950000D02*
X525607686Y-318028036D01*
X525630448Y-318103073D01*
X525667412Y-318172228D01*
X525717157Y-318232843D01*
X525777772Y-318282588D01*
X525846927Y-318319552D01*
X525921964Y-318342314D01*
X526000000Y-318350000D01*
X526875000Y-318350000D01*
X526875000Y-321050000D01*
X526000000Y-321050000D01*
X525921964Y-321057686D01*
X525846927Y-321080448D01*
X525777772Y-321117412D01*
X525717157Y-321167157D01*
X525667412Y-321227772D01*
X525630448Y-321296927D01*
X525607686Y-321371964D01*
X525600000Y-321450000D01*
X525600000Y-321825000D01*
X523900000Y-321825000D01*
X523900000Y-321450000D01*
X523892314Y-321371964D01*
X523869552Y-321296927D01*
X523832588Y-321227772D01*
X523782843Y-321167157D01*
X523722228Y-321117412D01*
X523653073Y-321080448D01*
X523578036Y-321057686D01*
X523500000Y-321050000D01*
X522625000Y-321050000D01*
X522625000Y-319400000D01*
X524025000Y-319400000D01*
X524025000Y-320025000D01*
X524032686Y-320103036D01*
X524055448Y-320178073D01*
X524092412Y-320247228D01*
X524142157Y-320307843D01*
X524202772Y-320357588D01*
X524271927Y-320394552D01*
X524346964Y-320417314D01*
X524425000Y-320425000D01*
X525075000Y-320425000D01*
X525153036Y-320417314D01*
X525228073Y-320394552D01*
X525297228Y-320357588D01*
X525357843Y-320307843D01*
X525407588Y-320247228D01*
X525444552Y-320178073D01*
X525467314Y-320103036D01*
X525475000Y-320025000D01*
X525475000Y-319400000D01*
X525467314Y-319321964D01*
X525444552Y-319246927D01*
X525407588Y-319177772D01*
X525357843Y-319117157D01*
X525297228Y-319067412D01*
X525228073Y-319030448D01*
X525153036Y-319007686D01*
X525075000Y-319000000D01*
X524425000Y-319000000D01*
X524346964Y-319007686D01*
X524271927Y-319030448D01*
X524202772Y-319067412D01*
X524142157Y-319117157D01*
X524092412Y-319177772D01*
X524055448Y-319246927D01*
X524032686Y-319321964D01*
X524025000Y-319400000D01*
X522625000Y-319400000D01*
X522625000Y-318350000D01*
X523500000Y-318350000D01*
X523578036Y-318342314D01*
X523653073Y-318319552D01*
X523722228Y-318282588D01*
X523782843Y-318232843D01*
X523832588Y-318172228D01*
X523869552Y-318103073D01*
X523892314Y-318028036D01*
X523900000Y-317950000D01*
X523900000Y-317600000D01*
X525600000Y-317600000D01*
X525600000Y-317950000D01*
X525600000Y-317950000D01*
G37*
G36*
X516350027Y-314846115D02*
X516568413Y-314936573D01*
X516764954Y-315067898D01*
X516932102Y-315235046D01*
X517063427Y-315431587D01*
X517153885Y-315649973D01*
X517200000Y-315881810D01*
X517200000Y-316118190D01*
X517153885Y-316350027D01*
X517063427Y-316568413D01*
X516932102Y-316764954D01*
X516764954Y-316932102D01*
X516568413Y-317063427D01*
X516350027Y-317153885D01*
X516118190Y-317200000D01*
X515881810Y-317200000D01*
X515649973Y-317153885D01*
X515431587Y-317063427D01*
X515235046Y-316932102D01*
X515067898Y-316764954D01*
X514936573Y-316568413D01*
X514846115Y-316350027D01*
X514800000Y-316118190D01*
X514800000Y-315881810D01*
X514846115Y-315649973D01*
X514936573Y-315431587D01*
X515067898Y-315235046D01*
X515235046Y-315067898D01*
X515431587Y-314936573D01*
X515649973Y-314846115D01*
X515881810Y-314800000D01*
X516118190Y-314800000D01*
X516350027Y-314846115D01*
X516350027Y-314846115D01*
G37*
G36*
X542350027Y-314846115D02*
X542568413Y-314936573D01*
X542764954Y-315067898D01*
X542932102Y-315235046D01*
X543063427Y-315431587D01*
X543153885Y-315649973D01*
X543200000Y-315881810D01*
X543200000Y-316118190D01*
X543153885Y-316350027D01*
X543063427Y-316568413D01*
X542932102Y-316764954D01*
X542764954Y-316932102D01*
X542568413Y-317063427D01*
X542350027Y-317153885D01*
X542118190Y-317200000D01*
X541881810Y-317200000D01*
X541649973Y-317153885D01*
X541431587Y-317063427D01*
X541235046Y-316932102D01*
X541067898Y-316764954D01*
X540936573Y-316568413D01*
X540846115Y-316350027D01*
X540800000Y-316118190D01*
X540800000Y-315881810D01*
X540846115Y-315649973D01*
X540936573Y-315431587D01*
X541067898Y-315235046D01*
X541235046Y-315067898D01*
X541431587Y-314936573D01*
X541649973Y-314846115D01*
X541881810Y-314800000D01*
X542118190Y-314800000D01*
X542350027Y-314846115D01*
X542350027Y-314846115D01*
G37*
G36*
X525350000Y-312525000D02*
X525357686Y-312603036D01*
X525380448Y-312678073D01*
X525417412Y-312747228D01*
X525467157Y-312807843D01*
X525527772Y-312857588D01*
X525596927Y-312894552D01*
X525671964Y-312917314D01*
X525750000Y-312925000D01*
X526625000Y-312925000D01*
X526625000Y-315625000D01*
X525750000Y-315625000D01*
X525671964Y-315632686D01*
X525596927Y-315655448D01*
X525527772Y-315692412D01*
X525467157Y-315742157D01*
X525417412Y-315802772D01*
X525380448Y-315871927D01*
X525357686Y-315946964D01*
X525350000Y-316025000D01*
X525350000Y-316400000D01*
X523650000Y-316400000D01*
X523650000Y-316025000D01*
X523642314Y-315946964D01*
X523619552Y-315871927D01*
X523582588Y-315802772D01*
X523532843Y-315742157D01*
X523472228Y-315692412D01*
X523403073Y-315655448D01*
X523328036Y-315632686D01*
X523250000Y-315625000D01*
X522375000Y-315625000D01*
X522375000Y-313975000D01*
X523775000Y-313975000D01*
X523775000Y-314600000D01*
X523782686Y-314678036D01*
X523805448Y-314753073D01*
X523842412Y-314822228D01*
X523892157Y-314882843D01*
X523952772Y-314932588D01*
X524021927Y-314969552D01*
X524096964Y-314992314D01*
X524175000Y-315000000D01*
X524825000Y-315000000D01*
X524903036Y-314992314D01*
X524978073Y-314969552D01*
X525047228Y-314932588D01*
X525107843Y-314882843D01*
X525157588Y-314822228D01*
X525194552Y-314753073D01*
X525217314Y-314678036D01*
X525225000Y-314600000D01*
X525225000Y-313975000D01*
X525217314Y-313896964D01*
X525194552Y-313821927D01*
X525157588Y-313752772D01*
X525107843Y-313692157D01*
X525047228Y-313642412D01*
X524978073Y-313605448D01*
X524903036Y-313582686D01*
X524825000Y-313575000D01*
X524175000Y-313575000D01*
X524096964Y-313582686D01*
X524021927Y-313605448D01*
X523952772Y-313642412D01*
X523892157Y-313692157D01*
X523842412Y-313752772D01*
X523805448Y-313821927D01*
X523782686Y-313896964D01*
X523775000Y-313975000D01*
X522375000Y-313975000D01*
X522375000Y-312925000D01*
X523250000Y-312925000D01*
X523328036Y-312917314D01*
X523403073Y-312894552D01*
X523472228Y-312857588D01*
X523532843Y-312807843D01*
X523582588Y-312747228D01*
X523619552Y-312678073D01*
X523642314Y-312603036D01*
X523650000Y-312525000D01*
X523650000Y-312175000D01*
X525350000Y-312175000D01*
X525350000Y-312525000D01*
X525350000Y-312525000D01*
G37*
G36*
X542350027Y-299346115D02*
X542568413Y-299436573D01*
X542764954Y-299567898D01*
X542932102Y-299735046D01*
X543063427Y-299931587D01*
X543153885Y-300149973D01*
X543200000Y-300381810D01*
X543200000Y-300618190D01*
X543153885Y-300850027D01*
X543063427Y-301068413D01*
X542932102Y-301264954D01*
X542764954Y-301432102D01*
X542568413Y-301563427D01*
X542406609Y-301630448D01*
X542337454Y-301667412D01*
X542276839Y-301717157D01*
X542227094Y-301777772D01*
X542190130Y-301846927D01*
X542167368Y-301921964D01*
X542159682Y-302000000D01*
X542167368Y-302078036D01*
X542190130Y-302153073D01*
X542227094Y-302222228D01*
X542276839Y-302282843D01*
X542337454Y-302332588D01*
X542406609Y-302369552D01*
X542568413Y-302436573D01*
X542764954Y-302567898D01*
X542932102Y-302735046D01*
X543063427Y-302931587D01*
X543153885Y-303149973D01*
X543200000Y-303381810D01*
X543200000Y-303618190D01*
X543153885Y-303850027D01*
X543063427Y-304068413D01*
X542932102Y-304264954D01*
X542764954Y-304432102D01*
X542568413Y-304563427D01*
X542406609Y-304630448D01*
X542337454Y-304667412D01*
X542276839Y-304717157D01*
X542227094Y-304777772D01*
X542190130Y-304846927D01*
X542167368Y-304921964D01*
X542159682Y-305000000D01*
X542167368Y-305078036D01*
X542190130Y-305153073D01*
X542227094Y-305222228D01*
X542276839Y-305282843D01*
X542337454Y-305332588D01*
X542406609Y-305369552D01*
X542568413Y-305436573D01*
X542764954Y-305567898D01*
X542932102Y-305735046D01*
X543063427Y-305931587D01*
X543153885Y-306149973D01*
X543200000Y-306381810D01*
X543200000Y-306618190D01*
X543153885Y-306850027D01*
X543063427Y-307068413D01*
X542932102Y-307264954D01*
X542764954Y-307432102D01*
X542568413Y-307563427D01*
X542406609Y-307630448D01*
X542337454Y-307667412D01*
X542276839Y-307717157D01*
X542227094Y-307777772D01*
X542190130Y-307846927D01*
X542167368Y-307921964D01*
X542159682Y-308000000D01*
X542167368Y-308078036D01*
X542190130Y-308153073D01*
X542227094Y-308222228D01*
X542276839Y-308282843D01*
X542337454Y-308332588D01*
X542406609Y-308369552D01*
X542568413Y-308436573D01*
X542764954Y-308567898D01*
X542932102Y-308735046D01*
X543063427Y-308931587D01*
X543153885Y-309149973D01*
X543200000Y-309381810D01*
X543200000Y-309618190D01*
X543153885Y-309850027D01*
X543063427Y-310068413D01*
X542932102Y-310264954D01*
X542764954Y-310432102D01*
X542568413Y-310563427D01*
X542406609Y-310630448D01*
X542337454Y-310667412D01*
X542276839Y-310717157D01*
X542227094Y-310777772D01*
X542190130Y-310846927D01*
X542167368Y-310921964D01*
X542159682Y-311000000D01*
X542167368Y-311078036D01*
X542190130Y-311153073D01*
X542227094Y-311222228D01*
X542276839Y-311282843D01*
X542337454Y-311332588D01*
X542406609Y-311369552D01*
X542568413Y-311436573D01*
X542764954Y-311567898D01*
X542932102Y-311735046D01*
X543063427Y-311931587D01*
X543153885Y-312149973D01*
X543200000Y-312381810D01*
X543200000Y-312618190D01*
X543153885Y-312850027D01*
X543063427Y-313068413D01*
X542932102Y-313264954D01*
X542764954Y-313432102D01*
X542568413Y-313563427D01*
X542350027Y-313653885D01*
X542118190Y-313700000D01*
X541881810Y-313700000D01*
X541649973Y-313653885D01*
X541431587Y-313563427D01*
X541235046Y-313432102D01*
X541067898Y-313264954D01*
X540936573Y-313068413D01*
X540846115Y-312850027D01*
X540830587Y-312771963D01*
X540807824Y-312696926D01*
X540770860Y-312627771D01*
X540721115Y-312567157D01*
X540660500Y-312517412D01*
X540591345Y-312480448D01*
X540516308Y-312457686D01*
X540438273Y-312450000D01*
X536800000Y-312450000D01*
X536800000Y-310550000D01*
X540200000Y-310550000D01*
X540200000Y-311715324D01*
X540207686Y-311793360D01*
X540230448Y-311868397D01*
X540267412Y-311937552D01*
X540317157Y-311998167D01*
X540377772Y-312047912D01*
X540446927Y-312084876D01*
X540521964Y-312107638D01*
X540600000Y-312115324D01*
X540678036Y-312107638D01*
X540753073Y-312084876D01*
X540822228Y-312047912D01*
X540882843Y-311998167D01*
X540932588Y-311937552D01*
X541067898Y-311735046D01*
X541235046Y-311567898D01*
X541431587Y-311436573D01*
X541593391Y-311369552D01*
X541662546Y-311332588D01*
X541723161Y-311282843D01*
X541772906Y-311222228D01*
X541809870Y-311153073D01*
X541832632Y-311078036D01*
X541840318Y-311000000D01*
X541832632Y-310921964D01*
X541809870Y-310846927D01*
X541772906Y-310777772D01*
X541723161Y-310717157D01*
X541662546Y-310667412D01*
X541593391Y-310630448D01*
X541431587Y-310563427D01*
X541235046Y-310432102D01*
X541067898Y-310264954D01*
X540932588Y-310062448D01*
X540923467Y-310051334D01*
X540906963Y-309996927D01*
X540846115Y-309850027D01*
X540830587Y-309771963D01*
X540807824Y-309696926D01*
X540770860Y-309627771D01*
X540721115Y-309567157D01*
X540660500Y-309517412D01*
X540591345Y-309480448D01*
X540516308Y-309457686D01*
X540438273Y-309450000D01*
X536800000Y-309450000D01*
X536800000Y-307550000D01*
X540200000Y-307550000D01*
X540200000Y-308715324D01*
X540207686Y-308793360D01*
X540230448Y-308868397D01*
X540267412Y-308937552D01*
X540317157Y-308998167D01*
X540377772Y-309047912D01*
X540446927Y-309084876D01*
X540521964Y-309107638D01*
X540600000Y-309115324D01*
X540678036Y-309107638D01*
X540753073Y-309084876D01*
X540822228Y-309047912D01*
X540882843Y-308998167D01*
X540932588Y-308937552D01*
X541067898Y-308735046D01*
X541235046Y-308567898D01*
X541431587Y-308436573D01*
X541593391Y-308369552D01*
X541662546Y-308332588D01*
X541723161Y-308282843D01*
X541772906Y-308222228D01*
X541809870Y-308153073D01*
X541832632Y-308078036D01*
X541840318Y-308000000D01*
X541832632Y-307921964D01*
X541809870Y-307846927D01*
X541772906Y-307777772D01*
X541723161Y-307717157D01*
X541662546Y-307667412D01*
X541593391Y-307630448D01*
X541431587Y-307563427D01*
X541235046Y-307432102D01*
X541067898Y-307264954D01*
X540932588Y-307062448D01*
X540923467Y-307051334D01*
X540906963Y-306996927D01*
X540846115Y-306850027D01*
X540800000Y-306618190D01*
X540800000Y-306381810D01*
X540846115Y-306149973D01*
X540936573Y-305931587D01*
X541067898Y-305735046D01*
X541235046Y-305567898D01*
X541431587Y-305436573D01*
X541593391Y-305369552D01*
X541662546Y-305332588D01*
X541723161Y-305282843D01*
X541772906Y-305222228D01*
X541809870Y-305153073D01*
X541832632Y-305078036D01*
X541840318Y-305000000D01*
X541832632Y-304921964D01*
X541809870Y-304846927D01*
X541772906Y-304777772D01*
X541723161Y-304717157D01*
X541662546Y-304667412D01*
X541593391Y-304630448D01*
X541431587Y-304563427D01*
X541235046Y-304432102D01*
X541067898Y-304264954D01*
X540936573Y-304068413D01*
X540846115Y-303850027D01*
X540800000Y-303618190D01*
X540800000Y-303381810D01*
X540840135Y-303180036D01*
X540847821Y-303101999D01*
X540840135Y-303023963D01*
X540817373Y-302948926D01*
X540780409Y-302879771D01*
X540730663Y-302819157D01*
X540670049Y-302769412D01*
X540600894Y-302732448D01*
X540525857Y-302709686D01*
X540447821Y-302702000D01*
X535240000Y-302702000D01*
X535240000Y-301612742D01*
X540450000Y-301612742D01*
X540450000Y-302387258D01*
X540457686Y-302465294D01*
X540480448Y-302540331D01*
X540517412Y-302609486D01*
X540567157Y-302670101D01*
X540627772Y-302719846D01*
X540696927Y-302756810D01*
X540771964Y-302779572D01*
X540850000Y-302787258D01*
X540928036Y-302779572D01*
X541003073Y-302756810D01*
X541072228Y-302719846D01*
X541132843Y-302670101D01*
X541235046Y-302567898D01*
X541431587Y-302436573D01*
X541593391Y-302369552D01*
X541662546Y-302332588D01*
X541723161Y-302282843D01*
X541772906Y-302222228D01*
X541809870Y-302153073D01*
X541832632Y-302078036D01*
X541840318Y-302000000D01*
X541832632Y-301921964D01*
X541809870Y-301846927D01*
X541772906Y-301777772D01*
X541723161Y-301717157D01*
X541662546Y-301667412D01*
X541593391Y-301630448D01*
X541431587Y-301563427D01*
X541235046Y-301432102D01*
X541132843Y-301329899D01*
X541072228Y-301280154D01*
X541003073Y-301243190D01*
X540928036Y-301220428D01*
X540850000Y-301212742D01*
X540771964Y-301220428D01*
X540696927Y-301243190D01*
X540627772Y-301280154D01*
X540567157Y-301329899D01*
X540517412Y-301390514D01*
X540480448Y-301459669D01*
X540457686Y-301534706D01*
X540450000Y-301612742D01*
X535240000Y-301612742D01*
X535240000Y-300802000D01*
X540400000Y-300802000D01*
X540478036Y-300794314D01*
X540553073Y-300771552D01*
X540622228Y-300734588D01*
X540682843Y-300684843D01*
X540732588Y-300624228D01*
X540769552Y-300555073D01*
X540792314Y-300480036D01*
X540800000Y-300402000D01*
X540800000Y-300381810D01*
X540846115Y-300149973D01*
X540936573Y-299931587D01*
X541067898Y-299735046D01*
X541235046Y-299567898D01*
X541431587Y-299436573D01*
X541649973Y-299346115D01*
X541881810Y-299300000D01*
X542118190Y-299300000D01*
X542350027Y-299346115D01*
X542350027Y-299346115D01*
G37*
G36*
X516350027Y-311346115D02*
X516568413Y-311436573D01*
X516764954Y-311567898D01*
X516932102Y-311735046D01*
X517063427Y-311931587D01*
X517153885Y-312149973D01*
X517200000Y-312381810D01*
X517200000Y-312618190D01*
X517153885Y-312850027D01*
X517063427Y-313068413D01*
X516932102Y-313264954D01*
X516764954Y-313432102D01*
X516568413Y-313563427D01*
X516350027Y-313653885D01*
X516118190Y-313700000D01*
X515881810Y-313700000D01*
X515649973Y-313653885D01*
X515431587Y-313563427D01*
X515235046Y-313432102D01*
X515067898Y-313264954D01*
X514936573Y-313068413D01*
X514846115Y-312850027D01*
X514800000Y-312618190D01*
X514800000Y-312381810D01*
X514846115Y-312149973D01*
X514936573Y-311931587D01*
X515067898Y-311735046D01*
X515235046Y-311567898D01*
X515431587Y-311436573D01*
X515649973Y-311346115D01*
X515881810Y-311300000D01*
X516118190Y-311300000D01*
X516350027Y-311346115D01*
X516350027Y-311346115D01*
G37*
G36*
X535700000Y-312450000D02*
X532300000Y-312450000D01*
X532300000Y-310550000D01*
X535700000Y-310550000D01*
X535700000Y-312450000D01*
X535700000Y-312450000D01*
G37*
G36*
X531200000Y-312450000D02*
X527800000Y-312450000D01*
X527800000Y-310550000D01*
X531200000Y-310550000D01*
X531200000Y-312450000D01*
X531200000Y-312450000D01*
G37*
G36*
X516350027Y-307846115D02*
X516568413Y-307936573D01*
X516764954Y-308067898D01*
X516932102Y-308235046D01*
X517063427Y-308431587D01*
X517153885Y-308649973D01*
X517200000Y-308881810D01*
X517200000Y-309118190D01*
X517153885Y-309350027D01*
X517063427Y-309568413D01*
X516932102Y-309764954D01*
X516764954Y-309932102D01*
X516568413Y-310063427D01*
X516350027Y-310153885D01*
X516118190Y-310200000D01*
X515881810Y-310200000D01*
X515649973Y-310153885D01*
X515431587Y-310063427D01*
X515235046Y-309932102D01*
X515067898Y-309764954D01*
X514936573Y-309568413D01*
X514846115Y-309350027D01*
X514800000Y-309118190D01*
X514800000Y-308881810D01*
X514846115Y-308649973D01*
X514936573Y-308431587D01*
X515067898Y-308235046D01*
X515235046Y-308067898D01*
X515431587Y-307936573D01*
X515649973Y-307846115D01*
X515881810Y-307800000D01*
X516118190Y-307800000D01*
X516350027Y-307846115D01*
X516350027Y-307846115D01*
G37*
G36*
X535700000Y-309450000D02*
X532300000Y-309450000D01*
X532300000Y-307550000D01*
X535700000Y-307550000D01*
X535700000Y-309450000D01*
X535700000Y-309450000D01*
G37*
G36*
X531200000Y-309450000D02*
X527800000Y-309450000D01*
X527800000Y-307550000D01*
X531200000Y-307550000D01*
X531200000Y-309450000D01*
X531200000Y-309450000D01*
G37*
G36*
X516350027Y-304346115D02*
X516568413Y-304436573D01*
X516764954Y-304567898D01*
X516932102Y-304735046D01*
X517063427Y-304931587D01*
X517153885Y-305149973D01*
X517200000Y-305381810D01*
X517200000Y-305618190D01*
X517153885Y-305850027D01*
X517063427Y-306068413D01*
X516932102Y-306264954D01*
X516764954Y-306432102D01*
X516568413Y-306563427D01*
X516350027Y-306653885D01*
X516118190Y-306700000D01*
X515881810Y-306700000D01*
X515649973Y-306653885D01*
X515431587Y-306563427D01*
X515235046Y-306432102D01*
X515067898Y-306264954D01*
X514936573Y-306068413D01*
X514846115Y-305850027D01*
X514800000Y-305618190D01*
X514800000Y-305381810D01*
X514846115Y-305149973D01*
X514936573Y-304931587D01*
X515067898Y-304735046D01*
X515235046Y-304567898D01*
X515431587Y-304436573D01*
X515649973Y-304346115D01*
X515881810Y-304300000D01*
X516118190Y-304300000D01*
X516350027Y-304346115D01*
X516350027Y-304346115D01*
G37*
G36*
X527475000Y-297075000D02*
X527482686Y-297153036D01*
X527505448Y-297228073D01*
X527542412Y-297297228D01*
X527592157Y-297357843D01*
X527652772Y-297407588D01*
X527721927Y-297444552D01*
X527796964Y-297467314D01*
X527875000Y-297475000D01*
X529300000Y-297475000D01*
X529300000Y-304025000D01*
X527875000Y-304025000D01*
X527796964Y-304032686D01*
X527721927Y-304055448D01*
X527652772Y-304092412D01*
X527592157Y-304142157D01*
X527542412Y-304202772D01*
X527505448Y-304271927D01*
X527482686Y-304346964D01*
X527475000Y-304425000D01*
X527475000Y-305800000D01*
X520925000Y-305800000D01*
X520925000Y-304425000D01*
X520917314Y-304346964D01*
X520894552Y-304271927D01*
X520857588Y-304202772D01*
X520807843Y-304142157D01*
X520747228Y-304092412D01*
X520678073Y-304055448D01*
X520603036Y-304032686D01*
X520525000Y-304025000D01*
X519150000Y-304025000D01*
X519150000Y-297700000D01*
X520750000Y-297700000D01*
X520750000Y-303800000D01*
X520757686Y-303878036D01*
X520780448Y-303953073D01*
X520817412Y-304022228D01*
X520867157Y-304082843D01*
X520927772Y-304132588D01*
X520996927Y-304169552D01*
X521071964Y-304192314D01*
X521150000Y-304200000D01*
X527300000Y-304200000D01*
X527378036Y-304192314D01*
X527453073Y-304169552D01*
X527522228Y-304132588D01*
X527582843Y-304082843D01*
X527632588Y-304022228D01*
X527669552Y-303953073D01*
X527692314Y-303878036D01*
X527700000Y-303800000D01*
X527700000Y-297700000D01*
X527692314Y-297621964D01*
X527669552Y-297546927D01*
X527632588Y-297477772D01*
X527582843Y-297417157D01*
X527522228Y-297367412D01*
X527453073Y-297330448D01*
X527378036Y-297307686D01*
X527300000Y-297300000D01*
X521150000Y-297300000D01*
X521071964Y-297307686D01*
X520996927Y-297330448D01*
X520927772Y-297367412D01*
X520867157Y-297417157D01*
X520817412Y-297477772D01*
X520780448Y-297546927D01*
X520757686Y-297621964D01*
X520750000Y-297700000D01*
X519150000Y-297700000D01*
X519150000Y-297475000D01*
X520525000Y-297475000D01*
X520603036Y-297467314D01*
X520678073Y-297444552D01*
X520747228Y-297407588D01*
X520807843Y-297357843D01*
X520857588Y-297297228D01*
X520894552Y-297228073D01*
X520917314Y-297153036D01*
X520925000Y-297075000D01*
X520925000Y-295700000D01*
X527475000Y-295700000D01*
X527475000Y-297075000D01*
X527475000Y-297075000D01*
G37*
G36*
X541141716Y-289884545D02*
X541542091Y-290050385D01*
X541902418Y-290291148D01*
X542208852Y-290597582D01*
X542449615Y-290957909D01*
X542615455Y-291358284D01*
X542700000Y-291783319D01*
X542700000Y-292216681D01*
X542615455Y-292641716D01*
X542449615Y-293042091D01*
X542208852Y-293402418D01*
X541902418Y-293708852D01*
X541542091Y-293949615D01*
X541141716Y-294115455D01*
X540771963Y-294189004D01*
X540696926Y-294211766D01*
X540627771Y-294248731D01*
X540567157Y-294298476D01*
X540517412Y-294359091D01*
X540480448Y-294428245D01*
X540457686Y-294503283D01*
X540450000Y-294581318D01*
X540450000Y-296860000D01*
X535240000Y-296860000D01*
X535240000Y-294960000D01*
X540042829Y-294960000D01*
X540120865Y-294952314D01*
X540195902Y-294929552D01*
X540265057Y-294892588D01*
X540325672Y-294842843D01*
X540375417Y-294782228D01*
X540412381Y-294713073D01*
X540435143Y-294638036D01*
X540442829Y-294560000D01*
X540435143Y-294481964D01*
X540412381Y-294406927D01*
X540375417Y-294337772D01*
X540325672Y-294277157D01*
X540265057Y-294227412D01*
X540195902Y-294190448D01*
X540120866Y-294167686D01*
X539858284Y-294115455D01*
X539457909Y-293949615D01*
X539097582Y-293708852D01*
X538791148Y-293402418D01*
X538550385Y-293042091D01*
X538384545Y-292641716D01*
X538300000Y-292216681D01*
X538300000Y-291783319D01*
X538384545Y-291358284D01*
X538550385Y-290957909D01*
X538791148Y-290597582D01*
X539097582Y-290291148D01*
X539457909Y-290050385D01*
X539858284Y-289884545D01*
X540283319Y-289800000D01*
X540716681Y-289800000D01*
X541141716Y-289884545D01*
X541141716Y-289884545D01*
G37*
G36*
X518141716Y-289884545D02*
X518542091Y-290050385D01*
X518902418Y-290291148D01*
X519208852Y-290597582D01*
X519449615Y-290957909D01*
X519615455Y-291358284D01*
X519700000Y-291783319D01*
X519700000Y-292216681D01*
X519615455Y-292641716D01*
X519449615Y-293042091D01*
X519208852Y-293402418D01*
X518902418Y-293708852D01*
X518542091Y-293949615D01*
X518141716Y-294115455D01*
X517716681Y-294200000D01*
X517283319Y-294200000D01*
X516858284Y-294115455D01*
X516457909Y-293949615D01*
X516097582Y-293708852D01*
X515791148Y-293402418D01*
X515550385Y-293042091D01*
X515384545Y-292641716D01*
X515300000Y-292216681D01*
X515300000Y-291783319D01*
X515384545Y-291358284D01*
X515550385Y-290957909D01*
X515791148Y-290597582D01*
X516097582Y-290291148D01*
X516457909Y-290050385D01*
X516858284Y-289884545D01*
X517283319Y-289800000D01*
X517716681Y-289800000D01*
X518141716Y-289884545D01*
X518141716Y-289884545D01*
G37*
G36*
X526906274Y-290990350D02*
X527097362Y-291069502D01*
X527269336Y-291184411D01*
X527415589Y-291330664D01*
X527530498Y-291502638D01*
X527609650Y-291693726D01*
X527650000Y-291896584D01*
X527650000Y-292103416D01*
X527609650Y-292306274D01*
X527530498Y-292497362D01*
X527415589Y-292669336D01*
X527269336Y-292815589D01*
X527097362Y-292930498D01*
X526906274Y-293009650D01*
X526703416Y-293050000D01*
X526496584Y-293050000D01*
X526293726Y-293009650D01*
X526102638Y-292930498D01*
X525930664Y-292815589D01*
X525784411Y-292669336D01*
X525669502Y-292497362D01*
X525590350Y-292306274D01*
X525550000Y-292103416D01*
X525550000Y-291896584D01*
X525590350Y-291693726D01*
X525669502Y-291502638D01*
X525784411Y-291330664D01*
X525930664Y-291184411D01*
X526102638Y-291069502D01*
X526293726Y-290990350D01*
X526496584Y-290950000D01*
X526703416Y-290950000D01*
X526906274Y-290990350D01*
X526906274Y-290990350D01*
G37*
G36*
X531806274Y-290990350D02*
X531997362Y-291069502D01*
X532169336Y-291184411D01*
X532315589Y-291330664D01*
X532430498Y-291502638D01*
X532509650Y-291693726D01*
X532550000Y-291896584D01*
X532550000Y-292103416D01*
X532509650Y-292306274D01*
X532430498Y-292497362D01*
X532315589Y-292669336D01*
X532169336Y-292815589D01*
X531997362Y-292930498D01*
X531806274Y-293009650D01*
X531603416Y-293050000D01*
X531396584Y-293050000D01*
X531193726Y-293009650D01*
X531002638Y-292930498D01*
X530830664Y-292815589D01*
X530684411Y-292669336D01*
X530569502Y-292497362D01*
X530490350Y-292306274D01*
X530450000Y-292103416D01*
X530450000Y-291896584D01*
X530490350Y-291693726D01*
X530569502Y-291502638D01*
X530684411Y-291330664D01*
X530830664Y-291184411D01*
X531002638Y-291069502D01*
X531193726Y-290990350D01*
X531396584Y-290950000D01*
X531603416Y-290950000D01*
X531806274Y-290990350D01*
X531806274Y-290990350D01*
G37*
M02*
