M48
;DRILL file {KiCad (5.0.0)} date 11/29/18 21:10:10
;FORMAT={3:3/ absolute / metric / keep zeros}
FMAT,2
METRIC,TZ
T1C0.700
T2C1.000
T3C1.200
T4C3.400
%
G90
G05
M71
T1
X516500Y-298000
X516500Y-301000
X517500Y-295500
X520500Y-321750
X520528Y-317470
X520846Y-320096
X521779Y-310279
X522000Y-317500
X522500Y-306500
X523500Y-303500
X524500Y-309500
X524500Y-314250
X524750Y-319750
X526221Y-306971
X526750Y-309000
X529500Y-293500
X530052Y-298325
X531250Y-303250
X531513Y-298325
X531780Y-300875
X531799Y-314107
X532000Y-306250
X532500Y-296000
X533452Y-303852
X533825Y-298552
X534000Y-313500
X534836Y-303645
X536000Y-306250
X537500Y-293500
X539757Y-303044
X540225Y-304894
T2
X526600Y-292000
X531500Y-292000
T3
X542000Y-312500
X542000Y-306500
X516000Y-309000
X542000Y-303500
X542000Y-300500
X542000Y-309500
X542000Y-316000
X516000Y-316000
X516000Y-312500
X516000Y-305500
T4
X517500Y-320000
X517500Y-292000
X540500Y-320000
X540500Y-292000
T0
M30
