G04 #@! TF.GenerationSoftware,KiCad,Pcbnew,(5.0.0)*
G04 #@! TF.CreationDate,2018-11-29T21:10:00+03:00*
G04 #@! TF.ProjectId,aks,616B732E6B696361645F706362000000,rev?*
G04 #@! TF.SameCoordinates,Original*
G04 #@! TF.FileFunction,Copper,L2,Bot,Signal*
G04 #@! TF.FilePolarity,Positive*
%FSLAX46Y46*%
G04 Gerber Fmt 4.6, Leading zero omitted, Abs format (unit mm)*
G04 Created by KiCad (PCBNEW (5.0.0)) date 11/29/18 21:10:00*
%MOMM*%
%LPD*%
G01*
G04 APERTURE LIST*
G04 #@! TA.AperFunction,ComponentPad*
%ADD10C,2.000000*%
G04 #@! TD*
G04 #@! TA.AperFunction,SMDPad,CuDef*
%ADD11R,3.000000X1.000000*%
G04 #@! TD*
G04 #@! TA.AperFunction,SMDPad,CuDef*
%ADD12R,1.000000X3.000000*%
G04 #@! TD*
G04 #@! TA.AperFunction,ComponentPad*
%ADD13C,4.000000*%
G04 #@! TD*
G04 #@! TA.AperFunction,SMDPad,CuDef*
%ADD14R,1.500000X1.000000*%
G04 #@! TD*
G04 #@! TA.AperFunction,SMDPad,CuDef*
%ADD15R,1.000000X1.500000*%
G04 #@! TD*
G04 #@! TA.AperFunction,SMDPad,CuDef*
%ADD16R,2.000000X2.750000*%
G04 #@! TD*
G04 #@! TA.AperFunction,ComponentPad*
%ADD17C,1.700000*%
G04 #@! TD*
G04 #@! TA.AperFunction,ViaPad*
%ADD18C,1.200000*%
G04 #@! TD*
G04 #@! TA.AperFunction,Conductor*
%ADD19C,0.250000*%
G04 #@! TD*
G04 APERTURE END LIST*
D10*
G04 #@! TO.P,XS8,1*
G04 #@! TO.N,reset*
X516000000Y-316000000D03*
G04 #@! TD*
D11*
G04 #@! TO.P,C6,2*
G04 #@! TO.N,Ucc*
X530500000Y-320298000D03*
G04 #@! TO.P,C6,1*
G04 #@! TO.N,GND*
X530500000Y-317250000D03*
G04 #@! TD*
G04 #@! TO.P,C7,2*
G04 #@! TO.N,Ucc*
X538500000Y-311500000D03*
G04 #@! TO.P,C7,1*
G04 #@! TO.N,GND*
X538500000Y-308452000D03*
G04 #@! TD*
D12*
G04 #@! TO.P,C3,2*
G04 #@! TO.N,GND*
X536202000Y-299750000D03*
G04 #@! TO.P,C3,1*
G04 #@! TO.N,Ucc*
X539250000Y-299750000D03*
G04 #@! TD*
D11*
G04 #@! TO.P,C4,2*
G04 #@! TO.N,Ucc*
X529250000Y-312250000D03*
G04 #@! TO.P,C4,1*
G04 #@! TO.N,GND*
X529250000Y-315298000D03*
G04 #@! TD*
G04 #@! TO.P,C5,2*
G04 #@! TO.N,Ucc*
X521250000Y-312202000D03*
G04 #@! TO.P,C5,1*
G04 #@! TO.N,GND*
X521250000Y-315250000D03*
G04 #@! TD*
D13*
G04 #@! TO.P,M3,*
G04 #@! TO.N,*
X540500000Y-292000000D03*
G04 #@! TD*
G04 #@! TO.P,M3,*
G04 #@! TO.N,*
X517500000Y-292000000D03*
G04 #@! TD*
G04 #@! TO.P,M3,*
G04 #@! TO.N,*
X540500000Y-320000000D03*
G04 #@! TD*
D10*
G04 #@! TO.P,XS1,1*
G04 #@! TO.N,Ucc*
X542000000Y-316000000D03*
G04 #@! TD*
G04 #@! TO.P,XS2,1*
G04 #@! TO.N,GND*
X542000000Y-312500000D03*
G04 #@! TD*
G04 #@! TO.P,XS3,1*
G04 #@! TO.N,MOSI*
X516000000Y-305500000D03*
G04 #@! TD*
G04 #@! TO.P,XS4,1*
G04 #@! TO.N,MISO*
X516000000Y-309000000D03*
G04 #@! TD*
G04 #@! TO.P,XS5,1*
G04 #@! TO.N,SCK*
X516000000Y-312500000D03*
G04 #@! TD*
G04 #@! TO.P,XS6,1*
G04 #@! TO.N,A*
X542000000Y-309500000D03*
G04 #@! TD*
G04 #@! TO.P,XS7,1*
G04 #@! TO.N,B*
X542000000Y-306500000D03*
G04 #@! TD*
D13*
G04 #@! TO.P,M3,*
G04 #@! TO.N,*
X517500000Y-320000000D03*
G04 #@! TD*
D14*
G04 #@! TO.P,C1,1*
G04 #@! TO.N,GND*
X535500000Y-294000000D03*
G04 #@! TO.P,C1,2*
G04 #@! TO.N,Net-(C1-Pad2)*
X535500000Y-292500000D03*
G04 #@! TD*
G04 #@! TO.P,C2,2*
G04 #@! TO.N,Net-(C2-Pad2)*
X523500000Y-292500000D03*
G04 #@! TO.P,C2,1*
G04 #@! TO.N,GND*
X523500000Y-294000000D03*
G04 #@! TD*
D15*
G04 #@! TO.P,R1,1*
G04 #@! TO.N,Net-(DD1-Pad1)*
X541750000Y-296500000D03*
G04 #@! TO.P,R1,2*
G04 #@! TO.N,RX*
X539750000Y-296500000D03*
G04 #@! TD*
G04 #@! TO.P,R2,2*
G04 #@! TO.N,TX*
X529000000Y-296000000D03*
G04 #@! TO.P,R2,1*
G04 #@! TO.N,Net-(DD1-Pad4)*
X531000000Y-296000000D03*
G04 #@! TD*
G04 #@! TO.P,R3,1*
G04 #@! TO.N,GND*
X520000000Y-301000000D03*
G04 #@! TO.P,R3,2*
G04 #@! TO.N,EN*
X518000000Y-301000000D03*
G04 #@! TD*
D14*
G04 #@! TO.P,R4,1*
G04 #@! TO.N,Ucc*
X520000000Y-306500000D03*
G04 #@! TO.P,R4,2*
G04 #@! TO.N,SDA*
X520000000Y-308500000D03*
G04 #@! TD*
D15*
G04 #@! TO.P,R5,2*
G04 #@! TO.N,SCL*
X527500000Y-305000000D03*
G04 #@! TO.P,R5,1*
G04 #@! TO.N,Ucc*
X525500000Y-305000000D03*
G04 #@! TD*
G04 #@! TO.P,R6,2*
G04 #@! TO.N,Ucc*
X525500000Y-302000000D03*
G04 #@! TO.P,R6,1*
G04 #@! TO.N,reset*
X527500000Y-302000000D03*
G04 #@! TD*
G04 #@! TO.P,R7,1*
G04 #@! TO.N,HL1*
X518000000Y-298000000D03*
G04 #@! TO.P,R7,2*
G04 #@! TO.N,Net-(HL1-Pad1)*
X520000000Y-298000000D03*
G04 #@! TD*
D14*
G04 #@! TO.P,R8,1*
G04 #@! TO.N,Net-(HL3-Pad1)*
X529500000Y-310000000D03*
G04 #@! TO.P,R8,2*
G04 #@! TO.N,GND*
X529500000Y-308000000D03*
G04 #@! TD*
G04 #@! TO.P,R9,2*
G04 #@! TO.N,Net-(HL2-Pad1)*
X534000000Y-310500000D03*
G04 #@! TO.P,R9,1*
G04 #@! TO.N,GND1*
X534000000Y-308500000D03*
G04 #@! TD*
D15*
G04 #@! TO.P,VD1,1*
G04 #@! TO.N,GND*
X536750000Y-315500000D03*
X533750000Y-315500000D03*
G04 #@! TO.P,VD1,2*
G04 #@! TO.N,Ucc*
X535250000Y-315500000D03*
D16*
X535250000Y-319250000D03*
G04 #@! TD*
D17*
G04 #@! TO.P,ZQ1,2*
G04 #@! TO.N,Net-(C2-Pad2)*
X526600000Y-292000000D03*
G04 #@! TO.P,ZQ1,1*
G04 #@! TO.N,Net-(C1-Pad2)*
X531500000Y-292000000D03*
G04 #@! TD*
D10*
G04 #@! TO.P,XS9,1*
G04 #@! TO.N,SDA*
X542000000Y-300500000D03*
G04 #@! TD*
G04 #@! TO.P,XS10,1*
G04 #@! TO.N,SCL*
X542000000Y-303500000D03*
G04 #@! TD*
D18*
G04 #@! TO.N,*
X524750000Y-319750000D03*
X524500000Y-314250000D03*
G04 #@! TO.N,GND*
X529500000Y-293500000D03*
X534000000Y-313500000D03*
X524500000Y-309500000D03*
X531798512Y-314106674D03*
X533451791Y-303851955D03*
G04 #@! TO.N,Net-(C2-Pad2)*
X517500000Y-295500000D03*
G04 #@! TO.N,Net-(DD1-Pad4)*
X532500000Y-296000000D03*
G04 #@! TO.N,EN*
X516500000Y-301000000D03*
X533824990Y-298551924D03*
G04 #@! TO.N,Net-(DD1-Pad1)*
X537500000Y-293500000D03*
G04 #@! TO.N,HL1*
X516500000Y-298000000D03*
G04 #@! TO.N,SDA*
X526220919Y-306970919D03*
X520845919Y-320095919D03*
G04 #@! TO.N,SCL*
X520527939Y-317469776D03*
X531250000Y-303250000D03*
G04 #@! TO.N,RX*
X531513103Y-298324990D03*
G04 #@! TO.N,TX*
X530051924Y-298324990D03*
G04 #@! TO.N,Net-(HL1-Pad1)*
X534836362Y-303644604D03*
G04 #@! TO.N,Ucc*
X522500000Y-306500000D03*
X522000000Y-317500000D03*
X520500000Y-321750000D03*
X521779081Y-310279081D03*
X523500000Y-303500000D03*
X539756710Y-303043971D03*
X540224657Y-304893674D03*
G04 #@! TO.N,Net-(HL3-Pad1)*
X526750000Y-309000000D03*
G04 #@! TO.N,Net-(HL2-Pad1)*
X536000000Y-306250000D03*
G04 #@! TO.N,reset*
X531780003Y-300875021D03*
G04 #@! TO.N,GND1*
X532000000Y-306250000D03*
G04 #@! TD*
D19*
G04 #@! TO.N,Net-(C1-Pad2)*
X531500000Y-292000000D02*
X535500000Y-292000000D01*
G04 #@! TO.N,GND*
X535500000Y-294000000D02*
X530000000Y-294000000D01*
X530000000Y-294000000D02*
X529500000Y-293500000D01*
X534000000Y-315250000D02*
X533750000Y-315500000D01*
X529500000Y-317250000D02*
X529452000Y-317202000D01*
X540250000Y-308452000D02*
X538500000Y-308452000D01*
X540500000Y-308702000D02*
X540250000Y-308452000D01*
X540500000Y-311000000D02*
X540500000Y-308702000D01*
X542000000Y-312500000D02*
X540500000Y-311000000D01*
X530500000Y-317250000D02*
X527500000Y-317250000D01*
X533750000Y-313750000D02*
X534000000Y-313500000D01*
X533750000Y-315500000D02*
X533750000Y-313750000D01*
X529250000Y-315298000D02*
X531452000Y-315298000D01*
X531455714Y-315298000D02*
X531452000Y-315298000D01*
X531798512Y-314955202D02*
X531455714Y-315298000D01*
X531798512Y-314106674D02*
X531798512Y-314955202D01*
X521298000Y-315298000D02*
X521250000Y-315250000D01*
X530500000Y-317250000D02*
X526250000Y-317250000D01*
X526250000Y-317250000D02*
X525250000Y-316250000D01*
X525250000Y-315798000D02*
X524750000Y-315298000D01*
X525250000Y-316250000D02*
X525250000Y-315798000D01*
X524750000Y-315298000D02*
X521298000Y-315298000D01*
X525250000Y-315798000D02*
X525750000Y-315298000D01*
X529250000Y-315298000D02*
X525750000Y-315298000D01*
X524500000Y-310348528D02*
X524500000Y-309500000D01*
X524500000Y-311548000D02*
X524500000Y-310348528D01*
X528250000Y-315298000D02*
X524500000Y-311548000D01*
X529250000Y-315298000D02*
X528250000Y-315298000D01*
X536202000Y-303647968D02*
X535280363Y-304569605D01*
X534169441Y-304569605D02*
X534051790Y-304451954D01*
X536202000Y-299750000D02*
X536202000Y-303647968D01*
X535280363Y-304569605D02*
X534169441Y-304569605D01*
X534051790Y-304451954D02*
X533451791Y-303851955D01*
X536750000Y-315500000D02*
X536750000Y-314500000D01*
X536750000Y-314500000D02*
X538750000Y-312500000D01*
X538750000Y-312500000D02*
X542000000Y-312500000D01*
G04 #@! TO.N,Net-(C2-Pad2)*
X517500000Y-295500000D02*
X518000000Y-295500000D01*
X518099999Y-294900001D02*
X519849999Y-294900001D01*
X517500000Y-295500000D02*
X518099999Y-294900001D01*
X522250000Y-292500000D02*
X523500000Y-292500000D01*
X519849999Y-294900001D02*
X522250000Y-292500000D01*
X526100000Y-292500000D02*
X526600000Y-292000000D01*
X523500000Y-292500000D02*
X526100000Y-292500000D01*
G04 #@! TO.N,Net-(DD1-Pad4)*
X532500000Y-296000000D02*
X531000000Y-296000000D01*
G04 #@! TO.N,EN*
X518000000Y-301000000D02*
X516500000Y-301000000D01*
X532576923Y-299799991D02*
X533824990Y-298551924D01*
X523700009Y-299799991D02*
X532576923Y-299799991D01*
X520500000Y-303000000D02*
X523700009Y-299799991D01*
X517651472Y-303000000D02*
X520500000Y-303000000D01*
X516500000Y-301848528D02*
X517651472Y-303000000D01*
X516500000Y-301000000D02*
X516500000Y-301848528D01*
G04 #@! TO.N,Net-(DD1-Pad1)*
X541750000Y-295500000D02*
X541000000Y-294750000D01*
X541750000Y-296500000D02*
X541750000Y-295500000D01*
X541000000Y-294750000D02*
X537750000Y-294750000D01*
X537500000Y-294500000D02*
X537500000Y-293500000D01*
X537750000Y-294750000D02*
X537500000Y-294500000D01*
G04 #@! TO.N,HL1*
X516500000Y-298000000D02*
X518000000Y-298000000D01*
G04 #@! TO.N,SDA*
X524279081Y-306970919D02*
X525372391Y-306970919D01*
X520000000Y-308500000D02*
X522750000Y-308500000D01*
X522750000Y-308500000D02*
X524279081Y-306970919D01*
X525372391Y-306970919D02*
X526220919Y-306970919D01*
X518500000Y-316901472D02*
X520845919Y-319247391D01*
X520845919Y-319247391D02*
X520845919Y-320095919D01*
X518500000Y-310750000D02*
X518500000Y-316901472D01*
X520000000Y-309250000D02*
X518500000Y-310750000D01*
X520000000Y-308500000D02*
X520000000Y-309250000D01*
G04 #@! TO.N,SCL*
X530650001Y-303849999D02*
X530650001Y-304349999D01*
X531250000Y-303250000D02*
X530650001Y-303849999D01*
X530000000Y-305000000D02*
X527500000Y-305000000D01*
X530650001Y-304349999D02*
X530000000Y-305000000D01*
X541531328Y-303968672D02*
X539780655Y-303968672D01*
X539780655Y-303968672D02*
X539655655Y-304093672D01*
X531319618Y-305019616D02*
X530650001Y-304349999D01*
X542000000Y-303500000D02*
X541531328Y-303968672D01*
X536980384Y-305019616D02*
X531319618Y-305019616D01*
X539655655Y-304093672D02*
X537906328Y-304093672D01*
X537906328Y-304093672D02*
X536980384Y-305019616D01*
X526500000Y-308000000D02*
X527500000Y-307000000D01*
X520527939Y-317469776D02*
X519250000Y-316191837D01*
X519250000Y-316191837D02*
X519250000Y-311250000D01*
X527500000Y-307000000D02*
X527500000Y-305000000D01*
X519250000Y-311250000D02*
X521500000Y-309000000D01*
X521500000Y-309000000D02*
X523250000Y-309000000D01*
X523250000Y-309000000D02*
X524250000Y-308000000D01*
X524250000Y-308000000D02*
X526500000Y-308000000D01*
G04 #@! TO.N,RX*
X533338093Y-296500000D02*
X532113102Y-297724991D01*
X532113102Y-297724991D02*
X531513103Y-298324990D01*
X539750000Y-296500000D02*
X533338093Y-296500000D01*
G04 #@! TO.N,TX*
X529451925Y-297724991D02*
X530051924Y-298324990D01*
X529000000Y-296000000D02*
X529000000Y-297273066D01*
X529000000Y-297273066D02*
X529451925Y-297724991D01*
G04 #@! TO.N,Net-(HL1-Pad1)*
X532500000Y-299000000D02*
X532500000Y-298000000D01*
X532250000Y-299250000D02*
X532500000Y-299000000D01*
X534250000Y-297250000D02*
X534836362Y-297836362D01*
X525750000Y-299250000D02*
X532250000Y-299250000D01*
X532500000Y-298000000D02*
X533250000Y-297250000D01*
X534836362Y-297836362D02*
X534836362Y-302796076D01*
X524500000Y-298000000D02*
X525750000Y-299250000D01*
X520000000Y-298000000D02*
X524500000Y-298000000D01*
X533250000Y-297250000D02*
X534250000Y-297250000D01*
X534836362Y-302796076D02*
X534836362Y-303644604D01*
G04 #@! TO.N,Ucc*
X525500000Y-305000000D02*
X525500000Y-306000000D01*
X525500000Y-306000000D02*
X525000000Y-306500000D01*
X522500000Y-306500000D02*
X523500000Y-306500000D01*
X523500000Y-306500000D02*
X525000000Y-306500000D01*
X522500000Y-306500000D02*
X522500000Y-306500000D01*
X520000000Y-306500000D02*
X522500000Y-306500000D01*
X525000000Y-306500000D02*
X525500000Y-306000000D01*
X525500000Y-302000000D02*
X525500000Y-303500000D01*
X525500000Y-303500000D02*
X525500000Y-305000000D01*
X533250000Y-319250000D02*
X532250000Y-320250000D01*
X535250000Y-319250000D02*
X533250000Y-319250000D01*
X532202000Y-320298000D02*
X532250000Y-320250000D01*
X529500000Y-320298000D02*
X532202000Y-320298000D01*
X529452000Y-320250000D02*
X529500000Y-320298000D01*
X535250000Y-319250000D02*
X536750000Y-319250000D01*
X540000000Y-316000000D02*
X542000000Y-316000000D01*
X536750000Y-319250000D02*
X540000000Y-316000000D01*
X535250000Y-315500000D02*
X535250000Y-315250000D01*
X535250000Y-315500000D02*
X535250000Y-314500000D01*
X535250000Y-315500000D02*
X535250000Y-319250000D01*
X521250000Y-310808162D02*
X521779081Y-310279081D01*
X521250000Y-312202000D02*
X521250000Y-310808162D01*
X520500000Y-321750000D02*
X530250000Y-321750000D01*
X530500000Y-321500000D02*
X530500000Y-320298000D01*
X530250000Y-321750000D02*
X530500000Y-321500000D01*
X522000000Y-320250000D02*
X520500000Y-321750000D01*
X522000000Y-317500000D02*
X522000000Y-320250000D01*
X529202000Y-312202000D02*
X529250000Y-312250000D01*
X525500000Y-303500000D02*
X523500000Y-303500000D01*
X522500000Y-304500000D02*
X523500000Y-303500000D01*
X522500000Y-306500000D02*
X522500000Y-304500000D01*
X539250000Y-299750000D02*
X539250000Y-302537261D01*
X539250000Y-302537261D02*
X539756710Y-303043971D01*
X539376129Y-304893674D02*
X540224657Y-304893674D01*
X536250000Y-308019803D02*
X539376129Y-304893674D01*
X536750000Y-311500000D02*
X535250000Y-313000000D01*
X538500000Y-311500000D02*
X536750000Y-311500000D01*
X535250000Y-313000000D02*
X534500000Y-312250000D01*
X535250000Y-313500000D02*
X535250000Y-313000000D01*
X535250000Y-313500000D02*
X535250000Y-315500000D01*
X529250000Y-312250000D02*
X534500000Y-312250000D01*
X536250000Y-311000000D02*
X536750000Y-311500000D01*
X536250000Y-310000000D02*
X536250000Y-311000000D01*
X536250000Y-310000000D02*
X536250000Y-308019803D01*
G04 #@! TO.N,Net-(HL3-Pad1)*
X527750000Y-310000000D02*
X526750000Y-309000000D01*
X529500000Y-310000000D02*
X527750000Y-310000000D01*
G04 #@! TO.N,Net-(HL2-Pad1)*
X535000000Y-310500000D02*
X534000000Y-310500000D01*
X535400001Y-310099999D02*
X535000000Y-310500000D01*
X535400001Y-306849999D02*
X535400001Y-310099999D01*
X536000000Y-306250000D02*
X535400001Y-306849999D01*
G04 #@! TO.N,reset*
X531180004Y-301475020D02*
X531780003Y-300875021D01*
X530655024Y-302000000D02*
X531180004Y-301475020D01*
X527500000Y-302000000D02*
X530655024Y-302000000D01*
X517750000Y-314250000D02*
X516000000Y-316000000D01*
X517750000Y-306914998D02*
X517750000Y-314250000D01*
X524164998Y-300500000D02*
X517750000Y-306914998D01*
X531750000Y-300500000D02*
X524164998Y-300500000D01*
X531780003Y-300875021D02*
X531780003Y-300530003D01*
X531780003Y-300530003D02*
X531750000Y-300500000D01*
G04 #@! TO.N,GND1*
X534000000Y-309000000D02*
X534000000Y-306750000D01*
X533500000Y-306250000D02*
X532000000Y-306250000D01*
X534000000Y-306750000D02*
X533500000Y-306250000D01*
G04 #@! TD*
G04 #@! TO.N,GND*
G36*
X530931243Y-305338348D02*
X530959138Y-305380096D01*
X531124528Y-305490605D01*
X531270375Y-305519616D01*
X531270376Y-305519616D01*
X531319617Y-305529411D01*
X531347222Y-305523920D01*
X531173435Y-305697707D01*
X531025000Y-306056061D01*
X531025000Y-306443939D01*
X531173435Y-306802293D01*
X531447707Y-307076565D01*
X531806061Y-307225000D01*
X532193939Y-307225000D01*
X532552293Y-307076565D01*
X532826565Y-306802293D01*
X532848225Y-306750000D01*
X533292894Y-306750000D01*
X533500001Y-306957108D01*
X533500001Y-307617654D01*
X533250000Y-307617654D01*
X533103683Y-307646758D01*
X532979641Y-307729641D01*
X532896758Y-307853683D01*
X532867654Y-308000000D01*
X532867654Y-309000000D01*
X532896758Y-309146317D01*
X532979641Y-309270359D01*
X533103683Y-309353242D01*
X533250000Y-309382346D01*
X533672245Y-309382346D01*
X533804910Y-309470989D01*
X534000000Y-309509795D01*
X534195089Y-309470989D01*
X534327755Y-309382346D01*
X534750000Y-309382346D01*
X534896317Y-309353242D01*
X534900002Y-309350780D01*
X534900002Y-309649220D01*
X534896317Y-309646758D01*
X534750000Y-309617654D01*
X533250000Y-309617654D01*
X533103683Y-309646758D01*
X532979641Y-309729641D01*
X532896758Y-309853683D01*
X532867654Y-310000000D01*
X532867654Y-311000000D01*
X532896758Y-311146317D01*
X532979641Y-311270359D01*
X533103683Y-311353242D01*
X533250000Y-311382346D01*
X534750000Y-311382346D01*
X534896317Y-311353242D01*
X535020359Y-311270359D01*
X535103242Y-311146317D01*
X535132346Y-311000000D01*
X535132346Y-310983470D01*
X535195090Y-310970989D01*
X535360480Y-310860480D01*
X535388376Y-310818730D01*
X535718733Y-310488374D01*
X535750000Y-310467482D01*
X535750001Y-310950754D01*
X535740205Y-311000000D01*
X535769310Y-311146317D01*
X535779012Y-311195090D01*
X535889521Y-311360480D01*
X535931268Y-311388374D01*
X536042893Y-311500000D01*
X535250000Y-312292894D01*
X534888376Y-311931270D01*
X534860480Y-311889520D01*
X534695090Y-311779011D01*
X534549243Y-311750000D01*
X534549241Y-311750000D01*
X534500000Y-311740205D01*
X534450759Y-311750000D01*
X531132346Y-311750000D01*
X531103242Y-311603683D01*
X531020359Y-311479641D01*
X530896317Y-311396758D01*
X530750000Y-311367654D01*
X527750000Y-311367654D01*
X527603683Y-311396758D01*
X527479641Y-311479641D01*
X527396758Y-311603683D01*
X527367654Y-311750000D01*
X527367654Y-312750000D01*
X527396758Y-312896317D01*
X527479641Y-313020359D01*
X527603683Y-313103242D01*
X527750000Y-313132346D01*
X530750000Y-313132346D01*
X530896317Y-313103242D01*
X531020359Y-313020359D01*
X531103242Y-312896317D01*
X531132346Y-312750000D01*
X534292894Y-312750000D01*
X534750001Y-313207107D01*
X534750000Y-313450757D01*
X534750000Y-314367654D01*
X534603683Y-314396758D01*
X534497823Y-314467492D01*
X534462420Y-314432090D01*
X534324592Y-314375000D01*
X533868750Y-314375000D01*
X533775000Y-314468750D01*
X533775000Y-315475000D01*
X533795000Y-315475000D01*
X533795000Y-315525000D01*
X533775000Y-315525000D01*
X533775000Y-316531250D01*
X533868750Y-316625000D01*
X534324592Y-316625000D01*
X534462420Y-316567910D01*
X534497823Y-316532508D01*
X534603683Y-316603242D01*
X534750000Y-316632346D01*
X534750001Y-317492654D01*
X534250000Y-317492654D01*
X534103683Y-317521758D01*
X533979641Y-317604641D01*
X533896758Y-317728683D01*
X533867654Y-317875000D01*
X533867654Y-318750000D01*
X533299246Y-318750000D01*
X533250000Y-318740204D01*
X533068026Y-318776402D01*
X533054910Y-318779011D01*
X532889520Y-318889520D01*
X532861626Y-318931267D01*
X532267298Y-319525596D01*
X532146317Y-319444758D01*
X532000000Y-319415654D01*
X529000000Y-319415654D01*
X528853683Y-319444758D01*
X528729641Y-319527641D01*
X528646758Y-319651683D01*
X528617654Y-319798000D01*
X528617654Y-320798000D01*
X528646758Y-320944317D01*
X528729641Y-321068359D01*
X528853683Y-321151242D01*
X529000000Y-321180346D01*
X530000000Y-321180346D01*
X530000000Y-321250000D01*
X521707107Y-321250000D01*
X522318732Y-320638375D01*
X522360480Y-320610480D01*
X522470989Y-320445090D01*
X522500000Y-320299243D01*
X522500000Y-320299242D01*
X522509795Y-320250001D01*
X522500000Y-320200760D01*
X522500000Y-319556061D01*
X523775000Y-319556061D01*
X523775000Y-319943939D01*
X523923435Y-320302293D01*
X524197707Y-320576565D01*
X524556061Y-320725000D01*
X524943939Y-320725000D01*
X525302293Y-320576565D01*
X525576565Y-320302293D01*
X525725000Y-319943939D01*
X525725000Y-319556061D01*
X525576565Y-319197707D01*
X525302293Y-318923435D01*
X524943939Y-318775000D01*
X524556061Y-318775000D01*
X524197707Y-318923435D01*
X523923435Y-319197707D01*
X523775000Y-319556061D01*
X522500000Y-319556061D01*
X522500000Y-318348225D01*
X522552293Y-318326565D01*
X522826565Y-318052293D01*
X522975000Y-317693939D01*
X522975000Y-317368750D01*
X528625000Y-317368750D01*
X528625000Y-317824592D01*
X528682090Y-317962420D01*
X528787579Y-318067910D01*
X528925408Y-318125000D01*
X530381250Y-318125000D01*
X530475000Y-318031250D01*
X530475000Y-317275000D01*
X530525000Y-317275000D01*
X530525000Y-318031250D01*
X530618750Y-318125000D01*
X532074592Y-318125000D01*
X532212421Y-318067910D01*
X532317910Y-317962420D01*
X532375000Y-317824592D01*
X532375000Y-317368750D01*
X532281250Y-317275000D01*
X530525000Y-317275000D01*
X530475000Y-317275000D01*
X528718750Y-317275000D01*
X528625000Y-317368750D01*
X522975000Y-317368750D01*
X522975000Y-317306061D01*
X522826565Y-316947707D01*
X522554266Y-316675408D01*
X528625000Y-316675408D01*
X528625000Y-317131250D01*
X528718750Y-317225000D01*
X530475000Y-317225000D01*
X530475000Y-316468750D01*
X530525000Y-316468750D01*
X530525000Y-317225000D01*
X532281250Y-317225000D01*
X532375000Y-317131250D01*
X532375000Y-316675408D01*
X532317910Y-316537580D01*
X532212421Y-316432090D01*
X532074592Y-316375000D01*
X530618750Y-316375000D01*
X530525000Y-316468750D01*
X530475000Y-316468750D01*
X530381250Y-316375000D01*
X528925408Y-316375000D01*
X528787579Y-316432090D01*
X528682090Y-316537580D01*
X528625000Y-316675408D01*
X522554266Y-316675408D01*
X522552293Y-316673435D01*
X522193939Y-316525000D01*
X521806061Y-316525000D01*
X521447707Y-316673435D01*
X521279082Y-316842061D01*
X521080232Y-316643211D01*
X520721878Y-316494776D01*
X520334000Y-316494776D01*
X520281706Y-316516437D01*
X519890269Y-316125000D01*
X521131250Y-316125000D01*
X521225000Y-316031250D01*
X521225000Y-315275000D01*
X521275000Y-315275000D01*
X521275000Y-316031250D01*
X521368750Y-316125000D01*
X522824592Y-316125000D01*
X522962421Y-316067910D01*
X523067910Y-315962420D01*
X523125000Y-315824592D01*
X523125000Y-315416750D01*
X527375000Y-315416750D01*
X527375000Y-315872592D01*
X527432090Y-316010420D01*
X527537579Y-316115910D01*
X527675408Y-316173000D01*
X529131250Y-316173000D01*
X529225000Y-316079250D01*
X529225000Y-315323000D01*
X529275000Y-315323000D01*
X529275000Y-316079250D01*
X529368750Y-316173000D01*
X530824592Y-316173000D01*
X530962421Y-316115910D01*
X531067910Y-316010420D01*
X531125000Y-315872592D01*
X531125000Y-315618750D01*
X532875000Y-315618750D01*
X532875000Y-316324592D01*
X532932090Y-316462421D01*
X533037580Y-316567910D01*
X533175408Y-316625000D01*
X533631250Y-316625000D01*
X533725000Y-316531250D01*
X533725000Y-315525000D01*
X532968750Y-315525000D01*
X532875000Y-315618750D01*
X531125000Y-315618750D01*
X531125000Y-315416750D01*
X531031250Y-315323000D01*
X529275000Y-315323000D01*
X529225000Y-315323000D01*
X527468750Y-315323000D01*
X527375000Y-315416750D01*
X523125000Y-315416750D01*
X523125000Y-315368750D01*
X523031250Y-315275000D01*
X521275000Y-315275000D01*
X521225000Y-315275000D01*
X521205000Y-315275000D01*
X521205000Y-315225000D01*
X521225000Y-315225000D01*
X521225000Y-314468750D01*
X521275000Y-314468750D01*
X521275000Y-315225000D01*
X523031250Y-315225000D01*
X523125000Y-315131250D01*
X523125000Y-314675408D01*
X523067910Y-314537580D01*
X522962421Y-314432090D01*
X522824592Y-314375000D01*
X521368750Y-314375000D01*
X521275000Y-314468750D01*
X521225000Y-314468750D01*
X521131250Y-314375000D01*
X519750000Y-314375000D01*
X519750000Y-314056061D01*
X523525000Y-314056061D01*
X523525000Y-314443939D01*
X523673435Y-314802293D01*
X523947707Y-315076565D01*
X524306061Y-315225000D01*
X524693939Y-315225000D01*
X525052293Y-315076565D01*
X525326565Y-314802293D01*
X525359240Y-314723408D01*
X527375000Y-314723408D01*
X527375000Y-315179250D01*
X527468750Y-315273000D01*
X529225000Y-315273000D01*
X529225000Y-314516750D01*
X529275000Y-314516750D01*
X529275000Y-315273000D01*
X531031250Y-315273000D01*
X531125000Y-315179250D01*
X531125000Y-314723408D01*
X531105118Y-314675408D01*
X532875000Y-314675408D01*
X532875000Y-315381250D01*
X532968750Y-315475000D01*
X533725000Y-315475000D01*
X533725000Y-314468750D01*
X533631250Y-314375000D01*
X533175408Y-314375000D01*
X533037580Y-314432090D01*
X532932090Y-314537579D01*
X532875000Y-314675408D01*
X531105118Y-314675408D01*
X531067910Y-314585580D01*
X530962421Y-314480090D01*
X530824592Y-314423000D01*
X529368750Y-314423000D01*
X529275000Y-314516750D01*
X529225000Y-314516750D01*
X529131250Y-314423000D01*
X527675408Y-314423000D01*
X527537579Y-314480090D01*
X527432090Y-314585580D01*
X527375000Y-314723408D01*
X525359240Y-314723408D01*
X525475000Y-314443939D01*
X525475000Y-314056061D01*
X525326565Y-313697707D01*
X525052293Y-313423435D01*
X524693939Y-313275000D01*
X524306061Y-313275000D01*
X523947707Y-313423435D01*
X523673435Y-313697707D01*
X523525000Y-314056061D01*
X519750000Y-314056061D01*
X519750000Y-313084346D01*
X522750000Y-313084346D01*
X522896317Y-313055242D01*
X523020359Y-312972359D01*
X523103242Y-312848317D01*
X523132346Y-312702000D01*
X523132346Y-311702000D01*
X523103242Y-311555683D01*
X523020359Y-311431641D01*
X522896317Y-311348758D01*
X522750000Y-311319654D01*
X521750000Y-311319654D01*
X521750000Y-311254081D01*
X521973020Y-311254081D01*
X522331374Y-311105646D01*
X522605646Y-310831374D01*
X522754081Y-310473020D01*
X522754081Y-310085142D01*
X522605646Y-309726788D01*
X522378858Y-309500000D01*
X523200759Y-309500000D01*
X523250000Y-309509795D01*
X523299241Y-309500000D01*
X523299243Y-309500000D01*
X523445090Y-309470989D01*
X523610480Y-309360480D01*
X523638376Y-309318730D01*
X524457107Y-308500000D01*
X525901775Y-308500000D01*
X525775000Y-308806061D01*
X525775000Y-309193939D01*
X525923435Y-309552293D01*
X526197707Y-309826565D01*
X526556061Y-309975000D01*
X526943939Y-309975000D01*
X526996233Y-309953339D01*
X527361625Y-310318732D01*
X527389520Y-310360480D01*
X527520028Y-310447682D01*
X527554910Y-310470989D01*
X527750000Y-310509796D01*
X527799246Y-310500000D01*
X528367654Y-310500000D01*
X528396758Y-310646317D01*
X528479641Y-310770359D01*
X528603683Y-310853242D01*
X528750000Y-310882346D01*
X530250000Y-310882346D01*
X530396317Y-310853242D01*
X530520359Y-310770359D01*
X530603242Y-310646317D01*
X530632346Y-310500000D01*
X530632346Y-309500000D01*
X530603242Y-309353683D01*
X530520359Y-309229641D01*
X530396317Y-309146758D01*
X530250000Y-309117654D01*
X528750000Y-309117654D01*
X528603683Y-309146758D01*
X528479641Y-309229641D01*
X528396758Y-309353683D01*
X528367654Y-309500000D01*
X527957107Y-309500000D01*
X527703339Y-309246233D01*
X527725000Y-309193939D01*
X527725000Y-308806061D01*
X527576565Y-308447707D01*
X527302293Y-308173435D01*
X527170272Y-308118750D01*
X528375000Y-308118750D01*
X528375000Y-308574592D01*
X528432090Y-308712420D01*
X528537579Y-308817910D01*
X528675408Y-308875000D01*
X529381250Y-308875000D01*
X529475000Y-308781250D01*
X529475000Y-308025000D01*
X529525000Y-308025000D01*
X529525000Y-308781250D01*
X529618750Y-308875000D01*
X530324592Y-308875000D01*
X530462421Y-308817910D01*
X530567910Y-308712420D01*
X530625000Y-308574592D01*
X530625000Y-308118750D01*
X530531250Y-308025000D01*
X529525000Y-308025000D01*
X529475000Y-308025000D01*
X528468750Y-308025000D01*
X528375000Y-308118750D01*
X527170272Y-308118750D01*
X527112349Y-308094758D01*
X527781699Y-307425408D01*
X528375000Y-307425408D01*
X528375000Y-307881250D01*
X528468750Y-307975000D01*
X529475000Y-307975000D01*
X529475000Y-307218750D01*
X529525000Y-307218750D01*
X529525000Y-307975000D01*
X530531250Y-307975000D01*
X530625000Y-307881250D01*
X530625000Y-307425408D01*
X530567910Y-307287580D01*
X530462421Y-307182090D01*
X530324592Y-307125000D01*
X529618750Y-307125000D01*
X529525000Y-307218750D01*
X529475000Y-307218750D01*
X529381250Y-307125000D01*
X528675408Y-307125000D01*
X528537579Y-307182090D01*
X528432090Y-307287580D01*
X528375000Y-307425408D01*
X527781699Y-307425408D01*
X527818733Y-307388374D01*
X527860480Y-307360480D01*
X527970989Y-307195090D01*
X527973575Y-307182090D01*
X528009796Y-307000000D01*
X528000000Y-306950754D01*
X528000000Y-306132346D01*
X528146317Y-306103242D01*
X528270359Y-306020359D01*
X528353242Y-305896317D01*
X528382346Y-305750000D01*
X528382346Y-305500000D01*
X529950759Y-305500000D01*
X530000000Y-305509795D01*
X530049241Y-305500000D01*
X530049243Y-305500000D01*
X530195090Y-305470989D01*
X530360480Y-305360480D01*
X530388376Y-305318730D01*
X530650001Y-305057105D01*
X530931243Y-305338348D01*
X530931243Y-305338348D01*
G37*
X530931243Y-305338348D02*
X530959138Y-305380096D01*
X531124528Y-305490605D01*
X531270375Y-305519616D01*
X531270376Y-305519616D01*
X531319617Y-305529411D01*
X531347222Y-305523920D01*
X531173435Y-305697707D01*
X531025000Y-306056061D01*
X531025000Y-306443939D01*
X531173435Y-306802293D01*
X531447707Y-307076565D01*
X531806061Y-307225000D01*
X532193939Y-307225000D01*
X532552293Y-307076565D01*
X532826565Y-306802293D01*
X532848225Y-306750000D01*
X533292894Y-306750000D01*
X533500001Y-306957108D01*
X533500001Y-307617654D01*
X533250000Y-307617654D01*
X533103683Y-307646758D01*
X532979641Y-307729641D01*
X532896758Y-307853683D01*
X532867654Y-308000000D01*
X532867654Y-309000000D01*
X532896758Y-309146317D01*
X532979641Y-309270359D01*
X533103683Y-309353242D01*
X533250000Y-309382346D01*
X533672245Y-309382346D01*
X533804910Y-309470989D01*
X534000000Y-309509795D01*
X534195089Y-309470989D01*
X534327755Y-309382346D01*
X534750000Y-309382346D01*
X534896317Y-309353242D01*
X534900002Y-309350780D01*
X534900002Y-309649220D01*
X534896317Y-309646758D01*
X534750000Y-309617654D01*
X533250000Y-309617654D01*
X533103683Y-309646758D01*
X532979641Y-309729641D01*
X532896758Y-309853683D01*
X532867654Y-310000000D01*
X532867654Y-311000000D01*
X532896758Y-311146317D01*
X532979641Y-311270359D01*
X533103683Y-311353242D01*
X533250000Y-311382346D01*
X534750000Y-311382346D01*
X534896317Y-311353242D01*
X535020359Y-311270359D01*
X535103242Y-311146317D01*
X535132346Y-311000000D01*
X535132346Y-310983470D01*
X535195090Y-310970989D01*
X535360480Y-310860480D01*
X535388376Y-310818730D01*
X535718733Y-310488374D01*
X535750000Y-310467482D01*
X535750001Y-310950754D01*
X535740205Y-311000000D01*
X535769310Y-311146317D01*
X535779012Y-311195090D01*
X535889521Y-311360480D01*
X535931268Y-311388374D01*
X536042893Y-311500000D01*
X535250000Y-312292894D01*
X534888376Y-311931270D01*
X534860480Y-311889520D01*
X534695090Y-311779011D01*
X534549243Y-311750000D01*
X534549241Y-311750000D01*
X534500000Y-311740205D01*
X534450759Y-311750000D01*
X531132346Y-311750000D01*
X531103242Y-311603683D01*
X531020359Y-311479641D01*
X530896317Y-311396758D01*
X530750000Y-311367654D01*
X527750000Y-311367654D01*
X527603683Y-311396758D01*
X527479641Y-311479641D01*
X527396758Y-311603683D01*
X527367654Y-311750000D01*
X527367654Y-312750000D01*
X527396758Y-312896317D01*
X527479641Y-313020359D01*
X527603683Y-313103242D01*
X527750000Y-313132346D01*
X530750000Y-313132346D01*
X530896317Y-313103242D01*
X531020359Y-313020359D01*
X531103242Y-312896317D01*
X531132346Y-312750000D01*
X534292894Y-312750000D01*
X534750001Y-313207107D01*
X534750000Y-313450757D01*
X534750000Y-314367654D01*
X534603683Y-314396758D01*
X534497823Y-314467492D01*
X534462420Y-314432090D01*
X534324592Y-314375000D01*
X533868750Y-314375000D01*
X533775000Y-314468750D01*
X533775000Y-315475000D01*
X533795000Y-315475000D01*
X533795000Y-315525000D01*
X533775000Y-315525000D01*
X533775000Y-316531250D01*
X533868750Y-316625000D01*
X534324592Y-316625000D01*
X534462420Y-316567910D01*
X534497823Y-316532508D01*
X534603683Y-316603242D01*
X534750000Y-316632346D01*
X534750001Y-317492654D01*
X534250000Y-317492654D01*
X534103683Y-317521758D01*
X533979641Y-317604641D01*
X533896758Y-317728683D01*
X533867654Y-317875000D01*
X533867654Y-318750000D01*
X533299246Y-318750000D01*
X533250000Y-318740204D01*
X533068026Y-318776402D01*
X533054910Y-318779011D01*
X532889520Y-318889520D01*
X532861626Y-318931267D01*
X532267298Y-319525596D01*
X532146317Y-319444758D01*
X532000000Y-319415654D01*
X529000000Y-319415654D01*
X528853683Y-319444758D01*
X528729641Y-319527641D01*
X528646758Y-319651683D01*
X528617654Y-319798000D01*
X528617654Y-320798000D01*
X528646758Y-320944317D01*
X528729641Y-321068359D01*
X528853683Y-321151242D01*
X529000000Y-321180346D01*
X530000000Y-321180346D01*
X530000000Y-321250000D01*
X521707107Y-321250000D01*
X522318732Y-320638375D01*
X522360480Y-320610480D01*
X522470989Y-320445090D01*
X522500000Y-320299243D01*
X522500000Y-320299242D01*
X522509795Y-320250001D01*
X522500000Y-320200760D01*
X522500000Y-319556061D01*
X523775000Y-319556061D01*
X523775000Y-319943939D01*
X523923435Y-320302293D01*
X524197707Y-320576565D01*
X524556061Y-320725000D01*
X524943939Y-320725000D01*
X525302293Y-320576565D01*
X525576565Y-320302293D01*
X525725000Y-319943939D01*
X525725000Y-319556061D01*
X525576565Y-319197707D01*
X525302293Y-318923435D01*
X524943939Y-318775000D01*
X524556061Y-318775000D01*
X524197707Y-318923435D01*
X523923435Y-319197707D01*
X523775000Y-319556061D01*
X522500000Y-319556061D01*
X522500000Y-318348225D01*
X522552293Y-318326565D01*
X522826565Y-318052293D01*
X522975000Y-317693939D01*
X522975000Y-317368750D01*
X528625000Y-317368750D01*
X528625000Y-317824592D01*
X528682090Y-317962420D01*
X528787579Y-318067910D01*
X528925408Y-318125000D01*
X530381250Y-318125000D01*
X530475000Y-318031250D01*
X530475000Y-317275000D01*
X530525000Y-317275000D01*
X530525000Y-318031250D01*
X530618750Y-318125000D01*
X532074592Y-318125000D01*
X532212421Y-318067910D01*
X532317910Y-317962420D01*
X532375000Y-317824592D01*
X532375000Y-317368750D01*
X532281250Y-317275000D01*
X530525000Y-317275000D01*
X530475000Y-317275000D01*
X528718750Y-317275000D01*
X528625000Y-317368750D01*
X522975000Y-317368750D01*
X522975000Y-317306061D01*
X522826565Y-316947707D01*
X522554266Y-316675408D01*
X528625000Y-316675408D01*
X528625000Y-317131250D01*
X528718750Y-317225000D01*
X530475000Y-317225000D01*
X530475000Y-316468750D01*
X530525000Y-316468750D01*
X530525000Y-317225000D01*
X532281250Y-317225000D01*
X532375000Y-317131250D01*
X532375000Y-316675408D01*
X532317910Y-316537580D01*
X532212421Y-316432090D01*
X532074592Y-316375000D01*
X530618750Y-316375000D01*
X530525000Y-316468750D01*
X530475000Y-316468750D01*
X530381250Y-316375000D01*
X528925408Y-316375000D01*
X528787579Y-316432090D01*
X528682090Y-316537580D01*
X528625000Y-316675408D01*
X522554266Y-316675408D01*
X522552293Y-316673435D01*
X522193939Y-316525000D01*
X521806061Y-316525000D01*
X521447707Y-316673435D01*
X521279082Y-316842061D01*
X521080232Y-316643211D01*
X520721878Y-316494776D01*
X520334000Y-316494776D01*
X520281706Y-316516437D01*
X519890269Y-316125000D01*
X521131250Y-316125000D01*
X521225000Y-316031250D01*
X521225000Y-315275000D01*
X521275000Y-315275000D01*
X521275000Y-316031250D01*
X521368750Y-316125000D01*
X522824592Y-316125000D01*
X522962421Y-316067910D01*
X523067910Y-315962420D01*
X523125000Y-315824592D01*
X523125000Y-315416750D01*
X527375000Y-315416750D01*
X527375000Y-315872592D01*
X527432090Y-316010420D01*
X527537579Y-316115910D01*
X527675408Y-316173000D01*
X529131250Y-316173000D01*
X529225000Y-316079250D01*
X529225000Y-315323000D01*
X529275000Y-315323000D01*
X529275000Y-316079250D01*
X529368750Y-316173000D01*
X530824592Y-316173000D01*
X530962421Y-316115910D01*
X531067910Y-316010420D01*
X531125000Y-315872592D01*
X531125000Y-315618750D01*
X532875000Y-315618750D01*
X532875000Y-316324592D01*
X532932090Y-316462421D01*
X533037580Y-316567910D01*
X533175408Y-316625000D01*
X533631250Y-316625000D01*
X533725000Y-316531250D01*
X533725000Y-315525000D01*
X532968750Y-315525000D01*
X532875000Y-315618750D01*
X531125000Y-315618750D01*
X531125000Y-315416750D01*
X531031250Y-315323000D01*
X529275000Y-315323000D01*
X529225000Y-315323000D01*
X527468750Y-315323000D01*
X527375000Y-315416750D01*
X523125000Y-315416750D01*
X523125000Y-315368750D01*
X523031250Y-315275000D01*
X521275000Y-315275000D01*
X521225000Y-315275000D01*
X521205000Y-315275000D01*
X521205000Y-315225000D01*
X521225000Y-315225000D01*
X521225000Y-314468750D01*
X521275000Y-314468750D01*
X521275000Y-315225000D01*
X523031250Y-315225000D01*
X523125000Y-315131250D01*
X523125000Y-314675408D01*
X523067910Y-314537580D01*
X522962421Y-314432090D01*
X522824592Y-314375000D01*
X521368750Y-314375000D01*
X521275000Y-314468750D01*
X521225000Y-314468750D01*
X521131250Y-314375000D01*
X519750000Y-314375000D01*
X519750000Y-314056061D01*
X523525000Y-314056061D01*
X523525000Y-314443939D01*
X523673435Y-314802293D01*
X523947707Y-315076565D01*
X524306061Y-315225000D01*
X524693939Y-315225000D01*
X525052293Y-315076565D01*
X525326565Y-314802293D01*
X525359240Y-314723408D01*
X527375000Y-314723408D01*
X527375000Y-315179250D01*
X527468750Y-315273000D01*
X529225000Y-315273000D01*
X529225000Y-314516750D01*
X529275000Y-314516750D01*
X529275000Y-315273000D01*
X531031250Y-315273000D01*
X531125000Y-315179250D01*
X531125000Y-314723408D01*
X531105118Y-314675408D01*
X532875000Y-314675408D01*
X532875000Y-315381250D01*
X532968750Y-315475000D01*
X533725000Y-315475000D01*
X533725000Y-314468750D01*
X533631250Y-314375000D01*
X533175408Y-314375000D01*
X533037580Y-314432090D01*
X532932090Y-314537579D01*
X532875000Y-314675408D01*
X531105118Y-314675408D01*
X531067910Y-314585580D01*
X530962421Y-314480090D01*
X530824592Y-314423000D01*
X529368750Y-314423000D01*
X529275000Y-314516750D01*
X529225000Y-314516750D01*
X529131250Y-314423000D01*
X527675408Y-314423000D01*
X527537579Y-314480090D01*
X527432090Y-314585580D01*
X527375000Y-314723408D01*
X525359240Y-314723408D01*
X525475000Y-314443939D01*
X525475000Y-314056061D01*
X525326565Y-313697707D01*
X525052293Y-313423435D01*
X524693939Y-313275000D01*
X524306061Y-313275000D01*
X523947707Y-313423435D01*
X523673435Y-313697707D01*
X523525000Y-314056061D01*
X519750000Y-314056061D01*
X519750000Y-313084346D01*
X522750000Y-313084346D01*
X522896317Y-313055242D01*
X523020359Y-312972359D01*
X523103242Y-312848317D01*
X523132346Y-312702000D01*
X523132346Y-311702000D01*
X523103242Y-311555683D01*
X523020359Y-311431641D01*
X522896317Y-311348758D01*
X522750000Y-311319654D01*
X521750000Y-311319654D01*
X521750000Y-311254081D01*
X521973020Y-311254081D01*
X522331374Y-311105646D01*
X522605646Y-310831374D01*
X522754081Y-310473020D01*
X522754081Y-310085142D01*
X522605646Y-309726788D01*
X522378858Y-309500000D01*
X523200759Y-309500000D01*
X523250000Y-309509795D01*
X523299241Y-309500000D01*
X523299243Y-309500000D01*
X523445090Y-309470989D01*
X523610480Y-309360480D01*
X523638376Y-309318730D01*
X524457107Y-308500000D01*
X525901775Y-308500000D01*
X525775000Y-308806061D01*
X525775000Y-309193939D01*
X525923435Y-309552293D01*
X526197707Y-309826565D01*
X526556061Y-309975000D01*
X526943939Y-309975000D01*
X526996233Y-309953339D01*
X527361625Y-310318732D01*
X527389520Y-310360480D01*
X527520028Y-310447682D01*
X527554910Y-310470989D01*
X527750000Y-310509796D01*
X527799246Y-310500000D01*
X528367654Y-310500000D01*
X528396758Y-310646317D01*
X528479641Y-310770359D01*
X528603683Y-310853242D01*
X528750000Y-310882346D01*
X530250000Y-310882346D01*
X530396317Y-310853242D01*
X530520359Y-310770359D01*
X530603242Y-310646317D01*
X530632346Y-310500000D01*
X530632346Y-309500000D01*
X530603242Y-309353683D01*
X530520359Y-309229641D01*
X530396317Y-309146758D01*
X530250000Y-309117654D01*
X528750000Y-309117654D01*
X528603683Y-309146758D01*
X528479641Y-309229641D01*
X528396758Y-309353683D01*
X528367654Y-309500000D01*
X527957107Y-309500000D01*
X527703339Y-309246233D01*
X527725000Y-309193939D01*
X527725000Y-308806061D01*
X527576565Y-308447707D01*
X527302293Y-308173435D01*
X527170272Y-308118750D01*
X528375000Y-308118750D01*
X528375000Y-308574592D01*
X528432090Y-308712420D01*
X528537579Y-308817910D01*
X528675408Y-308875000D01*
X529381250Y-308875000D01*
X529475000Y-308781250D01*
X529475000Y-308025000D01*
X529525000Y-308025000D01*
X529525000Y-308781250D01*
X529618750Y-308875000D01*
X530324592Y-308875000D01*
X530462421Y-308817910D01*
X530567910Y-308712420D01*
X530625000Y-308574592D01*
X530625000Y-308118750D01*
X530531250Y-308025000D01*
X529525000Y-308025000D01*
X529475000Y-308025000D01*
X528468750Y-308025000D01*
X528375000Y-308118750D01*
X527170272Y-308118750D01*
X527112349Y-308094758D01*
X527781699Y-307425408D01*
X528375000Y-307425408D01*
X528375000Y-307881250D01*
X528468750Y-307975000D01*
X529475000Y-307975000D01*
X529475000Y-307218750D01*
X529525000Y-307218750D01*
X529525000Y-307975000D01*
X530531250Y-307975000D01*
X530625000Y-307881250D01*
X530625000Y-307425408D01*
X530567910Y-307287580D01*
X530462421Y-307182090D01*
X530324592Y-307125000D01*
X529618750Y-307125000D01*
X529525000Y-307218750D01*
X529475000Y-307218750D01*
X529381250Y-307125000D01*
X528675408Y-307125000D01*
X528537579Y-307182090D01*
X528432090Y-307287580D01*
X528375000Y-307425408D01*
X527781699Y-307425408D01*
X527818733Y-307388374D01*
X527860480Y-307360480D01*
X527970989Y-307195090D01*
X527973575Y-307182090D01*
X528009796Y-307000000D01*
X528000000Y-306950754D01*
X528000000Y-306132346D01*
X528146317Y-306103242D01*
X528270359Y-306020359D01*
X528353242Y-305896317D01*
X528382346Y-305750000D01*
X528382346Y-305500000D01*
X529950759Y-305500000D01*
X530000000Y-305509795D01*
X530049241Y-305500000D01*
X530049243Y-305500000D01*
X530195090Y-305470989D01*
X530360480Y-305360480D01*
X530388376Y-305318730D01*
X530650001Y-305057105D01*
X530931243Y-305338348D01*
G36*
X542875000Y-305430456D02*
X542778875Y-305334331D01*
X542273505Y-305125000D01*
X541726495Y-305125000D01*
X541221125Y-305334331D01*
X540834331Y-305721125D01*
X540625000Y-306226495D01*
X540625000Y-306773505D01*
X540834331Y-307278875D01*
X541221125Y-307665669D01*
X541726495Y-307875000D01*
X542273505Y-307875000D01*
X542778875Y-307665669D01*
X542875000Y-307569544D01*
X542875000Y-308430456D01*
X542778875Y-308334331D01*
X542273505Y-308125000D01*
X541726495Y-308125000D01*
X541221125Y-308334331D01*
X540834331Y-308721125D01*
X540625000Y-309226495D01*
X540625000Y-309773505D01*
X540834331Y-310278875D01*
X541221125Y-310665669D01*
X541726495Y-310875000D01*
X542273505Y-310875000D01*
X542778875Y-310665669D01*
X542875000Y-310569544D01*
X542875000Y-311493357D01*
X542803682Y-311351294D01*
X542302915Y-311131178D01*
X541756031Y-311119453D01*
X541246290Y-311317903D01*
X541196318Y-311351294D01*
X541092818Y-311557463D01*
X542000000Y-312464645D01*
X542014143Y-312450503D01*
X542049498Y-312485858D01*
X542035355Y-312500000D01*
X542049498Y-312514143D01*
X542014143Y-312549498D01*
X542000000Y-312535355D01*
X541092818Y-313442537D01*
X541196318Y-313648706D01*
X541697085Y-313868822D01*
X542243969Y-313880547D01*
X542753710Y-313682097D01*
X542803682Y-313648706D01*
X542875000Y-313506643D01*
X542875000Y-314930456D01*
X542778875Y-314834331D01*
X542273505Y-314625000D01*
X541726495Y-314625000D01*
X541221125Y-314834331D01*
X540834331Y-315221125D01*
X540718817Y-315500000D01*
X540049240Y-315500000D01*
X539999999Y-315490205D01*
X539950758Y-315500000D01*
X539950757Y-315500000D01*
X539804910Y-315529011D01*
X539639520Y-315639520D01*
X539611626Y-315681267D01*
X536632346Y-318660548D01*
X536632346Y-317875000D01*
X536603242Y-317728683D01*
X536520359Y-317604641D01*
X536396317Y-317521758D01*
X536250000Y-317492654D01*
X535750000Y-317492654D01*
X535750000Y-316632346D01*
X535896317Y-316603242D01*
X536002177Y-316532508D01*
X536037580Y-316567910D01*
X536175408Y-316625000D01*
X536631250Y-316625000D01*
X536725000Y-316531250D01*
X536725000Y-315525000D01*
X536775000Y-315525000D01*
X536775000Y-316531250D01*
X536868750Y-316625000D01*
X537324592Y-316625000D01*
X537462420Y-316567910D01*
X537567910Y-316462421D01*
X537625000Y-316324592D01*
X537625000Y-315618750D01*
X537531250Y-315525000D01*
X536775000Y-315525000D01*
X536725000Y-315525000D01*
X536705000Y-315525000D01*
X536705000Y-315475000D01*
X536725000Y-315475000D01*
X536725000Y-314468750D01*
X536775000Y-314468750D01*
X536775000Y-315475000D01*
X537531250Y-315475000D01*
X537625000Y-315381250D01*
X537625000Y-314675408D01*
X537567910Y-314537579D01*
X537462420Y-314432090D01*
X537324592Y-314375000D01*
X536868750Y-314375000D01*
X536775000Y-314468750D01*
X536725000Y-314468750D01*
X536631250Y-314375000D01*
X536175408Y-314375000D01*
X536037580Y-314432090D01*
X536002177Y-314467492D01*
X535896317Y-314396758D01*
X535750000Y-314367654D01*
X535750000Y-313207106D01*
X536213137Y-312743969D01*
X540619453Y-312743969D01*
X540817903Y-313253710D01*
X540851294Y-313303682D01*
X541057463Y-313407182D01*
X541964645Y-312500000D01*
X541057463Y-311592818D01*
X540851294Y-311696318D01*
X540631178Y-312197085D01*
X540619453Y-312743969D01*
X536213137Y-312743969D01*
X536712460Y-312244646D01*
X536729641Y-312270359D01*
X536853683Y-312353242D01*
X537000000Y-312382346D01*
X540000000Y-312382346D01*
X540146317Y-312353242D01*
X540270359Y-312270359D01*
X540353242Y-312146317D01*
X540382346Y-312000000D01*
X540382346Y-311000000D01*
X540353242Y-310853683D01*
X540270359Y-310729641D01*
X540146317Y-310646758D01*
X540000000Y-310617654D01*
X537000000Y-310617654D01*
X536853683Y-310646758D01*
X536750000Y-310716037D01*
X536750000Y-309232331D01*
X536787579Y-309269910D01*
X536925408Y-309327000D01*
X538381250Y-309327000D01*
X538475000Y-309233250D01*
X538475000Y-308477000D01*
X538525000Y-308477000D01*
X538525000Y-309233250D01*
X538618750Y-309327000D01*
X540074592Y-309327000D01*
X540212421Y-309269910D01*
X540317910Y-309164420D01*
X540375000Y-309026592D01*
X540375000Y-308570750D01*
X540281250Y-308477000D01*
X538525000Y-308477000D01*
X538475000Y-308477000D01*
X538455000Y-308477000D01*
X538455000Y-308427000D01*
X538475000Y-308427000D01*
X538475000Y-307670750D01*
X538525000Y-307670750D01*
X538525000Y-308427000D01*
X540281250Y-308427000D01*
X540375000Y-308333250D01*
X540375000Y-307877408D01*
X540317910Y-307739580D01*
X540212421Y-307634090D01*
X540074592Y-307577000D01*
X538618750Y-307577000D01*
X538525000Y-307670750D01*
X538475000Y-307670750D01*
X538381250Y-307577000D01*
X537399909Y-307577000D01*
X539464517Y-305512392D01*
X539672364Y-305720239D01*
X540030718Y-305868674D01*
X540418596Y-305868674D01*
X540776950Y-305720239D01*
X541051222Y-305445967D01*
X541199657Y-305087613D01*
X541199657Y-304699735D01*
X541160389Y-304604933D01*
X541221125Y-304665669D01*
X541726495Y-304875000D01*
X542273505Y-304875000D01*
X542778875Y-304665669D01*
X542875000Y-304569544D01*
X542875000Y-305430456D01*
X542875000Y-305430456D01*
G37*
X542875000Y-305430456D02*
X542778875Y-305334331D01*
X542273505Y-305125000D01*
X541726495Y-305125000D01*
X541221125Y-305334331D01*
X540834331Y-305721125D01*
X540625000Y-306226495D01*
X540625000Y-306773505D01*
X540834331Y-307278875D01*
X541221125Y-307665669D01*
X541726495Y-307875000D01*
X542273505Y-307875000D01*
X542778875Y-307665669D01*
X542875000Y-307569544D01*
X542875000Y-308430456D01*
X542778875Y-308334331D01*
X542273505Y-308125000D01*
X541726495Y-308125000D01*
X541221125Y-308334331D01*
X540834331Y-308721125D01*
X540625000Y-309226495D01*
X540625000Y-309773505D01*
X540834331Y-310278875D01*
X541221125Y-310665669D01*
X541726495Y-310875000D01*
X542273505Y-310875000D01*
X542778875Y-310665669D01*
X542875000Y-310569544D01*
X542875000Y-311493357D01*
X542803682Y-311351294D01*
X542302915Y-311131178D01*
X541756031Y-311119453D01*
X541246290Y-311317903D01*
X541196318Y-311351294D01*
X541092818Y-311557463D01*
X542000000Y-312464645D01*
X542014143Y-312450503D01*
X542049498Y-312485858D01*
X542035355Y-312500000D01*
X542049498Y-312514143D01*
X542014143Y-312549498D01*
X542000000Y-312535355D01*
X541092818Y-313442537D01*
X541196318Y-313648706D01*
X541697085Y-313868822D01*
X542243969Y-313880547D01*
X542753710Y-313682097D01*
X542803682Y-313648706D01*
X542875000Y-313506643D01*
X542875000Y-314930456D01*
X542778875Y-314834331D01*
X542273505Y-314625000D01*
X541726495Y-314625000D01*
X541221125Y-314834331D01*
X540834331Y-315221125D01*
X540718817Y-315500000D01*
X540049240Y-315500000D01*
X539999999Y-315490205D01*
X539950758Y-315500000D01*
X539950757Y-315500000D01*
X539804910Y-315529011D01*
X539639520Y-315639520D01*
X539611626Y-315681267D01*
X536632346Y-318660548D01*
X536632346Y-317875000D01*
X536603242Y-317728683D01*
X536520359Y-317604641D01*
X536396317Y-317521758D01*
X536250000Y-317492654D01*
X535750000Y-317492654D01*
X535750000Y-316632346D01*
X535896317Y-316603242D01*
X536002177Y-316532508D01*
X536037580Y-316567910D01*
X536175408Y-316625000D01*
X536631250Y-316625000D01*
X536725000Y-316531250D01*
X536725000Y-315525000D01*
X536775000Y-315525000D01*
X536775000Y-316531250D01*
X536868750Y-316625000D01*
X537324592Y-316625000D01*
X537462420Y-316567910D01*
X537567910Y-316462421D01*
X537625000Y-316324592D01*
X537625000Y-315618750D01*
X537531250Y-315525000D01*
X536775000Y-315525000D01*
X536725000Y-315525000D01*
X536705000Y-315525000D01*
X536705000Y-315475000D01*
X536725000Y-315475000D01*
X536725000Y-314468750D01*
X536775000Y-314468750D01*
X536775000Y-315475000D01*
X537531250Y-315475000D01*
X537625000Y-315381250D01*
X537625000Y-314675408D01*
X537567910Y-314537579D01*
X537462420Y-314432090D01*
X537324592Y-314375000D01*
X536868750Y-314375000D01*
X536775000Y-314468750D01*
X536725000Y-314468750D01*
X536631250Y-314375000D01*
X536175408Y-314375000D01*
X536037580Y-314432090D01*
X536002177Y-314467492D01*
X535896317Y-314396758D01*
X535750000Y-314367654D01*
X535750000Y-313207106D01*
X536213137Y-312743969D01*
X540619453Y-312743969D01*
X540817903Y-313253710D01*
X540851294Y-313303682D01*
X541057463Y-313407182D01*
X541964645Y-312500000D01*
X541057463Y-311592818D01*
X540851294Y-311696318D01*
X540631178Y-312197085D01*
X540619453Y-312743969D01*
X536213137Y-312743969D01*
X536712460Y-312244646D01*
X536729641Y-312270359D01*
X536853683Y-312353242D01*
X537000000Y-312382346D01*
X540000000Y-312382346D01*
X540146317Y-312353242D01*
X540270359Y-312270359D01*
X540353242Y-312146317D01*
X540382346Y-312000000D01*
X540382346Y-311000000D01*
X540353242Y-310853683D01*
X540270359Y-310729641D01*
X540146317Y-310646758D01*
X540000000Y-310617654D01*
X537000000Y-310617654D01*
X536853683Y-310646758D01*
X536750000Y-310716037D01*
X536750000Y-309232331D01*
X536787579Y-309269910D01*
X536925408Y-309327000D01*
X538381250Y-309327000D01*
X538475000Y-309233250D01*
X538475000Y-308477000D01*
X538525000Y-308477000D01*
X538525000Y-309233250D01*
X538618750Y-309327000D01*
X540074592Y-309327000D01*
X540212421Y-309269910D01*
X540317910Y-309164420D01*
X540375000Y-309026592D01*
X540375000Y-308570750D01*
X540281250Y-308477000D01*
X538525000Y-308477000D01*
X538475000Y-308477000D01*
X538455000Y-308477000D01*
X538455000Y-308427000D01*
X538475000Y-308427000D01*
X538475000Y-307670750D01*
X538525000Y-307670750D01*
X538525000Y-308427000D01*
X540281250Y-308427000D01*
X540375000Y-308333250D01*
X540375000Y-307877408D01*
X540317910Y-307739580D01*
X540212421Y-307634090D01*
X540074592Y-307577000D01*
X538618750Y-307577000D01*
X538525000Y-307670750D01*
X538475000Y-307670750D01*
X538381250Y-307577000D01*
X537399909Y-307577000D01*
X539464517Y-305512392D01*
X539672364Y-305720239D01*
X540030718Y-305868674D01*
X540418596Y-305868674D01*
X540776950Y-305720239D01*
X541051222Y-305445967D01*
X541199657Y-305087613D01*
X541199657Y-304699735D01*
X541160389Y-304604933D01*
X541221125Y-304665669D01*
X541726495Y-304875000D01*
X542273505Y-304875000D01*
X542778875Y-304665669D01*
X542875000Y-304569544D01*
X542875000Y-305430456D01*
G36*
X539154671Y-289986572D02*
X538486572Y-290654671D01*
X538125000Y-291527583D01*
X538125000Y-292472417D01*
X538318553Y-292939695D01*
X538052293Y-292673435D01*
X537693939Y-292525000D01*
X537306061Y-292525000D01*
X536947707Y-292673435D01*
X536673435Y-292947707D01*
X536614397Y-293090238D01*
X536632346Y-293000000D01*
X536632346Y-292000000D01*
X536603242Y-291853683D01*
X536520359Y-291729641D01*
X536396317Y-291646758D01*
X536250000Y-291617654D01*
X535827755Y-291617654D01*
X535695090Y-291529011D01*
X535549243Y-291500000D01*
X532618824Y-291500000D01*
X532538505Y-291306093D01*
X532193907Y-290961495D01*
X531743668Y-290775000D01*
X531256332Y-290775000D01*
X530806093Y-290961495D01*
X530461495Y-291306093D01*
X530275000Y-291756332D01*
X530275000Y-292243668D01*
X530461495Y-292693907D01*
X530806093Y-293038505D01*
X531256332Y-293225000D01*
X531743668Y-293225000D01*
X532193907Y-293038505D01*
X532538505Y-292693907D01*
X532618824Y-292500000D01*
X534367654Y-292500000D01*
X534367654Y-293000000D01*
X534396758Y-293146317D01*
X534467492Y-293252177D01*
X534432090Y-293287580D01*
X534375000Y-293425408D01*
X534375000Y-293881250D01*
X534468750Y-293975000D01*
X535475000Y-293975000D01*
X535475000Y-293955000D01*
X535525000Y-293955000D01*
X535525000Y-293975000D01*
X536531250Y-293975000D01*
X536609151Y-293897099D01*
X536673435Y-294052293D01*
X536947707Y-294326565D01*
X537000000Y-294348226D01*
X537000000Y-294450758D01*
X536990205Y-294500000D01*
X537000000Y-294549241D01*
X537000000Y-294549242D01*
X537029011Y-294695089D01*
X537139520Y-294860480D01*
X537181271Y-294888377D01*
X537361623Y-295068729D01*
X537389520Y-295110480D01*
X537554910Y-295220989D01*
X537700757Y-295250000D01*
X537700758Y-295250000D01*
X537749999Y-295259795D01*
X537799240Y-295250000D01*
X540792894Y-295250000D01*
X541005354Y-295462460D01*
X540979641Y-295479641D01*
X540896758Y-295603683D01*
X540867654Y-295750000D01*
X540867654Y-297250000D01*
X540896758Y-297396317D01*
X540979641Y-297520359D01*
X541103683Y-297603242D01*
X541250000Y-297632346D01*
X542250000Y-297632346D01*
X542396317Y-297603242D01*
X542520359Y-297520359D01*
X542603242Y-297396317D01*
X542632346Y-297250000D01*
X542632346Y-295750000D01*
X542603242Y-295603683D01*
X542520359Y-295479641D01*
X542396317Y-295396758D01*
X542250000Y-295367654D01*
X542233470Y-295367654D01*
X542220989Y-295304910D01*
X542110480Y-295139520D01*
X542068732Y-295111625D01*
X541388376Y-294431270D01*
X541360480Y-294389520D01*
X541198559Y-294281329D01*
X541845329Y-294013428D01*
X542513428Y-293345329D01*
X542875000Y-292472417D01*
X542875000Y-299430456D01*
X542778875Y-299334331D01*
X542273505Y-299125000D01*
X541726495Y-299125000D01*
X541221125Y-299334331D01*
X540834331Y-299721125D01*
X540625000Y-300226495D01*
X540625000Y-300773505D01*
X540834331Y-301278875D01*
X541221125Y-301665669D01*
X541726495Y-301875000D01*
X542273505Y-301875000D01*
X542778875Y-301665669D01*
X542875000Y-301569544D01*
X542875000Y-302430456D01*
X542778875Y-302334331D01*
X542273505Y-302125000D01*
X541726495Y-302125000D01*
X541221125Y-302334331D01*
X540834331Y-302721125D01*
X540731710Y-302968874D01*
X540731710Y-302850032D01*
X540583275Y-302491678D01*
X540309003Y-302217406D01*
X539950649Y-302068971D01*
X539750000Y-302068971D01*
X539750000Y-301632346D01*
X539896317Y-301603242D01*
X540020359Y-301520359D01*
X540103242Y-301396317D01*
X540132346Y-301250000D01*
X540132346Y-298250000D01*
X540103242Y-298103683D01*
X540020359Y-297979641D01*
X539896317Y-297896758D01*
X539750000Y-297867654D01*
X538750000Y-297867654D01*
X538603683Y-297896758D01*
X538479641Y-297979641D01*
X538396758Y-298103683D01*
X538367654Y-298250000D01*
X538367654Y-301250000D01*
X538396758Y-301396317D01*
X538479641Y-301520359D01*
X538603683Y-301603242D01*
X538750000Y-301632346D01*
X538750001Y-301632346D01*
X538750001Y-302488015D01*
X538740205Y-302537261D01*
X538772121Y-302697707D01*
X538779012Y-302732351D01*
X538810769Y-302779878D01*
X538781710Y-302850032D01*
X538781710Y-303237910D01*
X538929071Y-303593672D01*
X537955574Y-303593672D01*
X537906328Y-303583876D01*
X537711238Y-303622683D01*
X537545848Y-303733192D01*
X537517954Y-303774939D01*
X536773278Y-304519616D01*
X535271694Y-304519616D01*
X535388655Y-304471169D01*
X535662927Y-304196897D01*
X535811362Y-303838543D01*
X535811362Y-303450665D01*
X535662927Y-303092311D01*
X535388655Y-302818039D01*
X535336362Y-302796379D01*
X535336362Y-301347194D01*
X535384090Y-301462421D01*
X535489580Y-301567910D01*
X535627408Y-301625000D01*
X536083250Y-301625000D01*
X536177000Y-301531250D01*
X536177000Y-299775000D01*
X536227000Y-299775000D01*
X536227000Y-301531250D01*
X536320750Y-301625000D01*
X536776592Y-301625000D01*
X536914420Y-301567910D01*
X537019910Y-301462421D01*
X537077000Y-301324592D01*
X537077000Y-299868750D01*
X536983250Y-299775000D01*
X536227000Y-299775000D01*
X536177000Y-299775000D01*
X536157000Y-299775000D01*
X536157000Y-299725000D01*
X536177000Y-299725000D01*
X536177000Y-297968750D01*
X536227000Y-297968750D01*
X536227000Y-299725000D01*
X536983250Y-299725000D01*
X537077000Y-299631250D01*
X537077000Y-298175408D01*
X537019910Y-298037579D01*
X536914420Y-297932090D01*
X536776592Y-297875000D01*
X536320750Y-297875000D01*
X536227000Y-297968750D01*
X536177000Y-297968750D01*
X536083250Y-297875000D01*
X535627408Y-297875000D01*
X535489580Y-297932090D01*
X535384090Y-298037579D01*
X535336362Y-298152806D01*
X535336362Y-297885602D01*
X535346157Y-297836361D01*
X535333493Y-297772697D01*
X535307351Y-297641272D01*
X535196842Y-297475882D01*
X535155095Y-297447988D01*
X534707106Y-297000000D01*
X538867654Y-297000000D01*
X538867654Y-297250000D01*
X538896758Y-297396317D01*
X538979641Y-297520359D01*
X539103683Y-297603242D01*
X539250000Y-297632346D01*
X540250000Y-297632346D01*
X540396317Y-297603242D01*
X540520359Y-297520359D01*
X540603242Y-297396317D01*
X540632346Y-297250000D01*
X540632346Y-295750000D01*
X540603242Y-295603683D01*
X540520359Y-295479641D01*
X540396317Y-295396758D01*
X540250000Y-295367654D01*
X539250000Y-295367654D01*
X539103683Y-295396758D01*
X538979641Y-295479641D01*
X538896758Y-295603683D01*
X538867654Y-295750000D01*
X538867654Y-296000000D01*
X533475000Y-296000000D01*
X533475000Y-295806061D01*
X533326565Y-295447707D01*
X533052293Y-295173435D01*
X532693939Y-295025000D01*
X532306061Y-295025000D01*
X531947707Y-295173435D01*
X531880487Y-295240655D01*
X531853242Y-295103683D01*
X531770359Y-294979641D01*
X531646317Y-294896758D01*
X531500000Y-294867654D01*
X530500000Y-294867654D01*
X530353683Y-294896758D01*
X530229641Y-294979641D01*
X530146758Y-295103683D01*
X530117654Y-295250000D01*
X530117654Y-296750000D01*
X530146758Y-296896317D01*
X530229641Y-297020359D01*
X530353683Y-297103242D01*
X530500000Y-297132346D01*
X531500000Y-297132346D01*
X531646317Y-297103242D01*
X531770359Y-297020359D01*
X531853242Y-296896317D01*
X531880487Y-296759345D01*
X531947707Y-296826565D01*
X532199942Y-296931044D01*
X531794371Y-297336616D01*
X531794368Y-297336618D01*
X531759335Y-297371651D01*
X531707042Y-297349990D01*
X531319164Y-297349990D01*
X530960810Y-297498425D01*
X530782514Y-297676722D01*
X530604217Y-297498425D01*
X530245863Y-297349990D01*
X529857985Y-297349990D01*
X529805692Y-297371651D01*
X529555372Y-297121332D01*
X529646317Y-297103242D01*
X529770359Y-297020359D01*
X529853242Y-296896317D01*
X529882346Y-296750000D01*
X529882346Y-295250000D01*
X529853242Y-295103683D01*
X529770359Y-294979641D01*
X529646317Y-294896758D01*
X529500000Y-294867654D01*
X528500000Y-294867654D01*
X528353683Y-294896758D01*
X528229641Y-294979641D01*
X528146758Y-295103683D01*
X528117654Y-295250000D01*
X528117654Y-296750000D01*
X528146758Y-296896317D01*
X528229641Y-297020359D01*
X528353683Y-297103242D01*
X528500000Y-297132346D01*
X528500001Y-297132346D01*
X528500001Y-297223820D01*
X528490205Y-297273066D01*
X528524424Y-297445090D01*
X528529012Y-297468156D01*
X528639521Y-297633546D01*
X528681268Y-297661440D01*
X529098585Y-298078758D01*
X529076924Y-298131051D01*
X529076924Y-298518929D01*
X529172637Y-298750000D01*
X525957107Y-298750000D01*
X524888376Y-297681270D01*
X524860480Y-297639520D01*
X524695090Y-297529011D01*
X524549243Y-297500000D01*
X524549241Y-297500000D01*
X524500000Y-297490205D01*
X524450759Y-297500000D01*
X520882346Y-297500000D01*
X520882346Y-297250000D01*
X520853242Y-297103683D01*
X520770359Y-296979641D01*
X520646317Y-296896758D01*
X520500000Y-296867654D01*
X519500000Y-296867654D01*
X519353683Y-296896758D01*
X519229641Y-296979641D01*
X519146758Y-297103683D01*
X519117654Y-297250000D01*
X519117654Y-298750000D01*
X519146758Y-298896317D01*
X519229641Y-299020359D01*
X519353683Y-299103242D01*
X519500000Y-299132346D01*
X520500000Y-299132346D01*
X520646317Y-299103242D01*
X520770359Y-299020359D01*
X520853242Y-298896317D01*
X520882346Y-298750000D01*
X520882346Y-298500000D01*
X524292894Y-298500000D01*
X525092884Y-299299991D01*
X523749249Y-299299991D01*
X523700008Y-299290196D01*
X523650767Y-299299991D01*
X523650766Y-299299991D01*
X523504919Y-299329002D01*
X523339529Y-299439511D01*
X523311635Y-299481258D01*
X520292894Y-302500000D01*
X517858579Y-302500000D01*
X517488671Y-302130093D01*
X517500000Y-302132346D01*
X518500000Y-302132346D01*
X518646317Y-302103242D01*
X518770359Y-302020359D01*
X518853242Y-301896317D01*
X518882346Y-301750000D01*
X518882346Y-301118750D01*
X519125000Y-301118750D01*
X519125000Y-301824592D01*
X519182090Y-301962421D01*
X519287580Y-302067910D01*
X519425408Y-302125000D01*
X519881250Y-302125000D01*
X519975000Y-302031250D01*
X519975000Y-301025000D01*
X520025000Y-301025000D01*
X520025000Y-302031250D01*
X520118750Y-302125000D01*
X520574592Y-302125000D01*
X520712420Y-302067910D01*
X520817910Y-301962421D01*
X520875000Y-301824592D01*
X520875000Y-301118750D01*
X520781250Y-301025000D01*
X520025000Y-301025000D01*
X519975000Y-301025000D01*
X519218750Y-301025000D01*
X519125000Y-301118750D01*
X518882346Y-301118750D01*
X518882346Y-300250000D01*
X518867509Y-300175408D01*
X519125000Y-300175408D01*
X519125000Y-300881250D01*
X519218750Y-300975000D01*
X519975000Y-300975000D01*
X519975000Y-299968750D01*
X520025000Y-299968750D01*
X520025000Y-300975000D01*
X520781250Y-300975000D01*
X520875000Y-300881250D01*
X520875000Y-300175408D01*
X520817910Y-300037579D01*
X520712420Y-299932090D01*
X520574592Y-299875000D01*
X520118750Y-299875000D01*
X520025000Y-299968750D01*
X519975000Y-299968750D01*
X519881250Y-299875000D01*
X519425408Y-299875000D01*
X519287580Y-299932090D01*
X519182090Y-300037579D01*
X519125000Y-300175408D01*
X518867509Y-300175408D01*
X518853242Y-300103683D01*
X518770359Y-299979641D01*
X518646317Y-299896758D01*
X518500000Y-299867654D01*
X517500000Y-299867654D01*
X517353683Y-299896758D01*
X517229641Y-299979641D01*
X517146758Y-300103683D01*
X517119513Y-300240655D01*
X517052293Y-300173435D01*
X516693939Y-300025000D01*
X516306061Y-300025000D01*
X515947707Y-300173435D01*
X515673435Y-300447707D01*
X515525000Y-300806061D01*
X515525000Y-301193939D01*
X515673435Y-301552293D01*
X515947707Y-301826565D01*
X515991006Y-301844500D01*
X515990205Y-301848528D01*
X516015363Y-301975000D01*
X516029012Y-302043618D01*
X516139521Y-302209008D01*
X516181268Y-302236902D01*
X517263097Y-303318732D01*
X517290992Y-303360480D01*
X517456382Y-303470989D01*
X517602229Y-303500000D01*
X517602230Y-303500000D01*
X517651471Y-303509795D01*
X517700712Y-303500000D01*
X520450759Y-303500000D01*
X520456708Y-303501183D01*
X517431271Y-306526621D01*
X517389520Y-306554518D01*
X517279011Y-306719909D01*
X517250000Y-306865755D01*
X517240205Y-306914998D01*
X517250000Y-306964239D01*
X517250000Y-308424719D01*
X517165669Y-308221125D01*
X516778875Y-307834331D01*
X516273505Y-307625000D01*
X515726495Y-307625000D01*
X515221125Y-307834331D01*
X515125000Y-307930456D01*
X515125000Y-306569544D01*
X515221125Y-306665669D01*
X515726495Y-306875000D01*
X516273505Y-306875000D01*
X516778875Y-306665669D01*
X517165669Y-306278875D01*
X517375000Y-305773505D01*
X517375000Y-305226495D01*
X517165669Y-304721125D01*
X516778875Y-304334331D01*
X516273505Y-304125000D01*
X515726495Y-304125000D01*
X515221125Y-304334331D01*
X515125000Y-304430456D01*
X515125000Y-297806061D01*
X515525000Y-297806061D01*
X515525000Y-298193939D01*
X515673435Y-298552293D01*
X515947707Y-298826565D01*
X516306061Y-298975000D01*
X516693939Y-298975000D01*
X517052293Y-298826565D01*
X517119513Y-298759345D01*
X517146758Y-298896317D01*
X517229641Y-299020359D01*
X517353683Y-299103242D01*
X517500000Y-299132346D01*
X518500000Y-299132346D01*
X518646317Y-299103242D01*
X518770359Y-299020359D01*
X518853242Y-298896317D01*
X518882346Y-298750000D01*
X518882346Y-297250000D01*
X518853242Y-297103683D01*
X518770359Y-296979641D01*
X518646317Y-296896758D01*
X518500000Y-296867654D01*
X517500000Y-296867654D01*
X517353683Y-296896758D01*
X517229641Y-296979641D01*
X517146758Y-297103683D01*
X517119513Y-297240655D01*
X517052293Y-297173435D01*
X516693939Y-297025000D01*
X516306061Y-297025000D01*
X515947707Y-297173435D01*
X515673435Y-297447707D01*
X515525000Y-297806061D01*
X515125000Y-297806061D01*
X515125000Y-295306061D01*
X516525000Y-295306061D01*
X516525000Y-295693939D01*
X516673435Y-296052293D01*
X516947707Y-296326565D01*
X517306061Y-296475000D01*
X517693939Y-296475000D01*
X518052293Y-296326565D01*
X518326565Y-296052293D01*
X518475000Y-295693939D01*
X518475000Y-295674925D01*
X518509795Y-295500000D01*
X518489904Y-295400001D01*
X519800758Y-295400001D01*
X519849999Y-295409796D01*
X519899240Y-295400001D01*
X519899242Y-295400001D01*
X520045089Y-295370990D01*
X520210479Y-295260481D01*
X520238376Y-295218731D01*
X521338357Y-294118750D01*
X522375000Y-294118750D01*
X522375000Y-294574592D01*
X522432090Y-294712420D01*
X522537579Y-294817910D01*
X522675408Y-294875000D01*
X523381250Y-294875000D01*
X523475000Y-294781250D01*
X523475000Y-294025000D01*
X523525000Y-294025000D01*
X523525000Y-294781250D01*
X523618750Y-294875000D01*
X524324592Y-294875000D01*
X524462421Y-294817910D01*
X524567910Y-294712420D01*
X524625000Y-294574592D01*
X524625000Y-294118750D01*
X534375000Y-294118750D01*
X534375000Y-294574592D01*
X534432090Y-294712420D01*
X534537579Y-294817910D01*
X534675408Y-294875000D01*
X535381250Y-294875000D01*
X535475000Y-294781250D01*
X535475000Y-294025000D01*
X535525000Y-294025000D01*
X535525000Y-294781250D01*
X535618750Y-294875000D01*
X536324592Y-294875000D01*
X536462421Y-294817910D01*
X536567910Y-294712420D01*
X536625000Y-294574592D01*
X536625000Y-294118750D01*
X536531250Y-294025000D01*
X535525000Y-294025000D01*
X535475000Y-294025000D01*
X534468750Y-294025000D01*
X534375000Y-294118750D01*
X524625000Y-294118750D01*
X524531250Y-294025000D01*
X523525000Y-294025000D01*
X523475000Y-294025000D01*
X522468750Y-294025000D01*
X522375000Y-294118750D01*
X521338357Y-294118750D01*
X522382495Y-293074612D01*
X522396758Y-293146317D01*
X522467492Y-293252177D01*
X522432090Y-293287580D01*
X522375000Y-293425408D01*
X522375000Y-293881250D01*
X522468750Y-293975000D01*
X523475000Y-293975000D01*
X523475000Y-293955000D01*
X523525000Y-293955000D01*
X523525000Y-293975000D01*
X524531250Y-293975000D01*
X524625000Y-293881250D01*
X524625000Y-293425408D01*
X524567910Y-293287580D01*
X524532508Y-293252177D01*
X524603242Y-293146317D01*
X524632346Y-293000000D01*
X525867588Y-293000000D01*
X525906093Y-293038505D01*
X526356332Y-293225000D01*
X526843668Y-293225000D01*
X527293907Y-293038505D01*
X527638505Y-292693907D01*
X527825000Y-292243668D01*
X527825000Y-291756332D01*
X527638505Y-291306093D01*
X527293907Y-290961495D01*
X526843668Y-290775000D01*
X526356332Y-290775000D01*
X525906093Y-290961495D01*
X525561495Y-291306093D01*
X525375000Y-291756332D01*
X525375000Y-292000000D01*
X524632346Y-292000000D01*
X524603242Y-291853683D01*
X524520359Y-291729641D01*
X524396317Y-291646758D01*
X524250000Y-291617654D01*
X522750000Y-291617654D01*
X522603683Y-291646758D01*
X522479641Y-291729641D01*
X522396758Y-291853683D01*
X522367654Y-292000000D01*
X522299243Y-292000000D01*
X522250000Y-291990205D01*
X522054909Y-292029011D01*
X521985180Y-292075603D01*
X521889520Y-292139520D01*
X521861626Y-292181267D01*
X519642893Y-294400001D01*
X518149242Y-294400001D01*
X518099999Y-294390206D01*
X518050756Y-294400001D01*
X517904909Y-294429012D01*
X517739519Y-294539521D01*
X517737238Y-294542935D01*
X517693939Y-294525000D01*
X517306061Y-294525000D01*
X516947707Y-294673435D01*
X516673435Y-294947707D01*
X516525000Y-295306061D01*
X515125000Y-295306061D01*
X515125000Y-292472417D01*
X515486572Y-293345329D01*
X516154671Y-294013428D01*
X517027583Y-294375000D01*
X517972417Y-294375000D01*
X518845329Y-294013428D01*
X519513428Y-293345329D01*
X519875000Y-292472417D01*
X519875000Y-291527583D01*
X519513428Y-290654671D01*
X518845329Y-289986572D01*
X517972417Y-289625000D01*
X540027583Y-289625000D01*
X539154671Y-289986572D01*
X539154671Y-289986572D01*
G37*
X539154671Y-289986572D02*
X538486572Y-290654671D01*
X538125000Y-291527583D01*
X538125000Y-292472417D01*
X538318553Y-292939695D01*
X538052293Y-292673435D01*
X537693939Y-292525000D01*
X537306061Y-292525000D01*
X536947707Y-292673435D01*
X536673435Y-292947707D01*
X536614397Y-293090238D01*
X536632346Y-293000000D01*
X536632346Y-292000000D01*
X536603242Y-291853683D01*
X536520359Y-291729641D01*
X536396317Y-291646758D01*
X536250000Y-291617654D01*
X535827755Y-291617654D01*
X535695090Y-291529011D01*
X535549243Y-291500000D01*
X532618824Y-291500000D01*
X532538505Y-291306093D01*
X532193907Y-290961495D01*
X531743668Y-290775000D01*
X531256332Y-290775000D01*
X530806093Y-290961495D01*
X530461495Y-291306093D01*
X530275000Y-291756332D01*
X530275000Y-292243668D01*
X530461495Y-292693907D01*
X530806093Y-293038505D01*
X531256332Y-293225000D01*
X531743668Y-293225000D01*
X532193907Y-293038505D01*
X532538505Y-292693907D01*
X532618824Y-292500000D01*
X534367654Y-292500000D01*
X534367654Y-293000000D01*
X534396758Y-293146317D01*
X534467492Y-293252177D01*
X534432090Y-293287580D01*
X534375000Y-293425408D01*
X534375000Y-293881250D01*
X534468750Y-293975000D01*
X535475000Y-293975000D01*
X535475000Y-293955000D01*
X535525000Y-293955000D01*
X535525000Y-293975000D01*
X536531250Y-293975000D01*
X536609151Y-293897099D01*
X536673435Y-294052293D01*
X536947707Y-294326565D01*
X537000000Y-294348226D01*
X537000000Y-294450758D01*
X536990205Y-294500000D01*
X537000000Y-294549241D01*
X537000000Y-294549242D01*
X537029011Y-294695089D01*
X537139520Y-294860480D01*
X537181271Y-294888377D01*
X537361623Y-295068729D01*
X537389520Y-295110480D01*
X537554910Y-295220989D01*
X537700757Y-295250000D01*
X537700758Y-295250000D01*
X537749999Y-295259795D01*
X537799240Y-295250000D01*
X540792894Y-295250000D01*
X541005354Y-295462460D01*
X540979641Y-295479641D01*
X540896758Y-295603683D01*
X540867654Y-295750000D01*
X540867654Y-297250000D01*
X540896758Y-297396317D01*
X540979641Y-297520359D01*
X541103683Y-297603242D01*
X541250000Y-297632346D01*
X542250000Y-297632346D01*
X542396317Y-297603242D01*
X542520359Y-297520359D01*
X542603242Y-297396317D01*
X542632346Y-297250000D01*
X542632346Y-295750000D01*
X542603242Y-295603683D01*
X542520359Y-295479641D01*
X542396317Y-295396758D01*
X542250000Y-295367654D01*
X542233470Y-295367654D01*
X542220989Y-295304910D01*
X542110480Y-295139520D01*
X542068732Y-295111625D01*
X541388376Y-294431270D01*
X541360480Y-294389520D01*
X541198559Y-294281329D01*
X541845329Y-294013428D01*
X542513428Y-293345329D01*
X542875000Y-292472417D01*
X542875000Y-299430456D01*
X542778875Y-299334331D01*
X542273505Y-299125000D01*
X541726495Y-299125000D01*
X541221125Y-299334331D01*
X540834331Y-299721125D01*
X540625000Y-300226495D01*
X540625000Y-300773505D01*
X540834331Y-301278875D01*
X541221125Y-301665669D01*
X541726495Y-301875000D01*
X542273505Y-301875000D01*
X542778875Y-301665669D01*
X542875000Y-301569544D01*
X542875000Y-302430456D01*
X542778875Y-302334331D01*
X542273505Y-302125000D01*
X541726495Y-302125000D01*
X541221125Y-302334331D01*
X540834331Y-302721125D01*
X540731710Y-302968874D01*
X540731710Y-302850032D01*
X540583275Y-302491678D01*
X540309003Y-302217406D01*
X539950649Y-302068971D01*
X539750000Y-302068971D01*
X539750000Y-301632346D01*
X539896317Y-301603242D01*
X540020359Y-301520359D01*
X540103242Y-301396317D01*
X540132346Y-301250000D01*
X540132346Y-298250000D01*
X540103242Y-298103683D01*
X540020359Y-297979641D01*
X539896317Y-297896758D01*
X539750000Y-297867654D01*
X538750000Y-297867654D01*
X538603683Y-297896758D01*
X538479641Y-297979641D01*
X538396758Y-298103683D01*
X538367654Y-298250000D01*
X538367654Y-301250000D01*
X538396758Y-301396317D01*
X538479641Y-301520359D01*
X538603683Y-301603242D01*
X538750000Y-301632346D01*
X538750001Y-301632346D01*
X538750001Y-302488015D01*
X538740205Y-302537261D01*
X538772121Y-302697707D01*
X538779012Y-302732351D01*
X538810769Y-302779878D01*
X538781710Y-302850032D01*
X538781710Y-303237910D01*
X538929071Y-303593672D01*
X537955574Y-303593672D01*
X537906328Y-303583876D01*
X537711238Y-303622683D01*
X537545848Y-303733192D01*
X537517954Y-303774939D01*
X536773278Y-304519616D01*
X535271694Y-304519616D01*
X535388655Y-304471169D01*
X535662927Y-304196897D01*
X535811362Y-303838543D01*
X535811362Y-303450665D01*
X535662927Y-303092311D01*
X535388655Y-302818039D01*
X535336362Y-302796379D01*
X535336362Y-301347194D01*
X535384090Y-301462421D01*
X535489580Y-301567910D01*
X535627408Y-301625000D01*
X536083250Y-301625000D01*
X536177000Y-301531250D01*
X536177000Y-299775000D01*
X536227000Y-299775000D01*
X536227000Y-301531250D01*
X536320750Y-301625000D01*
X536776592Y-301625000D01*
X536914420Y-301567910D01*
X537019910Y-301462421D01*
X537077000Y-301324592D01*
X537077000Y-299868750D01*
X536983250Y-299775000D01*
X536227000Y-299775000D01*
X536177000Y-299775000D01*
X536157000Y-299775000D01*
X536157000Y-299725000D01*
X536177000Y-299725000D01*
X536177000Y-297968750D01*
X536227000Y-297968750D01*
X536227000Y-299725000D01*
X536983250Y-299725000D01*
X537077000Y-299631250D01*
X537077000Y-298175408D01*
X537019910Y-298037579D01*
X536914420Y-297932090D01*
X536776592Y-297875000D01*
X536320750Y-297875000D01*
X536227000Y-297968750D01*
X536177000Y-297968750D01*
X536083250Y-297875000D01*
X535627408Y-297875000D01*
X535489580Y-297932090D01*
X535384090Y-298037579D01*
X535336362Y-298152806D01*
X535336362Y-297885602D01*
X535346157Y-297836361D01*
X535333493Y-297772697D01*
X535307351Y-297641272D01*
X535196842Y-297475882D01*
X535155095Y-297447988D01*
X534707106Y-297000000D01*
X538867654Y-297000000D01*
X538867654Y-297250000D01*
X538896758Y-297396317D01*
X538979641Y-297520359D01*
X539103683Y-297603242D01*
X539250000Y-297632346D01*
X540250000Y-297632346D01*
X540396317Y-297603242D01*
X540520359Y-297520359D01*
X540603242Y-297396317D01*
X540632346Y-297250000D01*
X540632346Y-295750000D01*
X540603242Y-295603683D01*
X540520359Y-295479641D01*
X540396317Y-295396758D01*
X540250000Y-295367654D01*
X539250000Y-295367654D01*
X539103683Y-295396758D01*
X538979641Y-295479641D01*
X538896758Y-295603683D01*
X538867654Y-295750000D01*
X538867654Y-296000000D01*
X533475000Y-296000000D01*
X533475000Y-295806061D01*
X533326565Y-295447707D01*
X533052293Y-295173435D01*
X532693939Y-295025000D01*
X532306061Y-295025000D01*
X531947707Y-295173435D01*
X531880487Y-295240655D01*
X531853242Y-295103683D01*
X531770359Y-294979641D01*
X531646317Y-294896758D01*
X531500000Y-294867654D01*
X530500000Y-294867654D01*
X530353683Y-294896758D01*
X530229641Y-294979641D01*
X530146758Y-295103683D01*
X530117654Y-295250000D01*
X530117654Y-296750000D01*
X530146758Y-296896317D01*
X530229641Y-297020359D01*
X530353683Y-297103242D01*
X530500000Y-297132346D01*
X531500000Y-297132346D01*
X531646317Y-297103242D01*
X531770359Y-297020359D01*
X531853242Y-296896317D01*
X531880487Y-296759345D01*
X531947707Y-296826565D01*
X532199942Y-296931044D01*
X531794371Y-297336616D01*
X531794368Y-297336618D01*
X531759335Y-297371651D01*
X531707042Y-297349990D01*
X531319164Y-297349990D01*
X530960810Y-297498425D01*
X530782514Y-297676722D01*
X530604217Y-297498425D01*
X530245863Y-297349990D01*
X529857985Y-297349990D01*
X529805692Y-297371651D01*
X529555372Y-297121332D01*
X529646317Y-297103242D01*
X529770359Y-297020359D01*
X529853242Y-296896317D01*
X529882346Y-296750000D01*
X529882346Y-295250000D01*
X529853242Y-295103683D01*
X529770359Y-294979641D01*
X529646317Y-294896758D01*
X529500000Y-294867654D01*
X528500000Y-294867654D01*
X528353683Y-294896758D01*
X528229641Y-294979641D01*
X528146758Y-295103683D01*
X528117654Y-295250000D01*
X528117654Y-296750000D01*
X528146758Y-296896317D01*
X528229641Y-297020359D01*
X528353683Y-297103242D01*
X528500000Y-297132346D01*
X528500001Y-297132346D01*
X528500001Y-297223820D01*
X528490205Y-297273066D01*
X528524424Y-297445090D01*
X528529012Y-297468156D01*
X528639521Y-297633546D01*
X528681268Y-297661440D01*
X529098585Y-298078758D01*
X529076924Y-298131051D01*
X529076924Y-298518929D01*
X529172637Y-298750000D01*
X525957107Y-298750000D01*
X524888376Y-297681270D01*
X524860480Y-297639520D01*
X524695090Y-297529011D01*
X524549243Y-297500000D01*
X524549241Y-297500000D01*
X524500000Y-297490205D01*
X524450759Y-297500000D01*
X520882346Y-297500000D01*
X520882346Y-297250000D01*
X520853242Y-297103683D01*
X520770359Y-296979641D01*
X520646317Y-296896758D01*
X520500000Y-296867654D01*
X519500000Y-296867654D01*
X519353683Y-296896758D01*
X519229641Y-296979641D01*
X519146758Y-297103683D01*
X519117654Y-297250000D01*
X519117654Y-298750000D01*
X519146758Y-298896317D01*
X519229641Y-299020359D01*
X519353683Y-299103242D01*
X519500000Y-299132346D01*
X520500000Y-299132346D01*
X520646317Y-299103242D01*
X520770359Y-299020359D01*
X520853242Y-298896317D01*
X520882346Y-298750000D01*
X520882346Y-298500000D01*
X524292894Y-298500000D01*
X525092884Y-299299991D01*
X523749249Y-299299991D01*
X523700008Y-299290196D01*
X523650767Y-299299991D01*
X523650766Y-299299991D01*
X523504919Y-299329002D01*
X523339529Y-299439511D01*
X523311635Y-299481258D01*
X520292894Y-302500000D01*
X517858579Y-302500000D01*
X517488671Y-302130093D01*
X517500000Y-302132346D01*
X518500000Y-302132346D01*
X518646317Y-302103242D01*
X518770359Y-302020359D01*
X518853242Y-301896317D01*
X518882346Y-301750000D01*
X518882346Y-301118750D01*
X519125000Y-301118750D01*
X519125000Y-301824592D01*
X519182090Y-301962421D01*
X519287580Y-302067910D01*
X519425408Y-302125000D01*
X519881250Y-302125000D01*
X519975000Y-302031250D01*
X519975000Y-301025000D01*
X520025000Y-301025000D01*
X520025000Y-302031250D01*
X520118750Y-302125000D01*
X520574592Y-302125000D01*
X520712420Y-302067910D01*
X520817910Y-301962421D01*
X520875000Y-301824592D01*
X520875000Y-301118750D01*
X520781250Y-301025000D01*
X520025000Y-301025000D01*
X519975000Y-301025000D01*
X519218750Y-301025000D01*
X519125000Y-301118750D01*
X518882346Y-301118750D01*
X518882346Y-300250000D01*
X518867509Y-300175408D01*
X519125000Y-300175408D01*
X519125000Y-300881250D01*
X519218750Y-300975000D01*
X519975000Y-300975000D01*
X519975000Y-299968750D01*
X520025000Y-299968750D01*
X520025000Y-300975000D01*
X520781250Y-300975000D01*
X520875000Y-300881250D01*
X520875000Y-300175408D01*
X520817910Y-300037579D01*
X520712420Y-299932090D01*
X520574592Y-299875000D01*
X520118750Y-299875000D01*
X520025000Y-299968750D01*
X519975000Y-299968750D01*
X519881250Y-299875000D01*
X519425408Y-299875000D01*
X519287580Y-299932090D01*
X519182090Y-300037579D01*
X519125000Y-300175408D01*
X518867509Y-300175408D01*
X518853242Y-300103683D01*
X518770359Y-299979641D01*
X518646317Y-299896758D01*
X518500000Y-299867654D01*
X517500000Y-299867654D01*
X517353683Y-299896758D01*
X517229641Y-299979641D01*
X517146758Y-300103683D01*
X517119513Y-300240655D01*
X517052293Y-300173435D01*
X516693939Y-300025000D01*
X516306061Y-300025000D01*
X515947707Y-300173435D01*
X515673435Y-300447707D01*
X515525000Y-300806061D01*
X515525000Y-301193939D01*
X515673435Y-301552293D01*
X515947707Y-301826565D01*
X515991006Y-301844500D01*
X515990205Y-301848528D01*
X516015363Y-301975000D01*
X516029012Y-302043618D01*
X516139521Y-302209008D01*
X516181268Y-302236902D01*
X517263097Y-303318732D01*
X517290992Y-303360480D01*
X517456382Y-303470989D01*
X517602229Y-303500000D01*
X517602230Y-303500000D01*
X517651471Y-303509795D01*
X517700712Y-303500000D01*
X520450759Y-303500000D01*
X520456708Y-303501183D01*
X517431271Y-306526621D01*
X517389520Y-306554518D01*
X517279011Y-306719909D01*
X517250000Y-306865755D01*
X517240205Y-306914998D01*
X517250000Y-306964239D01*
X517250000Y-308424719D01*
X517165669Y-308221125D01*
X516778875Y-307834331D01*
X516273505Y-307625000D01*
X515726495Y-307625000D01*
X515221125Y-307834331D01*
X515125000Y-307930456D01*
X515125000Y-306569544D01*
X515221125Y-306665669D01*
X515726495Y-306875000D01*
X516273505Y-306875000D01*
X516778875Y-306665669D01*
X517165669Y-306278875D01*
X517375000Y-305773505D01*
X517375000Y-305226495D01*
X517165669Y-304721125D01*
X516778875Y-304334331D01*
X516273505Y-304125000D01*
X515726495Y-304125000D01*
X515221125Y-304334331D01*
X515125000Y-304430456D01*
X515125000Y-297806061D01*
X515525000Y-297806061D01*
X515525000Y-298193939D01*
X515673435Y-298552293D01*
X515947707Y-298826565D01*
X516306061Y-298975000D01*
X516693939Y-298975000D01*
X517052293Y-298826565D01*
X517119513Y-298759345D01*
X517146758Y-298896317D01*
X517229641Y-299020359D01*
X517353683Y-299103242D01*
X517500000Y-299132346D01*
X518500000Y-299132346D01*
X518646317Y-299103242D01*
X518770359Y-299020359D01*
X518853242Y-298896317D01*
X518882346Y-298750000D01*
X518882346Y-297250000D01*
X518853242Y-297103683D01*
X518770359Y-296979641D01*
X518646317Y-296896758D01*
X518500000Y-296867654D01*
X517500000Y-296867654D01*
X517353683Y-296896758D01*
X517229641Y-296979641D01*
X517146758Y-297103683D01*
X517119513Y-297240655D01*
X517052293Y-297173435D01*
X516693939Y-297025000D01*
X516306061Y-297025000D01*
X515947707Y-297173435D01*
X515673435Y-297447707D01*
X515525000Y-297806061D01*
X515125000Y-297806061D01*
X515125000Y-295306061D01*
X516525000Y-295306061D01*
X516525000Y-295693939D01*
X516673435Y-296052293D01*
X516947707Y-296326565D01*
X517306061Y-296475000D01*
X517693939Y-296475000D01*
X518052293Y-296326565D01*
X518326565Y-296052293D01*
X518475000Y-295693939D01*
X518475000Y-295674925D01*
X518509795Y-295500000D01*
X518489904Y-295400001D01*
X519800758Y-295400001D01*
X519849999Y-295409796D01*
X519899240Y-295400001D01*
X519899242Y-295400001D01*
X520045089Y-295370990D01*
X520210479Y-295260481D01*
X520238376Y-295218731D01*
X521338357Y-294118750D01*
X522375000Y-294118750D01*
X522375000Y-294574592D01*
X522432090Y-294712420D01*
X522537579Y-294817910D01*
X522675408Y-294875000D01*
X523381250Y-294875000D01*
X523475000Y-294781250D01*
X523475000Y-294025000D01*
X523525000Y-294025000D01*
X523525000Y-294781250D01*
X523618750Y-294875000D01*
X524324592Y-294875000D01*
X524462421Y-294817910D01*
X524567910Y-294712420D01*
X524625000Y-294574592D01*
X524625000Y-294118750D01*
X534375000Y-294118750D01*
X534375000Y-294574592D01*
X534432090Y-294712420D01*
X534537579Y-294817910D01*
X534675408Y-294875000D01*
X535381250Y-294875000D01*
X535475000Y-294781250D01*
X535475000Y-294025000D01*
X535525000Y-294025000D01*
X535525000Y-294781250D01*
X535618750Y-294875000D01*
X536324592Y-294875000D01*
X536462421Y-294817910D01*
X536567910Y-294712420D01*
X536625000Y-294574592D01*
X536625000Y-294118750D01*
X536531250Y-294025000D01*
X535525000Y-294025000D01*
X535475000Y-294025000D01*
X534468750Y-294025000D01*
X534375000Y-294118750D01*
X524625000Y-294118750D01*
X524531250Y-294025000D01*
X523525000Y-294025000D01*
X523475000Y-294025000D01*
X522468750Y-294025000D01*
X522375000Y-294118750D01*
X521338357Y-294118750D01*
X522382495Y-293074612D01*
X522396758Y-293146317D01*
X522467492Y-293252177D01*
X522432090Y-293287580D01*
X522375000Y-293425408D01*
X522375000Y-293881250D01*
X522468750Y-293975000D01*
X523475000Y-293975000D01*
X523475000Y-293955000D01*
X523525000Y-293955000D01*
X523525000Y-293975000D01*
X524531250Y-293975000D01*
X524625000Y-293881250D01*
X524625000Y-293425408D01*
X524567910Y-293287580D01*
X524532508Y-293252177D01*
X524603242Y-293146317D01*
X524632346Y-293000000D01*
X525867588Y-293000000D01*
X525906093Y-293038505D01*
X526356332Y-293225000D01*
X526843668Y-293225000D01*
X527293907Y-293038505D01*
X527638505Y-292693907D01*
X527825000Y-292243668D01*
X527825000Y-291756332D01*
X527638505Y-291306093D01*
X527293907Y-290961495D01*
X526843668Y-290775000D01*
X526356332Y-290775000D01*
X525906093Y-290961495D01*
X525561495Y-291306093D01*
X525375000Y-291756332D01*
X525375000Y-292000000D01*
X524632346Y-292000000D01*
X524603242Y-291853683D01*
X524520359Y-291729641D01*
X524396317Y-291646758D01*
X524250000Y-291617654D01*
X522750000Y-291617654D01*
X522603683Y-291646758D01*
X522479641Y-291729641D01*
X522396758Y-291853683D01*
X522367654Y-292000000D01*
X522299243Y-292000000D01*
X522250000Y-291990205D01*
X522054909Y-292029011D01*
X521985180Y-292075603D01*
X521889520Y-292139520D01*
X521861626Y-292181267D01*
X519642893Y-294400001D01*
X518149242Y-294400001D01*
X518099999Y-294390206D01*
X518050756Y-294400001D01*
X517904909Y-294429012D01*
X517739519Y-294539521D01*
X517737238Y-294542935D01*
X517693939Y-294525000D01*
X517306061Y-294525000D01*
X516947707Y-294673435D01*
X516673435Y-294947707D01*
X516525000Y-295306061D01*
X515125000Y-295306061D01*
X515125000Y-292472417D01*
X515486572Y-293345329D01*
X516154671Y-294013428D01*
X517027583Y-294375000D01*
X517972417Y-294375000D01*
X518845329Y-294013428D01*
X519513428Y-293345329D01*
X519875000Y-292472417D01*
X519875000Y-291527583D01*
X519513428Y-290654671D01*
X518845329Y-289986572D01*
X517972417Y-289625000D01*
X540027583Y-289625000D01*
X539154671Y-289986572D01*
G36*
X534336363Y-302746829D02*
X534336362Y-302746834D01*
X534336362Y-302796379D01*
X534284069Y-302818039D01*
X534009797Y-303092311D01*
X533861362Y-303450665D01*
X533861362Y-303838543D01*
X534009797Y-304196897D01*
X534284069Y-304471169D01*
X534401030Y-304519616D01*
X531526725Y-304519616D01*
X531232108Y-304225000D01*
X531443939Y-304225000D01*
X531802293Y-304076565D01*
X532076565Y-303802293D01*
X532225000Y-303443939D01*
X532225000Y-303056061D01*
X532076565Y-302697707D01*
X531802293Y-302423435D01*
X531443939Y-302275000D01*
X531087130Y-302275000D01*
X531533771Y-301828360D01*
X531586064Y-301850021D01*
X531973942Y-301850021D01*
X532332296Y-301701586D01*
X532606568Y-301427314D01*
X532755003Y-301068960D01*
X532755003Y-300681082D01*
X532606568Y-300322728D01*
X532590855Y-300307015D01*
X532626164Y-300299991D01*
X532626166Y-300299991D01*
X532772013Y-300270980D01*
X532937403Y-300160471D01*
X532965299Y-300118721D01*
X533578757Y-299505263D01*
X533631051Y-299526924D01*
X534018929Y-299526924D01*
X534336362Y-299395439D01*
X534336363Y-302746829D01*
X534336363Y-302746829D01*
G37*
X534336363Y-302746829D02*
X534336362Y-302746834D01*
X534336362Y-302796379D01*
X534284069Y-302818039D01*
X534009797Y-303092311D01*
X533861362Y-303450665D01*
X533861362Y-303838543D01*
X534009797Y-304196897D01*
X534284069Y-304471169D01*
X534401030Y-304519616D01*
X531526725Y-304519616D01*
X531232108Y-304225000D01*
X531443939Y-304225000D01*
X531802293Y-304076565D01*
X532076565Y-303802293D01*
X532225000Y-303443939D01*
X532225000Y-303056061D01*
X532076565Y-302697707D01*
X531802293Y-302423435D01*
X531443939Y-302275000D01*
X531087130Y-302275000D01*
X531533771Y-301828360D01*
X531586064Y-301850021D01*
X531973942Y-301850021D01*
X532332296Y-301701586D01*
X532606568Y-301427314D01*
X532755003Y-301068960D01*
X532755003Y-300681082D01*
X532606568Y-300322728D01*
X532590855Y-300307015D01*
X532626164Y-300299991D01*
X532626166Y-300299991D01*
X532772013Y-300270980D01*
X532937403Y-300160471D01*
X532965299Y-300118721D01*
X533578757Y-299505263D01*
X533631051Y-299526924D01*
X534018929Y-299526924D01*
X534336362Y-299395439D01*
X534336363Y-302746829D01*
G04 #@! TD*
M02*
