M48
;DRILL file {KiCad (5.0.0)} date 02/01/19 13:11:55
;FORMAT={3:3/ absolute / metric / keep zeros}
FMAT,2
METRIC,TZ
T1C0.400
T2C1.000
T3C1.200
T4C3.400
%
G90
G05
M71
T1
X470500Y-312000
X473572Y-305072
X474000Y-307500
X474434Y-296934
X474443Y-299783
X474500Y-298000
X474500Y-312250
X475500Y-309000
X476500Y-292500
X476750Y-304750
X477500Y-312000
X478100Y-306459
X478500Y-299000
X479000Y-314000
X479252Y-305498
X479500Y-297000
X479500Y-306500
X480000Y-312000
X480000Y-320000
X481000Y-292000
X481000Y-306500
X481500Y-301000
X481800Y-306500
X482250Y-313250
X482500Y-320000
X482750Y-314500
X483000Y-292000
X483254Y-306629
X483480Y-305154
X484000Y-298000
X485000Y-320000
X486000Y-305000
X486500Y-313250
X488000Y-296000
X488000Y-297500
X490000Y-293500
X490000Y-298650
X490433Y-312067
X491000Y-300500
X491000Y-308000
X491000Y-313000
X492250Y-313000
X492500Y-299450
X494500Y-295000
T2
X480600Y-288500
X485500Y-288500
T3
X470930Y-294720
X496140Y-294720
X470920Y-299800
X496140Y-312510
X496140Y-304880
X470920Y-297260
X470920Y-304880
X496140Y-302340
X496140Y-297260
X470920Y-302340
X496140Y-309960
X496140Y-307430
X496140Y-299800
T4
X495000Y-290000
X495000Y-318000
X472000Y-318000
X472000Y-290000
T0
M30
