G04 #@! TF.GenerationSoftware,KiCad,Pcbnew,(5.0.0)*
G04 #@! TF.CreationDate,2019-02-01T13:11:41+03:00*
G04 #@! TF.ProjectId,aks,616B732E6B696361645F706362000000,rev?*
G04 #@! TF.SameCoordinates,Original*
G04 #@! TF.FileFunction,Soldermask,Top*
G04 #@! TF.FilePolarity,Negative*
%FSLAX46Y46*%
G04 Gerber Fmt 4.6, Leading zero omitted, Abs format (unit mm)*
G04 Created by KiCad (PCBNEW (5.0.0)) date 02/01/19 13:11:41*
%MOMM*%
%LPD*%
G01*
G04 APERTURE LIST*
%ADD10C,0.100000*%
G04 APERTURE END LIST*
D10*
G36*
X495585271Y-315057644D02*
X495875068Y-315115288D01*
X496421033Y-315341434D01*
X496912389Y-315669748D01*
X497330252Y-316087611D01*
X497453433Y-316271964D01*
X497658566Y-316578967D01*
X497884712Y-317124933D01*
X498000000Y-317704525D01*
X498000000Y-318295475D01*
X497984733Y-318372228D01*
X497884712Y-318875068D01*
X497658566Y-319421033D01*
X497330252Y-319912389D01*
X496912389Y-320330252D01*
X496421033Y-320658566D01*
X495875068Y-320884712D01*
X495585271Y-320942356D01*
X495295475Y-321000000D01*
X494704525Y-321000000D01*
X494414729Y-320942356D01*
X494124932Y-320884712D01*
X493578967Y-320658566D01*
X493087611Y-320330252D01*
X492669748Y-319912389D01*
X492341434Y-319421033D01*
X492115288Y-318875068D01*
X492015267Y-318372228D01*
X492000000Y-318295475D01*
X492000000Y-317704525D01*
X492115288Y-317124933D01*
X492341434Y-316578967D01*
X492546567Y-316271964D01*
X492669748Y-316087611D01*
X493087611Y-315669748D01*
X493578967Y-315341434D01*
X494124932Y-315115288D01*
X494414729Y-315057644D01*
X494704525Y-315000000D01*
X495295475Y-315000000D01*
X495585271Y-315057644D01*
X495585271Y-315057644D01*
G37*
G36*
X472585271Y-315057644D02*
X472875068Y-315115288D01*
X473421033Y-315341434D01*
X473912389Y-315669748D01*
X474330252Y-316087611D01*
X474453433Y-316271964D01*
X474658566Y-316578967D01*
X474884712Y-317124933D01*
X475000000Y-317704525D01*
X475000000Y-318295475D01*
X474984733Y-318372228D01*
X474884712Y-318875068D01*
X474658566Y-319421033D01*
X474330252Y-319912389D01*
X473912389Y-320330252D01*
X473421033Y-320658566D01*
X472875068Y-320884712D01*
X472585271Y-320942356D01*
X472295475Y-321000000D01*
X471704525Y-321000000D01*
X471414729Y-320942356D01*
X471124932Y-320884712D01*
X470578967Y-320658566D01*
X470087611Y-320330252D01*
X469669748Y-319912389D01*
X469341434Y-319421033D01*
X469115288Y-318875068D01*
X469015267Y-318372228D01*
X469000000Y-318295475D01*
X469000000Y-317704525D01*
X469115288Y-317124933D01*
X469341434Y-316578967D01*
X469546567Y-316271964D01*
X469669748Y-316087611D01*
X470087611Y-315669748D01*
X470578967Y-315341434D01*
X471124932Y-315115288D01*
X471414729Y-315057644D01*
X471704525Y-315000000D01*
X472295475Y-315000000D01*
X472585271Y-315057644D01*
X472585271Y-315057644D01*
G37*
G36*
X489950000Y-315950000D02*
X485350000Y-315950000D01*
X485271964Y-315957686D01*
X485196927Y-315980448D01*
X485127772Y-316017412D01*
X485067157Y-316067157D01*
X485017412Y-316127772D01*
X484980448Y-316196927D01*
X484957686Y-316271964D01*
X484950000Y-316350000D01*
X484950000Y-318150000D01*
X484957686Y-318228036D01*
X484980448Y-318303073D01*
X485017412Y-318372228D01*
X485067157Y-318432843D01*
X485127772Y-318482588D01*
X485196927Y-318519552D01*
X485271964Y-318542314D01*
X485350000Y-318550000D01*
X489950000Y-318550000D01*
X489950000Y-320450000D01*
X485550000Y-320450000D01*
X485550000Y-319100000D01*
X485542314Y-319021964D01*
X485519552Y-318946927D01*
X485482588Y-318877772D01*
X485432843Y-318817157D01*
X485372228Y-318767412D01*
X485303073Y-318730448D01*
X485228036Y-318707686D01*
X485150000Y-318700000D01*
X483550000Y-318700000D01*
X483550000Y-315800000D01*
X485150000Y-315800000D01*
X485228036Y-315792314D01*
X485303073Y-315769552D01*
X485372228Y-315732588D01*
X485432843Y-315682843D01*
X485482588Y-315622228D01*
X485519552Y-315553073D01*
X485542314Y-315478036D01*
X485550000Y-315400000D01*
X485550000Y-314050000D01*
X489950000Y-314050000D01*
X489950000Y-315950000D01*
X489950000Y-315950000D01*
G37*
G36*
X482700000Y-318700000D02*
X481300000Y-318700000D01*
X481300000Y-315800000D01*
X482700000Y-315800000D01*
X482700000Y-318700000D01*
X482700000Y-318700000D01*
G37*
G36*
X495585271Y-287057644D02*
X495875068Y-287115288D01*
X496421033Y-287341434D01*
X496912389Y-287669748D01*
X497330252Y-288087611D01*
X497658566Y-288578967D01*
X497884712Y-289124932D01*
X498000000Y-289704526D01*
X498000000Y-290295474D01*
X497884712Y-290875068D01*
X497658566Y-291421033D01*
X497330252Y-291912389D01*
X496912389Y-292330252D01*
X496421033Y-292658566D01*
X496199205Y-292750450D01*
X496130054Y-292787412D01*
X496069439Y-292837157D01*
X496019694Y-292897772D01*
X495982730Y-292966927D01*
X495959968Y-293041964D01*
X495952282Y-293120000D01*
X495959968Y-293198036D01*
X495982730Y-293273073D01*
X496019694Y-293342228D01*
X496069439Y-293402843D01*
X496130054Y-293452588D01*
X496199209Y-293489552D01*
X496274246Y-293512314D01*
X496352282Y-293520000D01*
X497340000Y-293520000D01*
X497340000Y-313710000D01*
X494940000Y-313710000D01*
X494940000Y-293375110D01*
X494932314Y-293297074D01*
X494909552Y-293222037D01*
X494872588Y-293152882D01*
X494822843Y-293092267D01*
X494762228Y-293042522D01*
X494693073Y-293005558D01*
X494618037Y-292982796D01*
X494124932Y-292884712D01*
X493578967Y-292658566D01*
X493087611Y-292330252D01*
X492669748Y-291912389D01*
X492341434Y-291421033D01*
X492115288Y-290875068D01*
X492000000Y-290295474D01*
X492000000Y-289704526D01*
X492115288Y-289124932D01*
X492341434Y-288578967D01*
X492669748Y-288087611D01*
X493087611Y-287669748D01*
X493578967Y-287341434D01*
X494124932Y-287115288D01*
X494414729Y-287057644D01*
X494704525Y-287000000D01*
X495295475Y-287000000D01*
X495585271Y-287057644D01*
X495585271Y-287057644D01*
G37*
G36*
X489400000Y-312310000D02*
X487400000Y-312310000D01*
X487400000Y-307500000D01*
X489400000Y-307500000D01*
X489400000Y-312310000D01*
X489400000Y-312310000D01*
G37*
G36*
X484000000Y-308781370D02*
X483987686Y-308821964D01*
X483980000Y-308900000D01*
X483980000Y-309640000D01*
X483987686Y-309718036D01*
X484000000Y-309758630D01*
X484000000Y-311321370D01*
X483987686Y-311361964D01*
X483980000Y-311440000D01*
X483980000Y-312310000D01*
X482020000Y-312310000D01*
X482020000Y-311440000D01*
X482012314Y-311361964D01*
X482000000Y-311321370D01*
X482000000Y-309758630D01*
X482012314Y-309718036D01*
X482020000Y-309640000D01*
X482020000Y-308900000D01*
X482012314Y-308821964D01*
X482000000Y-308781370D01*
X482000000Y-307500000D01*
X484000000Y-307500000D01*
X484000000Y-308781370D01*
X484000000Y-308781370D01*
G37*
G36*
X473100000Y-307750000D02*
X473107686Y-307828036D01*
X473130448Y-307903073D01*
X473167412Y-307972228D01*
X473217157Y-308032843D01*
X473277772Y-308082588D01*
X473346927Y-308119552D01*
X473421964Y-308142314D01*
X473500000Y-308150000D01*
X474375000Y-308150000D01*
X474375000Y-310850000D01*
X473500000Y-310850000D01*
X473421964Y-310857686D01*
X473346927Y-310880448D01*
X473277772Y-310917412D01*
X473217157Y-310967157D01*
X473167412Y-311027772D01*
X473130448Y-311096927D01*
X473107686Y-311171964D01*
X473100000Y-311250000D01*
X473100000Y-311600000D01*
X471400000Y-311600000D01*
X471400000Y-311250000D01*
X471392314Y-311171964D01*
X471369552Y-311096927D01*
X471332588Y-311027772D01*
X471282843Y-310967157D01*
X471222228Y-310917412D01*
X471153073Y-310880448D01*
X471078036Y-310857686D01*
X471000000Y-310850000D01*
X470125000Y-310850000D01*
X470125000Y-309175000D01*
X471525000Y-309175000D01*
X471525000Y-309800000D01*
X471532686Y-309878036D01*
X471555448Y-309953073D01*
X471592412Y-310022228D01*
X471642157Y-310082843D01*
X471702772Y-310132588D01*
X471771927Y-310169552D01*
X471846964Y-310192314D01*
X471925000Y-310200000D01*
X472575000Y-310200000D01*
X472653036Y-310192314D01*
X472728073Y-310169552D01*
X472797228Y-310132588D01*
X472857843Y-310082843D01*
X472907588Y-310022228D01*
X472944552Y-309953073D01*
X472967314Y-309878036D01*
X472975000Y-309800000D01*
X472975000Y-309175000D01*
X472967314Y-309096964D01*
X472944552Y-309021927D01*
X472907588Y-308952772D01*
X472857843Y-308892157D01*
X472797228Y-308842412D01*
X472728073Y-308805448D01*
X472653036Y-308782686D01*
X472575000Y-308775000D01*
X471925000Y-308775000D01*
X471846964Y-308782686D01*
X471771927Y-308805448D01*
X471702772Y-308842412D01*
X471642157Y-308892157D01*
X471592412Y-308952772D01*
X471555448Y-309021927D01*
X471532686Y-309096964D01*
X471525000Y-309175000D01*
X470125000Y-309175000D01*
X470125000Y-308150000D01*
X471000000Y-308150000D01*
X471078036Y-308142314D01*
X471153073Y-308119552D01*
X471222228Y-308082588D01*
X471282843Y-308032843D01*
X471332588Y-307972228D01*
X471369552Y-307903073D01*
X471392314Y-307828036D01*
X471400000Y-307750000D01*
X471400000Y-307375000D01*
X473100000Y-307375000D01*
X473100000Y-307750000D01*
X473100000Y-307750000D01*
G37*
G36*
X479075000Y-307750000D02*
X479082686Y-307828036D01*
X479105448Y-307903073D01*
X479142412Y-307972228D01*
X479192157Y-308032843D01*
X479252772Y-308082588D01*
X479321927Y-308119552D01*
X479396964Y-308142314D01*
X479475000Y-308150000D01*
X480350000Y-308150000D01*
X480350000Y-310850000D01*
X479475000Y-310850000D01*
X479396964Y-310857686D01*
X479321927Y-310880448D01*
X479252772Y-310917412D01*
X479192157Y-310967157D01*
X479142412Y-311027772D01*
X479105448Y-311096927D01*
X479082686Y-311171964D01*
X479075000Y-311250000D01*
X479075000Y-311600000D01*
X477375000Y-311600000D01*
X477375000Y-311250000D01*
X477367314Y-311171964D01*
X477344552Y-311096927D01*
X477307588Y-311027772D01*
X477257843Y-310967157D01*
X477197228Y-310917412D01*
X477128073Y-310880448D01*
X477053036Y-310857686D01*
X476975000Y-310850000D01*
X476100000Y-310850000D01*
X476100000Y-309175000D01*
X477500000Y-309175000D01*
X477500000Y-309800000D01*
X477507686Y-309878036D01*
X477530448Y-309953073D01*
X477567412Y-310022228D01*
X477617157Y-310082843D01*
X477677772Y-310132588D01*
X477746927Y-310169552D01*
X477821964Y-310192314D01*
X477900000Y-310200000D01*
X478550000Y-310200000D01*
X478628036Y-310192314D01*
X478703073Y-310169552D01*
X478772228Y-310132588D01*
X478832843Y-310082843D01*
X478882588Y-310022228D01*
X478919552Y-309953073D01*
X478942314Y-309878036D01*
X478950000Y-309800000D01*
X478950000Y-309175000D01*
X478942314Y-309096964D01*
X478919552Y-309021927D01*
X478882588Y-308952772D01*
X478832843Y-308892157D01*
X478772228Y-308842412D01*
X478703073Y-308805448D01*
X478628036Y-308782686D01*
X478550000Y-308775000D01*
X477900000Y-308775000D01*
X477821964Y-308782686D01*
X477746927Y-308805448D01*
X477677772Y-308842412D01*
X477617157Y-308892157D01*
X477567412Y-308952772D01*
X477530448Y-309021927D01*
X477507686Y-309096964D01*
X477500000Y-309175000D01*
X476100000Y-309175000D01*
X476100000Y-308150000D01*
X476975000Y-308150000D01*
X477053036Y-308142314D01*
X477128073Y-308119552D01*
X477197228Y-308082588D01*
X477257843Y-308032843D01*
X477307588Y-307972228D01*
X477344552Y-307903073D01*
X477367314Y-307828036D01*
X477375000Y-307750000D01*
X477375000Y-307375000D01*
X479075000Y-307375000D01*
X479075000Y-307750000D01*
X479075000Y-307750000D01*
G37*
G36*
X472585271Y-287057644D02*
X472875068Y-287115288D01*
X473421033Y-287341434D01*
X473912389Y-287669748D01*
X474330252Y-288087611D01*
X474658566Y-288578967D01*
X474884712Y-289124932D01*
X475000000Y-289704526D01*
X475000000Y-290295474D01*
X474884712Y-290875068D01*
X474658566Y-291421033D01*
X474330252Y-291912389D01*
X473912389Y-292330252D01*
X473421033Y-292658566D01*
X472875068Y-292884712D01*
X472451961Y-292968873D01*
X472376927Y-292991634D01*
X472307772Y-293028598D01*
X472247158Y-293078343D01*
X472197412Y-293138958D01*
X472160448Y-293208112D01*
X472137686Y-293283150D01*
X472130000Y-293361186D01*
X472130000Y-296234336D01*
X472127686Y-296241964D01*
X472120000Y-296320000D01*
X472120000Y-306080000D01*
X469720000Y-306080000D01*
X469720000Y-295745664D01*
X469722314Y-295738036D01*
X469730000Y-295660000D01*
X469730000Y-293520000D01*
X470647718Y-293520000D01*
X470725754Y-293512314D01*
X470800791Y-293489552D01*
X470869946Y-293452588D01*
X470930561Y-293402843D01*
X470980306Y-293342228D01*
X471017270Y-293273073D01*
X471040032Y-293198036D01*
X471047718Y-293120000D01*
X471040032Y-293041964D01*
X471017270Y-292966927D01*
X470980306Y-292897772D01*
X470930561Y-292837157D01*
X470869946Y-292787412D01*
X470800795Y-292750450D01*
X470578967Y-292658566D01*
X470087611Y-292330252D01*
X469669748Y-291912389D01*
X469341434Y-291421033D01*
X469115288Y-290875068D01*
X469000000Y-290295474D01*
X469000000Y-289704526D01*
X469115288Y-289124932D01*
X469341434Y-288578967D01*
X469669748Y-288087611D01*
X470087611Y-287669748D01*
X470578967Y-287341434D01*
X471124932Y-287115288D01*
X471414729Y-287057644D01*
X471704525Y-287000000D01*
X472295475Y-287000000D01*
X472585271Y-287057644D01*
X472585271Y-287057644D01*
G37*
G36*
X477896927Y-301769552D02*
X477971964Y-301792314D01*
X478050000Y-301800000D01*
X484400000Y-301800000D01*
X484478036Y-301792314D01*
X484501415Y-301785222D01*
X484482686Y-301846964D01*
X484475000Y-301925000D01*
X484475000Y-303700000D01*
X477925000Y-303700000D01*
X477925000Y-301925000D01*
X477917314Y-301846964D01*
X477894552Y-301771927D01*
X477891825Y-301766825D01*
X477896927Y-301769552D01*
X477896927Y-301769552D01*
G37*
G36*
X477680448Y-294946927D02*
X477657686Y-295021964D01*
X477650000Y-295100000D01*
X477650000Y-301400000D01*
X477657686Y-301478036D01*
X477680448Y-301553073D01*
X477683175Y-301558175D01*
X477678073Y-301555448D01*
X477603036Y-301532686D01*
X477525000Y-301525000D01*
X475750000Y-301525000D01*
X475750000Y-294975000D01*
X477525000Y-294975000D01*
X477603036Y-294967314D01*
X477678073Y-294944552D01*
X477683175Y-294941825D01*
X477680448Y-294946927D01*
X477680448Y-294946927D01*
G37*
G36*
X484796964Y-294967314D02*
X484875000Y-294975000D01*
X486700000Y-294975000D01*
X486700000Y-301525000D01*
X484875000Y-301525000D01*
X484796964Y-301532686D01*
X484773585Y-301539778D01*
X484792314Y-301478036D01*
X484800000Y-301400000D01*
X484800000Y-295100000D01*
X484792314Y-295021964D01*
X484773585Y-294960222D01*
X484796964Y-294967314D01*
X484796964Y-294967314D01*
G37*
G36*
X484475000Y-294575000D02*
X484482686Y-294653036D01*
X484501415Y-294714778D01*
X484478036Y-294707686D01*
X484400000Y-294700000D01*
X478050000Y-294700000D01*
X477971964Y-294707686D01*
X477896927Y-294730448D01*
X477891825Y-294733175D01*
X477894552Y-294728073D01*
X477917314Y-294653036D01*
X477925000Y-294575000D01*
X477925000Y-292800000D01*
X484475000Y-292800000D01*
X484475000Y-294575000D01*
X484475000Y-294575000D01*
G37*
G36*
X485806274Y-287490350D02*
X485997362Y-287569502D01*
X486169336Y-287684411D01*
X486315589Y-287830664D01*
X486430498Y-288002638D01*
X486509650Y-288193726D01*
X486550000Y-288396584D01*
X486550000Y-288603416D01*
X486509650Y-288806274D01*
X486430498Y-288997362D01*
X486315589Y-289169336D01*
X486169336Y-289315589D01*
X485997362Y-289430498D01*
X485806274Y-289509650D01*
X485603416Y-289550000D01*
X485396584Y-289550000D01*
X485193726Y-289509650D01*
X485002638Y-289430498D01*
X484830664Y-289315589D01*
X484684411Y-289169336D01*
X484569502Y-288997362D01*
X484490350Y-288806274D01*
X484450000Y-288603416D01*
X484450000Y-288396584D01*
X484490350Y-288193726D01*
X484569502Y-288002638D01*
X484684411Y-287830664D01*
X484830664Y-287684411D01*
X485002638Y-287569502D01*
X485193726Y-287490350D01*
X485396584Y-287450000D01*
X485603416Y-287450000D01*
X485806274Y-287490350D01*
X485806274Y-287490350D01*
G37*
G36*
X480906274Y-287490350D02*
X481097362Y-287569502D01*
X481269336Y-287684411D01*
X481415589Y-287830664D01*
X481530498Y-288002638D01*
X481609650Y-288193726D01*
X481650000Y-288396584D01*
X481650000Y-288603416D01*
X481609650Y-288806274D01*
X481530498Y-288997362D01*
X481415589Y-289169336D01*
X481269336Y-289315589D01*
X481097362Y-289430498D01*
X480906274Y-289509650D01*
X480703416Y-289550000D01*
X480496584Y-289550000D01*
X480293726Y-289509650D01*
X480102638Y-289430498D01*
X479930664Y-289315589D01*
X479784411Y-289169336D01*
X479669502Y-288997362D01*
X479590350Y-288806274D01*
X479550000Y-288603416D01*
X479550000Y-288396584D01*
X479590350Y-288193726D01*
X479669502Y-288002638D01*
X479784411Y-287830664D01*
X479930664Y-287684411D01*
X480102638Y-287569502D01*
X480293726Y-287490350D01*
X480496584Y-287450000D01*
X480703416Y-287450000D01*
X480906274Y-287490350D01*
X480906274Y-287490350D01*
G37*
M02*
