G04 #@! TF.GenerationSoftware,KiCad,Pcbnew,(5.0.0)*
G04 #@! TF.CreationDate,2019-02-01T13:11:41+03:00*
G04 #@! TF.ProjectId,aks,616B732E6B696361645F706362000000,rev?*
G04 #@! TF.SameCoordinates,Original*
G04 #@! TF.FileFunction,Copper,L1,Top,Signal*
G04 #@! TF.FilePolarity,Positive*
%FSLAX46Y46*%
G04 Gerber Fmt 4.6, Leading zero omitted, Abs format (unit mm)*
G04 Created by KiCad (PCBNEW (5.0.0)) date 02/01/19 13:11:41*
%MOMM*%
%LPD*%
G01*
G04 APERTURE LIST*
G04 #@! TA.AperFunction,NonConductor*
%ADD10C,0.250000*%
G04 #@! TD*
G04 #@! TA.AperFunction,SMDPad,CuDef*
%ADD11R,1.000000X1.000000*%
G04 #@! TD*
G04 #@! TA.AperFunction,ComponentPad*
%ADD12C,5.600000*%
G04 #@! TD*
G04 #@! TA.AperFunction,SMDPad,CuDef*
%ADD13R,1.500000X0.550000*%
G04 #@! TD*
G04 #@! TA.AperFunction,SMDPad,CuDef*
%ADD14R,0.550000X1.500000*%
G04 #@! TD*
G04 #@! TA.AperFunction,SMDPad,CuDef*
%ADD15R,4.000000X1.500000*%
G04 #@! TD*
G04 #@! TA.AperFunction,SMDPad,CuDef*
%ADD16R,0.300000X1.000000*%
G04 #@! TD*
G04 #@! TA.AperFunction,SMDPad,CuDef*
%ADD17R,1.000000X0.300000*%
G04 #@! TD*
G04 #@! TA.AperFunction,ComponentPad*
%ADD18C,1.700000*%
G04 #@! TD*
G04 #@! TA.AperFunction,ComponentPad*
%ADD19R,2.000000X2.000000*%
G04 #@! TD*
G04 #@! TA.AperFunction,ComponentPad*
%ADD20C,2.000000*%
G04 #@! TD*
G04 #@! TA.AperFunction,Conductor*
%ADD21C,0.100000*%
G04 #@! TD*
G04 #@! TA.AperFunction,SMDPad,CuDef*
%ADD22R,1.600000X0.600000*%
G04 #@! TD*
G04 #@! TA.AperFunction,SMDPad,CuDef*
%ADD23R,1.560000X0.600000*%
G04 #@! TD*
G04 #@! TA.AperFunction,ViaPad*
%ADD24C,0.600000*%
G04 #@! TD*
G04 #@! TA.AperFunction,Conductor*
%ADD25C,0.250000*%
G04 #@! TD*
G04 APERTURE END LIST*
D10*
X483702380Y-291452380D02*
X483702380Y-290785714D01*
X483702380Y-290880952D02*
X483750000Y-290833333D01*
X483845238Y-290785714D01*
X483988095Y-290785714D01*
X484083333Y-290833333D01*
X484130952Y-290928571D01*
X484130952Y-291452380D01*
X484130952Y-290928571D02*
X484178571Y-290833333D01*
X484273809Y-290785714D01*
X484416666Y-290785714D01*
X484511904Y-290833333D01*
X484559523Y-290928571D01*
X484559523Y-291452380D01*
X485464285Y-291452380D02*
X485464285Y-290928571D01*
X485416666Y-290833333D01*
X485321428Y-290785714D01*
X485130952Y-290785714D01*
X485035714Y-290833333D01*
X485464285Y-291404761D02*
X485369047Y-291452380D01*
X485130952Y-291452380D01*
X485035714Y-291404761D01*
X484988095Y-291309523D01*
X484988095Y-291214285D01*
X485035714Y-291119047D01*
X485130952Y-291071428D01*
X485369047Y-291071428D01*
X485464285Y-291023809D01*
X486369047Y-291452380D02*
X486369047Y-290928571D01*
X486321428Y-290833333D01*
X486226190Y-290785714D01*
X486035714Y-290785714D01*
X485940476Y-290833333D01*
X486369047Y-291404761D02*
X486273809Y-291452380D01*
X486035714Y-291452380D01*
X485940476Y-291404761D01*
X485892857Y-291309523D01*
X485892857Y-291214285D01*
X485940476Y-291119047D01*
X486035714Y-291071428D01*
X486273809Y-291071428D01*
X486369047Y-291023809D01*
X486845238Y-291357142D02*
X486892857Y-291404761D01*
X486845238Y-291452380D01*
X486797619Y-291404761D01*
X486845238Y-291357142D01*
X486845238Y-291452380D01*
X487845238Y-291452380D02*
X487273809Y-291452380D01*
X487559523Y-291452380D02*
X487559523Y-290452380D01*
X487464285Y-290595238D01*
X487369047Y-290690476D01*
X487273809Y-290738095D01*
D11*
G04 #@! TO.P,HL2,1*
G04 #@! TO.N,Net-(HL2-Pad1)*
X484250000Y-318000000D03*
G04 #@! TO.P,HL2,2*
G04 #@! TO.N,GND*
X484250000Y-316500000D03*
G04 #@! TD*
D12*
G04 #@! TO.P,M3,*
G04 #@! TO.N,*
X472000000Y-318000000D03*
G04 #@! TD*
G04 #@! TO.P,M3,*
G04 #@! TO.N,*
X495000000Y-290000000D03*
G04 #@! TD*
G04 #@! TO.P,M3,*
G04 #@! TO.N,*
X472000000Y-290000000D03*
G04 #@! TD*
G04 #@! TO.P,M3,*
G04 #@! TO.N,*
X495000000Y-318000000D03*
G04 #@! TD*
D13*
G04 #@! TO.P,DD2,32*
G04 #@! TO.N,Net-(DD2-Pad32)*
X485750000Y-295450000D03*
G04 #@! TO.P,DD2,31*
G04 #@! TO.N,TX*
X485750000Y-296250000D03*
G04 #@! TO.P,DD2,30*
G04 #@! TO.N,RX*
X485750000Y-297050000D03*
G04 #@! TO.P,DD2,29*
G04 #@! TO.N,reset*
X485750000Y-297850000D03*
G04 #@! TO.P,DD2,28*
G04 #@! TO.N,SCL*
X485750000Y-298650000D03*
G04 #@! TO.P,DD2,27*
G04 #@! TO.N,SDA*
X485750000Y-299450000D03*
G04 #@! TO.P,DD2,26*
G04 #@! TO.N,Net-(DD2-Pad26)*
X485750000Y-300250000D03*
G04 #@! TO.P,DD2,25*
G04 #@! TO.N,Net-(DD2-Pad25)*
X485750000Y-301050000D03*
D14*
G04 #@! TO.P,DD2,24*
G04 #@! TO.N,Net-(DD2-Pad24)*
X484000000Y-302750000D03*
G04 #@! TO.P,DD2,23*
G04 #@! TO.N,VCC*
X483200000Y-302750000D03*
G04 #@! TO.P,DD2,22*
G04 #@! TO.N,Net-(DD2-Pad22)*
X482400000Y-302750000D03*
G04 #@! TO.P,DD2,21*
G04 #@! TO.N,GND*
X481600000Y-302750000D03*
G04 #@! TO.P,DD2,20*
G04 #@! TO.N,Net-(DD2-Pad20)*
X480800000Y-302750000D03*
G04 #@! TO.P,DD2,19*
G04 #@! TO.N,Net-(DD2-Pad19)*
X480000000Y-302750000D03*
G04 #@! TO.P,DD2,18*
G04 #@! TO.N,Net-(DD2-Pad18)*
X479200000Y-302750000D03*
G04 #@! TO.P,DD2,17*
G04 #@! TO.N,SCK*
X478400000Y-302750000D03*
D13*
G04 #@! TO.P,DD2,16*
G04 #@! TO.N,MISO*
X476700000Y-301050000D03*
G04 #@! TO.P,DD2,15*
G04 #@! TO.N,MOSI*
X476700000Y-300250000D03*
G04 #@! TO.P,DD2,14*
G04 #@! TO.N,PB2*
X476700000Y-299450000D03*
G04 #@! TO.P,DD2,13*
G04 #@! TO.N,EN*
X476700000Y-298650000D03*
G04 #@! TO.P,DD2,12*
G04 #@! TO.N,HL1*
X476700000Y-297850000D03*
G04 #@! TO.P,DD2,11*
G04 #@! TO.N,PD7*
X476700000Y-297050000D03*
G04 #@! TO.P,DD2,10*
G04 #@! TO.N,EN1*
X476700000Y-296250000D03*
G04 #@! TO.P,DD2,9*
G04 #@! TO.N,Net-(DD2-Pad9)*
X476700000Y-295450000D03*
D14*
G04 #@! TO.P,DD2,8*
G04 #@! TO.N,Net-(C2-Pad2)*
X478400000Y-293750000D03*
G04 #@! TO.P,DD2,7*
G04 #@! TO.N,Net-(C1-Pad2)*
X479200000Y-293750000D03*
G04 #@! TO.P,DD2,6*
G04 #@! TO.N,Ep*
X480000000Y-293750000D03*
G04 #@! TO.P,DD2,5*
G04 #@! TO.N,GND*
X480800000Y-293750000D03*
G04 #@! TO.P,DD2,4*
G04 #@! TO.N,Ep*
X481600000Y-293750000D03*
G04 #@! TO.P,DD2,3*
G04 #@! TO.N,GND*
X482400000Y-293750000D03*
G04 #@! TO.P,DD2,2*
G04 #@! TO.N,Net-(DD2-Pad2)*
X483200000Y-293750000D03*
G04 #@! TO.P,DD2,1*
G04 #@! TO.N,Net-(DD2-Pad1)*
X484000000Y-293750000D03*
G04 #@! TD*
D15*
G04 #@! TO.P,FU1,1*
G04 #@! TO.N,GND*
X487750000Y-315000000D03*
G04 #@! TO.P,FU1,2*
G04 #@! TO.N,GND_in*
X487750000Y-319500000D03*
G04 #@! TD*
D16*
G04 #@! TO.P,DD3,7*
G04 #@! TO.N,PB2*
X478225000Y-308075000D03*
G04 #@! TO.P,DD3,6*
G04 #@! TO.N,SDA*
X478725000Y-308075000D03*
G04 #@! TO.P,DD3,8*
G04 #@! TO.N,Net-(DD3-Pad8)*
X477725000Y-308075000D03*
D17*
G04 #@! TO.P,DD3,3*
G04 #@! TO.N,Net-(DD3-Pad3)*
X479650000Y-309500000D03*
G04 #@! TO.P,DD3,2*
G04 #@! TO.N,Net-(DD3-Pad2)*
X479650000Y-310000000D03*
G04 #@! TO.P,DD3,1*
G04 #@! TO.N,VCC*
X479650000Y-310500000D03*
G04 #@! TO.P,DD3,4*
G04 #@! TO.N,SCL*
X479650000Y-309000000D03*
G04 #@! TO.P,DD3,5*
G04 #@! TO.N,GND*
X479650000Y-308500000D03*
G04 #@! TO.P,DD3,9*
G04 #@! TO.N,Net-(DD3-Pad9)*
X476800000Y-308500000D03*
G04 #@! TO.P,DD3,10*
G04 #@! TO.N,Net-(DD3-Pad10)*
X476800000Y-309000000D03*
G04 #@! TO.P,DD3,11*
G04 #@! TO.N,Net-(DD3-Pad11)*
X476800000Y-309500000D03*
G04 #@! TO.P,DD3,12*
G04 #@! TO.N,GND*
X476800000Y-310000000D03*
G04 #@! TO.P,DD3,13*
G04 #@! TO.N,Net-(DD3-Pad13)*
X476800000Y-310500000D03*
D16*
G04 #@! TO.P,DD3,14*
G04 #@! TO.N,VCC*
X477725000Y-310900000D03*
G04 #@! TO.P,DD3,15*
G04 #@! TO.N,Net-(DD3-Pad15)*
X478225000Y-310900000D03*
G04 #@! TO.P,DD3,16*
G04 #@! TO.N,Net-(DD3-Pad16)*
X478725000Y-310900000D03*
G04 #@! TD*
D18*
G04 #@! TO.P,ZQ1,2*
G04 #@! TO.N,Net-(C2-Pad2)*
X480600000Y-288500000D03*
G04 #@! TO.P,ZQ1,1*
G04 #@! TO.N,Net-(C1-Pad2)*
X485500000Y-288500000D03*
G04 #@! TD*
D19*
G04 #@! TO.P,XS9,1*
G04 #@! TO.N,SCL*
X496140000Y-297260000D03*
G04 #@! TD*
G04 #@! TO.P,XS10,1*
G04 #@! TO.N,SDA*
X496140000Y-299800000D03*
G04 #@! TD*
D11*
G04 #@! TO.P,HL1,2*
G04 #@! TO.N,GND*
X482000000Y-316500000D03*
G04 #@! TO.P,HL1,1*
G04 #@! TO.N,Net-(HL1-Pad1)*
X482000000Y-318000000D03*
G04 #@! TD*
D20*
G04 #@! TO.P,XS1,1*
G04 #@! TO.N,Ep*
X496140000Y-309960000D03*
D21*
G04 #@! TD*
G04 #@! TO.N,Ep*
G04 #@! TO.C,XS1*
G36*
X495140000Y-310960000D02*
X495140000Y-308960000D01*
X497140000Y-308960000D01*
X497140000Y-310960000D01*
X495140000Y-310960000D01*
X495140000Y-310960000D01*
G37*
D20*
G04 #@! TO.P,XS2,1*
G04 #@! TO.N,GND_in*
X496140000Y-307430000D03*
D21*
G04 #@! TD*
G04 #@! TO.N,GND_in*
G04 #@! TO.C,XS2*
G36*
X495140000Y-308430000D02*
X495140000Y-306430000D01*
X497140000Y-306430000D01*
X497140000Y-308430000D01*
X495140000Y-308430000D01*
X495140000Y-308430000D01*
G37*
D20*
G04 #@! TO.P,XS3,1*
G04 #@! TO.N,MOSI*
X470920000Y-297260000D03*
D21*
G04 #@! TD*
G04 #@! TO.N,MOSI*
G04 #@! TO.C,XS3*
G36*
X469920000Y-298260000D02*
X469920000Y-296260000D01*
X471920000Y-296260000D01*
X471920000Y-298260000D01*
X469920000Y-298260000D01*
X469920000Y-298260000D01*
G37*
D20*
G04 #@! TO.P,XS4,1*
G04 #@! TO.N,MISO*
X470920000Y-299800000D03*
D21*
G04 #@! TD*
G04 #@! TO.N,MISO*
G04 #@! TO.C,XS4*
G36*
X469920000Y-300800000D02*
X469920000Y-298800000D01*
X471920000Y-298800000D01*
X471920000Y-300800000D01*
X469920000Y-300800000D01*
X469920000Y-300800000D01*
G37*
D20*
G04 #@! TO.P,XS5,1*
G04 #@! TO.N,SCK*
X470920000Y-302340000D03*
D21*
G04 #@! TD*
G04 #@! TO.N,SCK*
G04 #@! TO.C,XS5*
G36*
X469920000Y-303340000D02*
X469920000Y-301340000D01*
X471920000Y-301340000D01*
X471920000Y-303340000D01*
X469920000Y-303340000D01*
X469920000Y-303340000D01*
G37*
D20*
G04 #@! TO.P,XS6,1*
G04 #@! TO.N,A*
X496140000Y-304880000D03*
D21*
G04 #@! TD*
G04 #@! TO.N,A*
G04 #@! TO.C,XS6*
G36*
X495140000Y-305880000D02*
X495140000Y-303880000D01*
X497140000Y-303880000D01*
X497140000Y-305880000D01*
X495140000Y-305880000D01*
X495140000Y-305880000D01*
G37*
D20*
G04 #@! TO.P,XS7,1*
G04 #@! TO.N,B*
X496140000Y-302340000D03*
D21*
G04 #@! TD*
G04 #@! TO.N,B*
G04 #@! TO.C,XS7*
G36*
X495140000Y-303340000D02*
X495140000Y-301340000D01*
X497140000Y-301340000D01*
X497140000Y-303340000D01*
X495140000Y-303340000D01*
X495140000Y-303340000D01*
G37*
D20*
G04 #@! TO.P,XS8,1*
G04 #@! TO.N,reset*
X470920000Y-304880000D03*
D21*
G04 #@! TD*
G04 #@! TO.N,reset*
G04 #@! TO.C,XS8*
G36*
X469920000Y-305880000D02*
X469920000Y-303880000D01*
X471920000Y-303880000D01*
X471920000Y-305880000D01*
X469920000Y-305880000D01*
X469920000Y-305880000D01*
G37*
D22*
G04 #@! TO.P,DD1,8*
G04 #@! TO.N,Ep*
X488400000Y-308000000D03*
G04 #@! TO.P,DD1,7*
G04 #@! TO.N,B*
X488400000Y-309270000D03*
G04 #@! TO.P,DD1,6*
G04 #@! TO.N,A*
X488400000Y-310540000D03*
G04 #@! TO.P,DD1,5*
G04 #@! TO.N,GND*
X488400000Y-311810000D03*
D23*
G04 #@! TO.P,DD1,4*
G04 #@! TO.N,Net-(DD1-Pad4)*
X483000000Y-311810000D03*
D22*
G04 #@! TO.P,DD1,3*
G04 #@! TO.N,EN*
X483000000Y-310540000D03*
D23*
G04 #@! TO.P,DD1,2*
X483000000Y-309270000D03*
D22*
G04 #@! TO.P,DD1,1*
G04 #@! TO.N,Net-(DD1-Pad1)*
X483000000Y-308000000D03*
G04 #@! TD*
D16*
G04 #@! TO.P,DD4,16*
G04 #@! TO.N,Net-(DD4-Pad16)*
X472750000Y-310900000D03*
G04 #@! TO.P,DD4,15*
G04 #@! TO.N,Net-(DD4-Pad15)*
X472250000Y-310900000D03*
G04 #@! TO.P,DD4,14*
G04 #@! TO.N,VCC*
X471750000Y-310900000D03*
D17*
G04 #@! TO.P,DD4,13*
G04 #@! TO.N,Net-(DD4-Pad13)*
X470825000Y-310500000D03*
G04 #@! TO.P,DD4,12*
G04 #@! TO.N,GND*
X470825000Y-310000000D03*
G04 #@! TO.P,DD4,11*
G04 #@! TO.N,Net-(DD4-Pad11)*
X470825000Y-309500000D03*
G04 #@! TO.P,DD4,10*
G04 #@! TO.N,Net-(DD4-Pad10)*
X470825000Y-309000000D03*
G04 #@! TO.P,DD4,9*
G04 #@! TO.N,Net-(DD4-Pad9)*
X470825000Y-308500000D03*
G04 #@! TO.P,DD4,5*
G04 #@! TO.N,GND*
X473675000Y-308500000D03*
G04 #@! TO.P,DD4,4*
G04 #@! TO.N,SCL*
X473675000Y-309000000D03*
G04 #@! TO.P,DD4,1*
G04 #@! TO.N,VCC*
X473675000Y-310500000D03*
G04 #@! TO.P,DD4,2*
G04 #@! TO.N,Net-(DD4-Pad2)*
X473675000Y-310000000D03*
G04 #@! TO.P,DD4,3*
G04 #@! TO.N,Net-(DD4-Pad3)*
X473675000Y-309500000D03*
D16*
G04 #@! TO.P,DD4,8*
G04 #@! TO.N,Net-(DD4-Pad8)*
X471750000Y-308075000D03*
G04 #@! TO.P,DD4,6*
G04 #@! TO.N,SDA*
X472750000Y-308075000D03*
G04 #@! TO.P,DD4,7*
G04 #@! TO.N,PD7*
X472250000Y-308075000D03*
G04 #@! TD*
D20*
G04 #@! TO.P,XS11,1*
G04 #@! TO.N,EN1*
X470930000Y-294720000D03*
D21*
G04 #@! TD*
G04 #@! TO.N,EN1*
G04 #@! TO.C,XS11*
G36*
X469930000Y-295720000D02*
X469930000Y-293720000D01*
X471930000Y-293720000D01*
X471930000Y-295720000D01*
X469930000Y-295720000D01*
X469930000Y-295720000D01*
G37*
D20*
G04 #@! TO.P,XS12,1*
G04 #@! TO.N,Ep*
X496140000Y-294720000D03*
D21*
G04 #@! TD*
G04 #@! TO.N,Ep*
G04 #@! TO.C,XS12*
G36*
X495140000Y-295720000D02*
X495140000Y-293720000D01*
X497140000Y-293720000D01*
X497140000Y-295720000D01*
X495140000Y-295720000D01*
X495140000Y-295720000D01*
G37*
D20*
G04 #@! TO.P,XS13,1*
G04 #@! TO.N,GND_in*
X496140000Y-312510000D03*
D21*
G04 #@! TD*
G04 #@! TO.N,GND_in*
G04 #@! TO.C,XS13*
G36*
X495140000Y-313510000D02*
X495140000Y-311510000D01*
X497140000Y-311510000D01*
X497140000Y-313510000D01*
X495140000Y-313510000D01*
X495140000Y-313510000D01*
G37*
D24*
G04 #@! TO.N,GND*
X474000000Y-307500000D03*
X470500000Y-312000000D03*
X475500000Y-309000000D03*
X481500000Y-301000000D03*
X479500000Y-306500000D03*
X483000000Y-292000000D03*
X481000000Y-292000000D03*
X482750000Y-314500000D03*
X491000000Y-313000000D03*
X490433051Y-312066949D03*
G04 #@! TO.N,Net-(DD1-Pad4)*
X481800013Y-306500000D03*
G04 #@! TO.N,EN*
X478500000Y-299000000D03*
X486000000Y-305000000D03*
G04 #@! TO.N,Net-(DD1-Pad1)*
X483254454Y-306629444D03*
G04 #@! TO.N,HL1*
X474500000Y-298000000D03*
G04 #@! TO.N,Net-(DD2-Pad24)*
X476750000Y-304750000D03*
G04 #@! TO.N,SDA*
X492500000Y-299450000D03*
X479252376Y-305498088D03*
G04 #@! TO.N,SCL*
X490000000Y-298650000D03*
X481000000Y-306500000D03*
X491000000Y-300500000D03*
X483479707Y-305154191D03*
G04 #@! TO.N,RX*
X488000000Y-297500000D03*
G04 #@! TO.N,TX*
X488000000Y-296000000D03*
G04 #@! TO.N,Net-(HL1-Pad1)*
X482500000Y-320000000D03*
G04 #@! TO.N,Net-(HL2-Pad1)*
X485000000Y-320000000D03*
G04 #@! TO.N,reset*
X484000000Y-298000000D03*
G04 #@! TO.N,Ep*
X491000000Y-308000000D03*
X476500000Y-292500000D03*
X490000000Y-293500000D03*
X494500000Y-295000000D03*
X486500000Y-313250000D03*
G04 #@! TO.N,VCC*
X480000000Y-320000000D03*
X479500000Y-297000000D03*
X477500000Y-312000000D03*
X479000000Y-314000000D03*
X480000000Y-312000000D03*
X482250000Y-313250000D03*
X474500000Y-312250000D03*
G04 #@! TO.N,PD7*
X474434306Y-296934306D03*
X473571785Y-305071749D03*
G04 #@! TO.N,PB2*
X474442928Y-299783389D03*
X478099990Y-306458568D03*
G04 #@! TO.N,GND_in*
X492250000Y-313000000D03*
G04 #@! TD*
D25*
G04 #@! TO.N,*
X480250000Y-311250000D02*
X480500000Y-311250000D01*
X474250000Y-311250000D02*
X474500000Y-311250000D01*
X483500000Y-307250000D02*
X483750000Y-307250000D01*
X480500000Y-316500000D02*
X480500000Y-317000000D01*
X480500000Y-317000000D02*
X480250000Y-317000000D01*
X480250000Y-317000000D02*
X480750000Y-317000000D01*
G04 #@! TO.N,Net-(C1-Pad2)*
X485500000Y-288500000D02*
X482500000Y-288500000D01*
X479200000Y-291800000D02*
X479200000Y-294000000D01*
X482500000Y-288500000D02*
X479200000Y-291800000D01*
G04 #@! TO.N,GND*
X473475000Y-308500000D02*
X473475000Y-308025000D01*
X473475000Y-308025000D02*
X474000000Y-307500000D01*
X470089998Y-310000000D02*
X469500000Y-310589998D01*
X471025000Y-310000000D02*
X470089998Y-310000000D01*
X469500000Y-310589998D02*
X469500000Y-311000000D01*
X469500000Y-311000000D02*
X470500000Y-312000000D01*
X475500000Y-309435002D02*
X475500000Y-309000000D01*
X477000000Y-310000000D02*
X476064998Y-310000000D01*
X476064998Y-310000000D02*
X475500000Y-309435002D01*
X481600000Y-302500000D02*
X481600000Y-301100000D01*
X481600000Y-301100000D02*
X481500000Y-301000000D01*
X482400000Y-293100000D02*
X482400000Y-294000000D01*
X482400000Y-292600000D02*
X483000000Y-292000000D01*
X482400000Y-293750000D02*
X482400000Y-292600000D01*
X480800000Y-292700000D02*
X480800000Y-294000000D01*
X480800000Y-292200000D02*
X481000000Y-292000000D01*
X480800000Y-293750000D02*
X480800000Y-292200000D01*
X482000000Y-315250000D02*
X482750000Y-314500000D01*
X482000000Y-316500000D02*
X482000000Y-315250000D01*
X479450000Y-306550000D02*
X479500000Y-306500000D01*
X479450000Y-308500000D02*
X479450000Y-306550000D01*
X491000000Y-313000000D02*
X489000000Y-313000000D01*
X488000000Y-314000000D02*
X488000000Y-315000000D01*
X489000000Y-313000000D02*
X488000000Y-314000000D01*
X488000000Y-315000000D02*
X484750000Y-315000000D01*
X484250000Y-315500000D02*
X484250000Y-316500000D01*
X484750000Y-315000000D02*
X484250000Y-315500000D01*
X491000000Y-313000000D02*
X490433051Y-312433051D01*
X490433051Y-312433051D02*
X490433051Y-312066949D01*
X490176102Y-311810000D02*
X490433051Y-312066949D01*
X488400000Y-311810000D02*
X490176102Y-311810000D01*
G04 #@! TO.N,Net-(C2-Pad2)*
X478400000Y-290700000D02*
X480600000Y-288500000D01*
X478400000Y-294000000D02*
X478400000Y-290700000D01*
G04 #@! TO.N,A*
X488400000Y-310540000D02*
X490960000Y-310540000D01*
X490960000Y-310540000D02*
X492500000Y-309000000D01*
X492500000Y-309000000D02*
X492500000Y-306500000D01*
X494120000Y-304880000D02*
X496140000Y-304880000D01*
X492500000Y-306500000D02*
X494120000Y-304880000D01*
G04 #@! TO.N,B*
X496140000Y-302340000D02*
X494660000Y-302340000D01*
X494660000Y-302340000D02*
X492000000Y-305000000D01*
X492000000Y-305000000D02*
X492000000Y-308500000D01*
X491230000Y-309270000D02*
X488400000Y-309270000D01*
X492000000Y-308500000D02*
X491230000Y-309270000D01*
G04 #@! TO.N,Net-(DD1-Pad4)*
X481800013Y-306924264D02*
X481800013Y-306500000D01*
X481500000Y-307224277D02*
X481800013Y-306924264D01*
X481500000Y-311500000D02*
X481500000Y-307224277D01*
X483000000Y-311810000D02*
X481810000Y-311810000D01*
X481810000Y-311810000D02*
X481500000Y-311500000D01*
G04 #@! TO.N,EN*
X483000000Y-310540000D02*
X483000000Y-309270000D01*
X478150000Y-298650000D02*
X478500000Y-299000000D01*
X476950000Y-298650000D02*
X478150000Y-298650000D01*
X486000000Y-305000000D02*
X486299999Y-305299999D01*
X486299999Y-307970001D02*
X485000000Y-309270000D01*
X486299999Y-305299999D02*
X486299999Y-307970001D01*
X483000000Y-309270000D02*
X485000000Y-309270000D01*
G04 #@! TO.N,Net-(DD1-Pad1)*
X483000000Y-308000000D02*
X483000000Y-306883898D01*
X483000000Y-306883898D02*
X483254454Y-306629444D01*
G04 #@! TO.N,HL1*
X475967092Y-297850000D02*
X476950000Y-297850000D01*
X474650000Y-297850000D02*
X474500000Y-298000000D01*
X476700000Y-297850000D02*
X474650000Y-297850000D01*
G04 #@! TO.N,MOSI*
X476100000Y-300250000D02*
X476950000Y-300250000D01*
X473817926Y-300083391D02*
X474142926Y-300408391D01*
X474142926Y-300408391D02*
X475941609Y-300408391D01*
X475941609Y-300408391D02*
X476100000Y-300250000D01*
X472020000Y-297260000D02*
X472030000Y-297250000D01*
X470920000Y-297260000D02*
X472020000Y-297260000D01*
X472030000Y-297250000D02*
X472750000Y-297250000D01*
X473817926Y-298317926D02*
X473817926Y-298750000D01*
X472750000Y-297250000D02*
X473817926Y-298317926D01*
X473817926Y-298750000D02*
X473817926Y-300083391D01*
G04 #@! TO.N,MISO*
X474050000Y-301050000D02*
X474500000Y-301050000D01*
X476950000Y-301050000D02*
X474500000Y-301050000D01*
X472800000Y-299800000D02*
X474050000Y-301050000D01*
X470920000Y-299800000D02*
X472800000Y-299800000D01*
G04 #@! TO.N,SCK*
X475840000Y-302340000D02*
X476000000Y-302500000D01*
X470920000Y-302340000D02*
X475840000Y-302340000D01*
X478400000Y-302500000D02*
X476000000Y-302500000D01*
G04 #@! TO.N,Net-(DD2-Pad24)*
X484000000Y-302500000D02*
X484000000Y-303350000D01*
X484000000Y-303750000D02*
X484000000Y-302750000D01*
X483000000Y-304750000D02*
X484000000Y-303750000D01*
X476750000Y-304750000D02*
X483000000Y-304750000D01*
G04 #@! TO.N,SDA*
X495790000Y-299450000D02*
X496140000Y-299800000D01*
X492500000Y-299450000D02*
X495790000Y-299450000D01*
X478725000Y-306025464D02*
X479252376Y-305498088D01*
X478725000Y-308275000D02*
X478725000Y-306025464D01*
X492500000Y-299874264D02*
X492500000Y-299450000D01*
X479252376Y-305498088D02*
X479552375Y-305798087D01*
X479552375Y-305798087D02*
X483826915Y-305798087D01*
X483826915Y-305798087D02*
X488500000Y-301125002D01*
X488500000Y-301125002D02*
X491300002Y-301125002D01*
X491300002Y-301125002D02*
X492500000Y-299925004D01*
X492500000Y-299925004D02*
X492500000Y-299874264D01*
X490000000Y-299450000D02*
X492500000Y-299450000D01*
X485500000Y-299450000D02*
X490000000Y-299450000D01*
X477750000Y-305498088D02*
X478828112Y-305498088D01*
X478828112Y-305498088D02*
X479252376Y-305498088D01*
X476689186Y-306558902D02*
X477750000Y-305498088D01*
X473577508Y-306558902D02*
X476689186Y-306558902D01*
X472750000Y-307386410D02*
X473577508Y-306558902D01*
X472750000Y-308275000D02*
X472750000Y-307386410D01*
G04 #@! TO.N,SCL*
X492740000Y-297260000D02*
X496140000Y-297260000D01*
X491350000Y-298650000D02*
X492740000Y-297260000D01*
X485500000Y-298650000D02*
X490000000Y-298650000D01*
X490000000Y-298650000D02*
X491350000Y-298650000D01*
X480385002Y-309000000D02*
X481000000Y-308385002D01*
X479450000Y-309000000D02*
X480385002Y-309000000D01*
X481000000Y-308385002D02*
X481000000Y-306500000D01*
X476699998Y-312625002D02*
X480374998Y-312625002D01*
X473475000Y-309000000D02*
X474410002Y-309000000D01*
X475000000Y-310925004D02*
X476699998Y-312625002D01*
X481000000Y-312000000D02*
X481000000Y-309500000D01*
X480500000Y-309000000D02*
X479450000Y-309000000D01*
X481000000Y-309500000D02*
X480500000Y-309000000D01*
X480374998Y-312625002D02*
X481000000Y-312000000D01*
X475000000Y-309589998D02*
X475000000Y-310925004D01*
X474410002Y-309000000D02*
X475000000Y-309589998D01*
X483779706Y-304854192D02*
X483479707Y-305154191D01*
X491000000Y-300500000D02*
X488133898Y-300500000D01*
X488133898Y-300500000D02*
X483779706Y-304854192D01*
G04 #@! TO.N,RX*
X487550000Y-297050000D02*
X485500000Y-297050000D01*
X488000000Y-297500000D02*
X487550000Y-297050000D01*
G04 #@! TO.N,TX*
X486350000Y-296250000D02*
X485500000Y-296250000D01*
X487325736Y-296250000D02*
X486350000Y-296250000D01*
X487575736Y-296000000D02*
X487325736Y-296250000D01*
X488000000Y-296000000D02*
X487575736Y-296000000D01*
G04 #@! TO.N,Net-(HL1-Pad1)*
X482000000Y-319500000D02*
X482500000Y-320000000D01*
X482000000Y-318000000D02*
X482000000Y-319500000D01*
G04 #@! TO.N,Net-(HL2-Pad1)*
X485000000Y-320000000D02*
X484500000Y-320000000D01*
X484250000Y-319750000D02*
X484250000Y-318000000D01*
X484500000Y-320000000D02*
X484250000Y-319750000D01*
G04 #@! TO.N,reset*
X484150000Y-297850000D02*
X484000000Y-298000000D01*
X485500000Y-297850000D02*
X484150000Y-297850000D01*
G04 #@! TO.N,Ep*
X488400000Y-308000000D02*
X491000000Y-308000000D01*
G04 #@! TO.N,VCC*
X477725000Y-311775000D02*
X477500000Y-312000000D01*
X477725000Y-310700000D02*
X477725000Y-311775000D01*
X479299999Y-313700001D02*
X479000000Y-314000000D01*
X479750000Y-313250000D02*
X479299999Y-313700001D01*
X482250000Y-313250000D02*
X479750000Y-313250000D01*
X479000000Y-319000000D02*
X479000000Y-314000000D01*
X480000000Y-320000000D02*
X479000000Y-319000000D01*
X476250000Y-314000000D02*
X477000000Y-314000000D01*
X477000000Y-314000000D02*
X479000000Y-314000000D01*
X474500000Y-313500000D02*
X475000000Y-314000000D01*
X475000000Y-314000000D02*
X477000000Y-314000000D01*
X483200000Y-300700000D02*
X479500000Y-297000000D01*
X483200000Y-302750000D02*
X483200000Y-300700000D01*
X479450000Y-311450000D02*
X480000000Y-312000000D01*
X479450000Y-310500000D02*
X479450000Y-311450000D01*
X483200000Y-303750000D02*
X483200000Y-302750000D01*
X482950000Y-304000000D02*
X483200000Y-303750000D01*
X477500000Y-304000000D02*
X482950000Y-304000000D01*
X474009636Y-303750000D02*
X477250000Y-303750000D01*
X472759636Y-305000000D02*
X474009636Y-303750000D01*
X472250000Y-306500000D02*
X472759636Y-305990364D01*
X474500000Y-313500000D02*
X474000000Y-314000000D01*
X474000000Y-314000000D02*
X470250000Y-314000000D01*
X472759636Y-305990364D02*
X472759636Y-305000000D01*
X470250000Y-314000000D02*
X469000000Y-312750000D01*
X477250000Y-303750000D02*
X477500000Y-304000000D01*
X469000000Y-312750000D02*
X469000000Y-309089998D01*
X469000000Y-309089998D02*
X471589998Y-306500000D01*
X471589998Y-306500000D02*
X472250000Y-306500000D01*
X474500000Y-312250000D02*
X474500000Y-313500000D01*
X471750000Y-311635002D02*
X471750000Y-310700000D01*
X474500000Y-312250000D02*
X472364998Y-312250000D01*
X472364998Y-312250000D02*
X471750000Y-311635002D01*
X473475000Y-311225000D02*
X474500000Y-312250000D01*
X473475000Y-310500000D02*
X473475000Y-311225000D01*
G04 #@! TO.N,PD7*
X476950000Y-297050000D02*
X476100000Y-297050000D01*
X474550000Y-297050000D02*
X474434306Y-296934306D01*
X476700000Y-297050000D02*
X474550000Y-297050000D01*
X472250000Y-308275000D02*
X472250000Y-307250000D01*
X472250000Y-307250000D02*
X473571785Y-305928215D01*
X473571785Y-305928215D02*
X473571785Y-305071749D01*
G04 #@! TO.N,PB2*
X474742927Y-299483390D02*
X474442928Y-299783389D01*
X474776317Y-299450000D02*
X474742927Y-299483390D01*
X476950000Y-299450000D02*
X474776317Y-299450000D01*
X478225000Y-306583578D02*
X478099990Y-306458568D01*
X478225000Y-308275000D02*
X478225000Y-306583578D01*
G04 #@! TO.N,GND_in*
X488000000Y-318338998D02*
X488000000Y-319500000D01*
X490338998Y-314911002D02*
X490750000Y-314500000D01*
X490338998Y-316000000D02*
X490338998Y-314911002D01*
X492250000Y-313000000D02*
X490750000Y-314500000D01*
X490338998Y-316000000D02*
X488000000Y-318338998D01*
X492740000Y-312510000D02*
X492250000Y-313000000D01*
X496140000Y-312510000D02*
X492740000Y-312510000D01*
X492250000Y-312575736D02*
X492250000Y-313000000D01*
X492250000Y-310220000D02*
X492250000Y-312575736D01*
X495040000Y-307430000D02*
X492250000Y-310220000D01*
X496140000Y-307430000D02*
X495040000Y-307430000D01*
G04 #@! TO.N,EN1*
X475700000Y-296250000D02*
X476700000Y-296250000D01*
X473560000Y-296250000D02*
X475700000Y-296250000D01*
X472030000Y-294720000D02*
X473560000Y-296250000D01*
X470930000Y-294720000D02*
X472030000Y-294720000D01*
G04 #@! TD*
G04 #@! TO.N,Ep*
G36*
X493201507Y-287308365D02*
X492308365Y-288201507D01*
X491825000Y-289368453D01*
X491825000Y-290631547D01*
X492308365Y-291798493D01*
X493201507Y-292691635D01*
X494368453Y-293175000D01*
X495631547Y-293175000D01*
X496798493Y-292691635D01*
X497691635Y-291798493D01*
X497875000Y-291355811D01*
X497875000Y-316644189D01*
X497691635Y-316201507D01*
X496798493Y-315308365D01*
X495631547Y-314825000D01*
X494368453Y-314825000D01*
X493201507Y-315308365D01*
X492308365Y-316201507D01*
X491825000Y-317368453D01*
X491825000Y-318631547D01*
X492308365Y-319798493D01*
X493201507Y-320691635D01*
X493644189Y-320875000D01*
X473355811Y-320875000D01*
X473798493Y-320691635D01*
X474691635Y-319798493D01*
X475175000Y-318631547D01*
X475175000Y-317368453D01*
X474691635Y-316201507D01*
X473798493Y-315308365D01*
X472631547Y-314825000D01*
X471368453Y-314825000D01*
X470201507Y-315308365D01*
X469308365Y-316201507D01*
X469125000Y-316644189D01*
X469125000Y-313582106D01*
X469861625Y-314318732D01*
X469889520Y-314360480D01*
X469950473Y-314401207D01*
X470054909Y-314470989D01*
X470250000Y-314509795D01*
X470299243Y-314500000D01*
X473950759Y-314500000D01*
X474000000Y-314509795D01*
X474049241Y-314500000D01*
X474049243Y-314500000D01*
X474195090Y-314470989D01*
X474360480Y-314360480D01*
X474388376Y-314318730D01*
X474500000Y-314207107D01*
X474611625Y-314318732D01*
X474639520Y-314360480D01*
X474758551Y-314440013D01*
X474804910Y-314470989D01*
X475000000Y-314509795D01*
X475049243Y-314500000D01*
X478500001Y-314500000D01*
X478500000Y-318950759D01*
X478490205Y-319000000D01*
X478500000Y-319049241D01*
X478500000Y-319049242D01*
X478529011Y-319195089D01*
X478639520Y-319360480D01*
X478681270Y-319388376D01*
X479325000Y-320032107D01*
X479325000Y-320134266D01*
X479427763Y-320382357D01*
X479617643Y-320572237D01*
X479865734Y-320675000D01*
X480134266Y-320675000D01*
X480382357Y-320572237D01*
X480572237Y-320382357D01*
X480675000Y-320134266D01*
X480675000Y-319865734D01*
X480572237Y-319617643D01*
X480382357Y-319427763D01*
X480134266Y-319325000D01*
X480032107Y-319325000D01*
X479500000Y-318792894D01*
X479500000Y-314454594D01*
X479572237Y-314382357D01*
X479675000Y-314134266D01*
X479675000Y-314032106D01*
X479957106Y-313750000D01*
X481795406Y-313750000D01*
X481867643Y-313822237D01*
X482115734Y-313925000D01*
X482374313Y-313925000D01*
X482367643Y-313927763D01*
X482177763Y-314117643D01*
X482075000Y-314365734D01*
X482075000Y-314467893D01*
X481681268Y-314861626D01*
X481639521Y-314889520D01*
X481611627Y-314931267D01*
X481529012Y-315054910D01*
X481490205Y-315250000D01*
X481500001Y-315299246D01*
X481500001Y-315617654D01*
X481500000Y-315617654D01*
X481353683Y-315646758D01*
X481229641Y-315729641D01*
X481146758Y-315853683D01*
X481117654Y-316000000D01*
X481117654Y-316650257D01*
X481110480Y-316639520D01*
X481000000Y-316565700D01*
X481000000Y-316450757D01*
X480970989Y-316304910D01*
X480860480Y-316139520D01*
X480695089Y-316029011D01*
X480500000Y-315990205D01*
X480304910Y-316029011D01*
X480139520Y-316139520D01*
X480029011Y-316304911D01*
X480000000Y-316450758D01*
X480000000Y-316565700D01*
X479889520Y-316639520D01*
X479779011Y-316804910D01*
X479740205Y-317000000D01*
X479779011Y-317195090D01*
X479889520Y-317360480D01*
X480054910Y-317470989D01*
X480200757Y-317500000D01*
X480450758Y-317500000D01*
X480500000Y-317509795D01*
X480549243Y-317500000D01*
X480799243Y-317500000D01*
X480945090Y-317470989D01*
X481110480Y-317360480D01*
X481200168Y-317226251D01*
X481216037Y-317250000D01*
X481146758Y-317353683D01*
X481117654Y-317500000D01*
X481117654Y-318500000D01*
X481146758Y-318646317D01*
X481229641Y-318770359D01*
X481353683Y-318853242D01*
X481500000Y-318882346D01*
X481500001Y-318882346D01*
X481500001Y-319450754D01*
X481490205Y-319500000D01*
X481517958Y-319639520D01*
X481529012Y-319695090D01*
X481639521Y-319860480D01*
X481681268Y-319888374D01*
X481825000Y-320032106D01*
X481825000Y-320134266D01*
X481927763Y-320382357D01*
X482117643Y-320572237D01*
X482365734Y-320675000D01*
X482634266Y-320675000D01*
X482882357Y-320572237D01*
X483072237Y-320382357D01*
X483175000Y-320134266D01*
X483175000Y-319865734D01*
X483072237Y-319617643D01*
X482882357Y-319427763D01*
X482634266Y-319325000D01*
X482532106Y-319325000D01*
X482500000Y-319292894D01*
X482500000Y-318882346D01*
X482646317Y-318853242D01*
X482770359Y-318770359D01*
X482853242Y-318646317D01*
X482882346Y-318500000D01*
X482882346Y-317500000D01*
X482853242Y-317353683D01*
X482783963Y-317250000D01*
X482853242Y-317146317D01*
X482882346Y-317000000D01*
X482882346Y-316000000D01*
X482853242Y-315853683D01*
X482770359Y-315729641D01*
X482646317Y-315646758D01*
X482500000Y-315617654D01*
X482500000Y-315457106D01*
X482782107Y-315175000D01*
X482884266Y-315175000D01*
X483132357Y-315072237D01*
X483322237Y-314882357D01*
X483425000Y-314634266D01*
X483425000Y-314365734D01*
X483322237Y-314117643D01*
X483132357Y-313927763D01*
X482884266Y-313825000D01*
X482625687Y-313825000D01*
X482632357Y-313822237D01*
X482822237Y-313632357D01*
X482925000Y-313384266D01*
X482925000Y-313115734D01*
X482822237Y-312867643D01*
X482632357Y-312677763D01*
X482384266Y-312575000D01*
X482115734Y-312575000D01*
X481867643Y-312677763D01*
X481795406Y-312750000D01*
X480957106Y-312750000D01*
X481318733Y-312388374D01*
X481360480Y-312360480D01*
X481470989Y-312195090D01*
X481472791Y-312186029D01*
X481614910Y-312280989D01*
X481760757Y-312310000D01*
X481760758Y-312310000D01*
X481809999Y-312319795D01*
X481859240Y-312310000D01*
X481902628Y-312310000D01*
X481949641Y-312380359D01*
X482073683Y-312463242D01*
X482220000Y-312492346D01*
X483780000Y-312492346D01*
X483926317Y-312463242D01*
X484050359Y-312380359D01*
X484133242Y-312256317D01*
X484162346Y-312110000D01*
X484162346Y-311510000D01*
X484133242Y-311363683D01*
X484050359Y-311239641D01*
X483963618Y-311181682D01*
X484070359Y-311110359D01*
X484153242Y-310986317D01*
X484182346Y-310840000D01*
X484182346Y-310240000D01*
X484153242Y-310093683D01*
X484070359Y-309969641D01*
X483963618Y-309898318D01*
X484050359Y-309840359D01*
X484097372Y-309770000D01*
X484950759Y-309770000D01*
X485000000Y-309779795D01*
X485049241Y-309770000D01*
X485049243Y-309770000D01*
X485195090Y-309740989D01*
X485360480Y-309630480D01*
X485388376Y-309588730D01*
X486618731Y-308358376D01*
X486660479Y-308330481D01*
X486770988Y-308165091D01*
X486799999Y-308019244D01*
X486799999Y-308019243D01*
X486809794Y-307970002D01*
X486799999Y-307920761D01*
X486799999Y-307625408D01*
X487225000Y-307625408D01*
X487225000Y-307881250D01*
X487318750Y-307975000D01*
X488375000Y-307975000D01*
X488375000Y-307418750D01*
X488425000Y-307418750D01*
X488425000Y-307975000D01*
X489481250Y-307975000D01*
X489575000Y-307881250D01*
X489575000Y-307625408D01*
X489517910Y-307487579D01*
X489412420Y-307382090D01*
X489274592Y-307325000D01*
X488518750Y-307325000D01*
X488425000Y-307418750D01*
X488375000Y-307418750D01*
X488281250Y-307325000D01*
X487525408Y-307325000D01*
X487387580Y-307382090D01*
X487282090Y-307487579D01*
X487225000Y-307625408D01*
X486799999Y-307625408D01*
X486799999Y-305349242D01*
X486809794Y-305299999D01*
X486776828Y-305134266D01*
X486770988Y-305104909D01*
X486675000Y-304961251D01*
X486675000Y-304865734D01*
X486572237Y-304617643D01*
X486382357Y-304427763D01*
X486134266Y-304325000D01*
X486007108Y-304325000D01*
X488707107Y-301625002D01*
X491250761Y-301625002D01*
X491300002Y-301634797D01*
X491349243Y-301625002D01*
X491349245Y-301625002D01*
X491495092Y-301595991D01*
X491660482Y-301485482D01*
X491688378Y-301443732D01*
X492818733Y-300313378D01*
X492860480Y-300285484D01*
X492970989Y-300120094D01*
X493000000Y-299974247D01*
X493000000Y-299974246D01*
X493004823Y-299950000D01*
X494757654Y-299950000D01*
X494757654Y-300800000D01*
X494786758Y-300946317D01*
X494869401Y-301070000D01*
X494786758Y-301193683D01*
X494757654Y-301340000D01*
X494757654Y-301840000D01*
X494709241Y-301840000D01*
X494659999Y-301830205D01*
X494610758Y-301840000D01*
X494610757Y-301840000D01*
X494464910Y-301869011D01*
X494299520Y-301979520D01*
X494271625Y-302021268D01*
X491681270Y-304611623D01*
X491639520Y-304639520D01*
X491529011Y-304804911D01*
X491500000Y-304950757D01*
X491490205Y-305000000D01*
X491500000Y-305049241D01*
X491500001Y-308292892D01*
X491022894Y-308770000D01*
X489517372Y-308770000D01*
X489470359Y-308699641D01*
X489372678Y-308634372D01*
X489412420Y-308617910D01*
X489517910Y-308512421D01*
X489575000Y-308374592D01*
X489575000Y-308118750D01*
X489481250Y-308025000D01*
X488425000Y-308025000D01*
X488425000Y-308045000D01*
X488375000Y-308045000D01*
X488375000Y-308025000D01*
X487318750Y-308025000D01*
X487225000Y-308118750D01*
X487225000Y-308374592D01*
X487282090Y-308512421D01*
X487387580Y-308617910D01*
X487427322Y-308634372D01*
X487329641Y-308699641D01*
X487246758Y-308823683D01*
X487217654Y-308970000D01*
X487217654Y-309570000D01*
X487246758Y-309716317D01*
X487329641Y-309840359D01*
X487426382Y-309905000D01*
X487329641Y-309969641D01*
X487246758Y-310093683D01*
X487217654Y-310240000D01*
X487217654Y-310840000D01*
X487246758Y-310986317D01*
X487329641Y-311110359D01*
X487426382Y-311175000D01*
X487329641Y-311239641D01*
X487246758Y-311363683D01*
X487217654Y-311510000D01*
X487217654Y-312110000D01*
X487246758Y-312256317D01*
X487329641Y-312380359D01*
X487453683Y-312463242D01*
X487600000Y-312492346D01*
X488989232Y-312492346D01*
X488804910Y-312529011D01*
X488639520Y-312639520D01*
X488611626Y-312681267D01*
X487681270Y-313611624D01*
X487639520Y-313639520D01*
X487529011Y-313804911D01*
X487516531Y-313867654D01*
X485750000Y-313867654D01*
X485603683Y-313896758D01*
X485479641Y-313979641D01*
X485396758Y-314103683D01*
X485367654Y-314250000D01*
X485367654Y-314500000D01*
X484799243Y-314500000D01*
X484750000Y-314490205D01*
X484700757Y-314500000D01*
X484554910Y-314529011D01*
X484389520Y-314639520D01*
X484361625Y-314681268D01*
X483931270Y-315111624D01*
X483889520Y-315139520D01*
X483779011Y-315304911D01*
X483750000Y-315450757D01*
X483740205Y-315500000D01*
X483750000Y-315549242D01*
X483750000Y-315617654D01*
X483603683Y-315646758D01*
X483479641Y-315729641D01*
X483396758Y-315853683D01*
X483367654Y-316000000D01*
X483367654Y-317000000D01*
X483396758Y-317146317D01*
X483466037Y-317250000D01*
X483396758Y-317353683D01*
X483367654Y-317500000D01*
X483367654Y-318500000D01*
X483396758Y-318646317D01*
X483479641Y-318770359D01*
X483603683Y-318853242D01*
X483750000Y-318882346D01*
X483750000Y-319700758D01*
X483740205Y-319750000D01*
X483750000Y-319799241D01*
X483750000Y-319799242D01*
X483779011Y-319945089D01*
X483889520Y-320110480D01*
X483931271Y-320138377D01*
X484111623Y-320318729D01*
X484139520Y-320360480D01*
X484304910Y-320470989D01*
X484450757Y-320500000D01*
X484450758Y-320500000D01*
X484499999Y-320509795D01*
X484546042Y-320500636D01*
X484617643Y-320572237D01*
X484865734Y-320675000D01*
X485134266Y-320675000D01*
X485382357Y-320572237D01*
X485461454Y-320493140D01*
X485479641Y-320520359D01*
X485603683Y-320603242D01*
X485750000Y-320632346D01*
X489750000Y-320632346D01*
X489896317Y-320603242D01*
X490020359Y-320520359D01*
X490103242Y-320396317D01*
X490132346Y-320250000D01*
X490132346Y-318750000D01*
X490103242Y-318603683D01*
X490020359Y-318479641D01*
X489896317Y-318396758D01*
X489750000Y-318367654D01*
X488678450Y-318367654D01*
X490657731Y-316388374D01*
X490699478Y-316360480D01*
X490809987Y-316195090D01*
X490838998Y-316049243D01*
X490838998Y-316049242D01*
X490848793Y-316000000D01*
X490838998Y-315950757D01*
X490838998Y-315118108D01*
X491138373Y-314818734D01*
X491138375Y-314818731D01*
X492282107Y-313675000D01*
X492384266Y-313675000D01*
X492632357Y-313572237D01*
X492822237Y-313382357D01*
X492925000Y-313134266D01*
X492925000Y-313032107D01*
X492947107Y-313010000D01*
X494757654Y-313010000D01*
X494757654Y-313510000D01*
X494786758Y-313656317D01*
X494869641Y-313780359D01*
X494993683Y-313863242D01*
X495140000Y-313892346D01*
X497140000Y-313892346D01*
X497286317Y-313863242D01*
X497410359Y-313780359D01*
X497493242Y-313656317D01*
X497522346Y-313510000D01*
X497522346Y-311510000D01*
X497493242Y-311363683D01*
X497410359Y-311239641D01*
X497403413Y-311235000D01*
X497410359Y-311230359D01*
X497493242Y-311106317D01*
X497522346Y-310960000D01*
X497522346Y-309985000D01*
X496165000Y-309985000D01*
X496165000Y-310005000D01*
X496115000Y-310005000D01*
X496115000Y-309985000D01*
X494757654Y-309985000D01*
X494757654Y-310960000D01*
X494786758Y-311106317D01*
X494869641Y-311230359D01*
X494876587Y-311235000D01*
X494869641Y-311239641D01*
X494786758Y-311363683D01*
X494757654Y-311510000D01*
X494757654Y-312010000D01*
X492789243Y-312010000D01*
X492750000Y-312002194D01*
X492750000Y-310427106D01*
X494757654Y-308419453D01*
X494757654Y-308430000D01*
X494786758Y-308576317D01*
X494866060Y-308695000D01*
X494786758Y-308813683D01*
X494757654Y-308960000D01*
X494757654Y-309935000D01*
X496115000Y-309935000D01*
X496115000Y-309915000D01*
X496165000Y-309915000D01*
X496165000Y-309935000D01*
X497522346Y-309935000D01*
X497522346Y-308960000D01*
X497493242Y-308813683D01*
X497413940Y-308695000D01*
X497493242Y-308576317D01*
X497522346Y-308430000D01*
X497522346Y-306430000D01*
X497493242Y-306283683D01*
X497410359Y-306159641D01*
X497403413Y-306155000D01*
X497410359Y-306150359D01*
X497493242Y-306026317D01*
X497522346Y-305880000D01*
X497522346Y-303880000D01*
X497493242Y-303733683D01*
X497410599Y-303610000D01*
X497493242Y-303486317D01*
X497522346Y-303340000D01*
X497522346Y-301340000D01*
X497493242Y-301193683D01*
X497410599Y-301070000D01*
X497493242Y-300946317D01*
X497522346Y-300800000D01*
X497522346Y-298800000D01*
X497493242Y-298653683D01*
X497410599Y-298530000D01*
X497493242Y-298406317D01*
X497522346Y-298260000D01*
X497522346Y-296260000D01*
X497493242Y-296113683D01*
X497410599Y-295990000D01*
X497493242Y-295866317D01*
X497522346Y-295720000D01*
X497522346Y-294745000D01*
X496165000Y-294745000D01*
X496165000Y-294765000D01*
X496115000Y-294765000D01*
X496115000Y-294745000D01*
X494757654Y-294745000D01*
X494757654Y-295720000D01*
X494786758Y-295866317D01*
X494869401Y-295990000D01*
X494786758Y-296113683D01*
X494757654Y-296260000D01*
X494757654Y-296760000D01*
X492789243Y-296760000D01*
X492740000Y-296750205D01*
X492690757Y-296760000D01*
X492544910Y-296789011D01*
X492379520Y-296899520D01*
X492351626Y-296941267D01*
X491142894Y-298150000D01*
X490454594Y-298150000D01*
X490382357Y-298077763D01*
X490134266Y-297975000D01*
X489865734Y-297975000D01*
X489617643Y-298077763D01*
X489545406Y-298150000D01*
X488194621Y-298150000D01*
X488382357Y-298072237D01*
X488572237Y-297882357D01*
X488675000Y-297634266D01*
X488675000Y-297365734D01*
X488572237Y-297117643D01*
X488382357Y-296927763D01*
X488134266Y-296825000D01*
X488032106Y-296825000D01*
X487938376Y-296731270D01*
X487910480Y-296689520D01*
X487888749Y-296675000D01*
X488134266Y-296675000D01*
X488382357Y-296572237D01*
X488572237Y-296382357D01*
X488675000Y-296134266D01*
X488675000Y-295865734D01*
X488572237Y-295617643D01*
X488382357Y-295427763D01*
X488134266Y-295325000D01*
X487865734Y-295325000D01*
X487617643Y-295427763D01*
X487550102Y-295495304D01*
X487526494Y-295500000D01*
X487526493Y-295500000D01*
X487380646Y-295529011D01*
X487215256Y-295639520D01*
X487187359Y-295681271D01*
X487118630Y-295750000D01*
X486877373Y-295750000D01*
X486882346Y-295725000D01*
X486882346Y-295175000D01*
X486853242Y-295028683D01*
X486770359Y-294904641D01*
X486646317Y-294821758D01*
X486500000Y-294792654D01*
X485000000Y-294792654D01*
X484853683Y-294821758D01*
X484729641Y-294904641D01*
X484646758Y-295028683D01*
X484617654Y-295175000D01*
X484617654Y-295725000D01*
X484642518Y-295850000D01*
X484617654Y-295975000D01*
X484617654Y-296525000D01*
X484642518Y-296650000D01*
X484617654Y-296775000D01*
X484617654Y-297325000D01*
X484622627Y-297350000D01*
X484199241Y-297350000D01*
X484190353Y-297348232D01*
X484134266Y-297325000D01*
X483865734Y-297325000D01*
X483617643Y-297427763D01*
X483427763Y-297617643D01*
X483325000Y-297865734D01*
X483325000Y-298134266D01*
X483427763Y-298382357D01*
X483617643Y-298572237D01*
X483865734Y-298675000D01*
X484134266Y-298675000D01*
X484382357Y-298572237D01*
X484572237Y-298382357D01*
X484585640Y-298350000D01*
X484622627Y-298350000D01*
X484617654Y-298375000D01*
X484617654Y-298925000D01*
X484642518Y-299050000D01*
X484617654Y-299175000D01*
X484617654Y-299725000D01*
X484642518Y-299850000D01*
X484617654Y-299975000D01*
X484617654Y-300525000D01*
X484642518Y-300650000D01*
X484617654Y-300775000D01*
X484617654Y-301325000D01*
X484646758Y-301471317D01*
X484729641Y-301595359D01*
X484853683Y-301678242D01*
X485000000Y-301707346D01*
X486219445Y-301707346D01*
X484657346Y-303269446D01*
X484657346Y-302000000D01*
X484628242Y-301853683D01*
X484545359Y-301729641D01*
X484421317Y-301646758D01*
X484275000Y-301617654D01*
X483725000Y-301617654D01*
X483700000Y-301622627D01*
X483700000Y-300749240D01*
X483709795Y-300699999D01*
X483697765Y-300639521D01*
X483670989Y-300504910D01*
X483560480Y-300339520D01*
X483518732Y-300311625D01*
X480175000Y-296967894D01*
X480175000Y-296865734D01*
X480072237Y-296617643D01*
X479882357Y-296427763D01*
X479634266Y-296325000D01*
X479365734Y-296325000D01*
X479117643Y-296427763D01*
X478927763Y-296617643D01*
X478825000Y-296865734D01*
X478825000Y-297134266D01*
X478927763Y-297382357D01*
X479117643Y-297572237D01*
X479365734Y-297675000D01*
X479467894Y-297675000D01*
X482700001Y-300907108D01*
X482700001Y-301622627D01*
X482675000Y-301617654D01*
X482125000Y-301617654D01*
X482100000Y-301622627D01*
X482100000Y-301315331D01*
X482175000Y-301134266D01*
X482175000Y-300865734D01*
X482072237Y-300617643D01*
X481882357Y-300427763D01*
X481634266Y-300325000D01*
X481365734Y-300325000D01*
X481117643Y-300427763D01*
X480927763Y-300617643D01*
X480825000Y-300865734D01*
X480825000Y-301134266D01*
X480927763Y-301382357D01*
X481100001Y-301554595D01*
X481100001Y-301622627D01*
X481075000Y-301617654D01*
X480525000Y-301617654D01*
X480400000Y-301642518D01*
X480275000Y-301617654D01*
X479725000Y-301617654D01*
X479600000Y-301642518D01*
X479475000Y-301617654D01*
X478925000Y-301617654D01*
X478800000Y-301642518D01*
X478675000Y-301617654D01*
X478125000Y-301617654D01*
X477978683Y-301646758D01*
X477854641Y-301729641D01*
X477771758Y-301853683D01*
X477742654Y-302000000D01*
X476214164Y-302000000D01*
X476200480Y-301979520D01*
X476035090Y-301869011D01*
X475889243Y-301840000D01*
X475889241Y-301840000D01*
X475840000Y-301830205D01*
X475790759Y-301840000D01*
X472302346Y-301840000D01*
X472302346Y-301340000D01*
X472273242Y-301193683D01*
X472190599Y-301070000D01*
X472273242Y-300946317D01*
X472302346Y-300800000D01*
X472302346Y-300300000D01*
X472592894Y-300300000D01*
X473661625Y-301368732D01*
X473689520Y-301410480D01*
X473739292Y-301443736D01*
X473854909Y-301520989D01*
X474050000Y-301559795D01*
X474099243Y-301550000D01*
X475649333Y-301550000D01*
X475679641Y-301595359D01*
X475803683Y-301678242D01*
X475950000Y-301707346D01*
X477450000Y-301707346D01*
X477596317Y-301678242D01*
X477720359Y-301595359D01*
X477803242Y-301471317D01*
X477832346Y-301325000D01*
X477832346Y-300775000D01*
X477807482Y-300650000D01*
X477832346Y-300525000D01*
X477832346Y-299975000D01*
X477807482Y-299850000D01*
X477832346Y-299725000D01*
X477832346Y-299175000D01*
X477827373Y-299150000D01*
X477831517Y-299150000D01*
X477927763Y-299382357D01*
X478117643Y-299572237D01*
X478365734Y-299675000D01*
X478634266Y-299675000D01*
X478882357Y-299572237D01*
X479072237Y-299382357D01*
X479175000Y-299134266D01*
X479175000Y-298865734D01*
X479072237Y-298617643D01*
X478882357Y-298427763D01*
X478634266Y-298325000D01*
X478534187Y-298325000D01*
X478510480Y-298289520D01*
X478345090Y-298179011D01*
X478199243Y-298150000D01*
X478199241Y-298150000D01*
X478150000Y-298140205D01*
X478100759Y-298150000D01*
X477827373Y-298150000D01*
X477832346Y-298125000D01*
X477832346Y-297575000D01*
X477807482Y-297450000D01*
X477832346Y-297325000D01*
X477832346Y-296775000D01*
X477807482Y-296650000D01*
X477832346Y-296525000D01*
X477832346Y-295975000D01*
X477807482Y-295850000D01*
X477832346Y-295725000D01*
X477832346Y-295175000D01*
X477803242Y-295028683D01*
X477720359Y-294904641D01*
X477596317Y-294821758D01*
X477450000Y-294792654D01*
X475950000Y-294792654D01*
X475803683Y-294821758D01*
X475679641Y-294904641D01*
X475596758Y-295028683D01*
X475567654Y-295175000D01*
X475567654Y-295725000D01*
X475572627Y-295750000D01*
X473767107Y-295750000D01*
X472418376Y-294401270D01*
X472390480Y-294359520D01*
X472312346Y-294307313D01*
X472312346Y-293720000D01*
X472283242Y-293573683D01*
X472200359Y-293449641D01*
X472076317Y-293366758D01*
X471930000Y-293337654D01*
X469930000Y-293337654D01*
X469783683Y-293366758D01*
X469659641Y-293449641D01*
X469576758Y-293573683D01*
X469547654Y-293720000D01*
X469547654Y-295720000D01*
X469576758Y-295866317D01*
X469656223Y-295985243D01*
X469649641Y-295989641D01*
X469566758Y-296113683D01*
X469537654Y-296260000D01*
X469537654Y-298260000D01*
X469566758Y-298406317D01*
X469649401Y-298530000D01*
X469566758Y-298653683D01*
X469537654Y-298800000D01*
X469537654Y-300800000D01*
X469566758Y-300946317D01*
X469649401Y-301070000D01*
X469566758Y-301193683D01*
X469537654Y-301340000D01*
X469537654Y-303340000D01*
X469566758Y-303486317D01*
X469649401Y-303610000D01*
X469566758Y-303733683D01*
X469537654Y-303880000D01*
X469537654Y-305880000D01*
X469566758Y-306026317D01*
X469649641Y-306150359D01*
X469773683Y-306233242D01*
X469920000Y-306262346D01*
X471120545Y-306262346D01*
X469125000Y-308257892D01*
X469125000Y-291355811D01*
X469308365Y-291798493D01*
X470201507Y-292691635D01*
X471368453Y-293175000D01*
X472631547Y-293175000D01*
X473054034Y-293000000D01*
X477742654Y-293000000D01*
X477742654Y-294500000D01*
X477771758Y-294646317D01*
X477854641Y-294770359D01*
X477978683Y-294853242D01*
X478125000Y-294882346D01*
X478675000Y-294882346D01*
X478800000Y-294857482D01*
X478925000Y-294882346D01*
X479475000Y-294882346D01*
X479605483Y-294856392D01*
X479650408Y-294875000D01*
X479881250Y-294875000D01*
X479975000Y-294781250D01*
X479975000Y-293775000D01*
X479955000Y-293775000D01*
X479955000Y-293725000D01*
X479975000Y-293725000D01*
X479975000Y-292718750D01*
X480025000Y-292718750D01*
X480025000Y-293725000D01*
X480045000Y-293725000D01*
X480045000Y-293775000D01*
X480025000Y-293775000D01*
X480025000Y-294781250D01*
X480118750Y-294875000D01*
X480349592Y-294875000D01*
X480394517Y-294856392D01*
X480525000Y-294882346D01*
X481075000Y-294882346D01*
X481205483Y-294856392D01*
X481250408Y-294875000D01*
X481481250Y-294875000D01*
X481575000Y-294781250D01*
X481575000Y-293775000D01*
X481555000Y-293775000D01*
X481555000Y-293725000D01*
X481575000Y-293725000D01*
X481575000Y-292718750D01*
X481625000Y-292718750D01*
X481625000Y-293725000D01*
X481645000Y-293725000D01*
X481645000Y-293775000D01*
X481625000Y-293775000D01*
X481625000Y-294781250D01*
X481718750Y-294875000D01*
X481949592Y-294875000D01*
X481994517Y-294856392D01*
X482125000Y-294882346D01*
X482675000Y-294882346D01*
X482800000Y-294857482D01*
X482925000Y-294882346D01*
X483475000Y-294882346D01*
X483600000Y-294857482D01*
X483725000Y-294882346D01*
X484275000Y-294882346D01*
X484421317Y-294853242D01*
X484545359Y-294770359D01*
X484628242Y-294646317D01*
X484657346Y-294500000D01*
X484657346Y-293750000D01*
X484875000Y-293750000D01*
X484884515Y-293797835D01*
X484911612Y-293838388D01*
X485411612Y-294338388D01*
X485452165Y-294365485D01*
X485500000Y-294375000D01*
X485547835Y-294365485D01*
X485588388Y-294338388D01*
X485615485Y-294297835D01*
X485625000Y-294250000D01*
X485625000Y-293720000D01*
X494757654Y-293720000D01*
X494757654Y-294695000D01*
X496115000Y-294695000D01*
X496115000Y-293337654D01*
X496165000Y-293337654D01*
X496165000Y-294695000D01*
X497522346Y-294695000D01*
X497522346Y-293720000D01*
X497493242Y-293573683D01*
X497410359Y-293449641D01*
X497286317Y-293366758D01*
X497140000Y-293337654D01*
X496165000Y-293337654D01*
X496115000Y-293337654D01*
X495140000Y-293337654D01*
X494993683Y-293366758D01*
X494869641Y-293449641D01*
X494786758Y-293573683D01*
X494757654Y-293720000D01*
X485625000Y-293720000D01*
X485625000Y-293250000D01*
X485615485Y-293202165D01*
X485588388Y-293161612D01*
X485547835Y-293134515D01*
X485500000Y-293125000D01*
X485452165Y-293134515D01*
X485411612Y-293161612D01*
X484911612Y-293661612D01*
X484884515Y-293702165D01*
X484875000Y-293750000D01*
X484657346Y-293750000D01*
X484657346Y-293000000D01*
X484628242Y-292853683D01*
X484545359Y-292729641D01*
X484421317Y-292646758D01*
X484275000Y-292617654D01*
X483725000Y-292617654D01*
X483600000Y-292642518D01*
X483475000Y-292617654D01*
X483272711Y-292617654D01*
X483382357Y-292572237D01*
X483572237Y-292382357D01*
X483588746Y-292342500D01*
X488535715Y-292342500D01*
X488535715Y-289842500D01*
X482964286Y-289842500D01*
X482964286Y-291325000D01*
X482865734Y-291325000D01*
X482617643Y-291427763D01*
X482427763Y-291617643D01*
X482325000Y-291865734D01*
X482325000Y-291967894D01*
X482081268Y-292211626D01*
X482039521Y-292239520D01*
X481972704Y-292339520D01*
X481929012Y-292404910D01*
X481890205Y-292600000D01*
X481895178Y-292625000D01*
X481718750Y-292625000D01*
X481625000Y-292718750D01*
X481575000Y-292718750D01*
X481481250Y-292625000D01*
X481300000Y-292625000D01*
X481300000Y-292606351D01*
X481382357Y-292572237D01*
X481572237Y-292382357D01*
X481675000Y-292134266D01*
X481675000Y-291865734D01*
X481572237Y-291617643D01*
X481382357Y-291427763D01*
X481134266Y-291325000D01*
X480865734Y-291325000D01*
X480617643Y-291427763D01*
X480427763Y-291617643D01*
X480325000Y-291865734D01*
X480325000Y-292025079D01*
X480290205Y-292200000D01*
X480300001Y-292249246D01*
X480300001Y-292625000D01*
X480118750Y-292625000D01*
X480025000Y-292718750D01*
X479975000Y-292718750D01*
X479881250Y-292625000D01*
X479700000Y-292625000D01*
X479700000Y-292007106D01*
X482707107Y-289000000D01*
X484381176Y-289000000D01*
X484461495Y-289193907D01*
X484806093Y-289538505D01*
X485256332Y-289725000D01*
X485743668Y-289725000D01*
X486193907Y-289538505D01*
X486538505Y-289193907D01*
X486725000Y-288743668D01*
X486725000Y-288256332D01*
X486538505Y-287806093D01*
X486193907Y-287461495D01*
X485743668Y-287275000D01*
X485256332Y-287275000D01*
X484806093Y-287461495D01*
X484461495Y-287806093D01*
X484381176Y-288000000D01*
X482549243Y-288000000D01*
X482500000Y-287990205D01*
X482450757Y-288000000D01*
X482304910Y-288029011D01*
X482139520Y-288139520D01*
X482111625Y-288181268D01*
X481825000Y-288467893D01*
X481825000Y-288256332D01*
X481638505Y-287806093D01*
X481293907Y-287461495D01*
X480843668Y-287275000D01*
X480356332Y-287275000D01*
X479906093Y-287461495D01*
X479561495Y-287806093D01*
X479375000Y-288256332D01*
X479375000Y-288743668D01*
X479455319Y-288937575D01*
X478081268Y-290311626D01*
X478039521Y-290339520D01*
X478011627Y-290381267D01*
X477929012Y-290504910D01*
X477890205Y-290700000D01*
X477900001Y-290749246D01*
X477900000Y-292699333D01*
X477854641Y-292729641D01*
X477771758Y-292853683D01*
X477742654Y-293000000D01*
X473054034Y-293000000D01*
X473798493Y-292691635D01*
X474691635Y-291798493D01*
X475175000Y-290631547D01*
X475175000Y-289368453D01*
X474691635Y-288201507D01*
X473798493Y-287308365D01*
X473355811Y-287125000D01*
X493644189Y-287125000D01*
X493201507Y-287308365D01*
X493201507Y-287308365D01*
G37*
X493201507Y-287308365D02*
X492308365Y-288201507D01*
X491825000Y-289368453D01*
X491825000Y-290631547D01*
X492308365Y-291798493D01*
X493201507Y-292691635D01*
X494368453Y-293175000D01*
X495631547Y-293175000D01*
X496798493Y-292691635D01*
X497691635Y-291798493D01*
X497875000Y-291355811D01*
X497875000Y-316644189D01*
X497691635Y-316201507D01*
X496798493Y-315308365D01*
X495631547Y-314825000D01*
X494368453Y-314825000D01*
X493201507Y-315308365D01*
X492308365Y-316201507D01*
X491825000Y-317368453D01*
X491825000Y-318631547D01*
X492308365Y-319798493D01*
X493201507Y-320691635D01*
X493644189Y-320875000D01*
X473355811Y-320875000D01*
X473798493Y-320691635D01*
X474691635Y-319798493D01*
X475175000Y-318631547D01*
X475175000Y-317368453D01*
X474691635Y-316201507D01*
X473798493Y-315308365D01*
X472631547Y-314825000D01*
X471368453Y-314825000D01*
X470201507Y-315308365D01*
X469308365Y-316201507D01*
X469125000Y-316644189D01*
X469125000Y-313582106D01*
X469861625Y-314318732D01*
X469889520Y-314360480D01*
X469950473Y-314401207D01*
X470054909Y-314470989D01*
X470250000Y-314509795D01*
X470299243Y-314500000D01*
X473950759Y-314500000D01*
X474000000Y-314509795D01*
X474049241Y-314500000D01*
X474049243Y-314500000D01*
X474195090Y-314470989D01*
X474360480Y-314360480D01*
X474388376Y-314318730D01*
X474500000Y-314207107D01*
X474611625Y-314318732D01*
X474639520Y-314360480D01*
X474758551Y-314440013D01*
X474804910Y-314470989D01*
X475000000Y-314509795D01*
X475049243Y-314500000D01*
X478500001Y-314500000D01*
X478500000Y-318950759D01*
X478490205Y-319000000D01*
X478500000Y-319049241D01*
X478500000Y-319049242D01*
X478529011Y-319195089D01*
X478639520Y-319360480D01*
X478681270Y-319388376D01*
X479325000Y-320032107D01*
X479325000Y-320134266D01*
X479427763Y-320382357D01*
X479617643Y-320572237D01*
X479865734Y-320675000D01*
X480134266Y-320675000D01*
X480382357Y-320572237D01*
X480572237Y-320382357D01*
X480675000Y-320134266D01*
X480675000Y-319865734D01*
X480572237Y-319617643D01*
X480382357Y-319427763D01*
X480134266Y-319325000D01*
X480032107Y-319325000D01*
X479500000Y-318792894D01*
X479500000Y-314454594D01*
X479572237Y-314382357D01*
X479675000Y-314134266D01*
X479675000Y-314032106D01*
X479957106Y-313750000D01*
X481795406Y-313750000D01*
X481867643Y-313822237D01*
X482115734Y-313925000D01*
X482374313Y-313925000D01*
X482367643Y-313927763D01*
X482177763Y-314117643D01*
X482075000Y-314365734D01*
X482075000Y-314467893D01*
X481681268Y-314861626D01*
X481639521Y-314889520D01*
X481611627Y-314931267D01*
X481529012Y-315054910D01*
X481490205Y-315250000D01*
X481500001Y-315299246D01*
X481500001Y-315617654D01*
X481500000Y-315617654D01*
X481353683Y-315646758D01*
X481229641Y-315729641D01*
X481146758Y-315853683D01*
X481117654Y-316000000D01*
X481117654Y-316650257D01*
X481110480Y-316639520D01*
X481000000Y-316565700D01*
X481000000Y-316450757D01*
X480970989Y-316304910D01*
X480860480Y-316139520D01*
X480695089Y-316029011D01*
X480500000Y-315990205D01*
X480304910Y-316029011D01*
X480139520Y-316139520D01*
X480029011Y-316304911D01*
X480000000Y-316450758D01*
X480000000Y-316565700D01*
X479889520Y-316639520D01*
X479779011Y-316804910D01*
X479740205Y-317000000D01*
X479779011Y-317195090D01*
X479889520Y-317360480D01*
X480054910Y-317470989D01*
X480200757Y-317500000D01*
X480450758Y-317500000D01*
X480500000Y-317509795D01*
X480549243Y-317500000D01*
X480799243Y-317500000D01*
X480945090Y-317470989D01*
X481110480Y-317360480D01*
X481200168Y-317226251D01*
X481216037Y-317250000D01*
X481146758Y-317353683D01*
X481117654Y-317500000D01*
X481117654Y-318500000D01*
X481146758Y-318646317D01*
X481229641Y-318770359D01*
X481353683Y-318853242D01*
X481500000Y-318882346D01*
X481500001Y-318882346D01*
X481500001Y-319450754D01*
X481490205Y-319500000D01*
X481517958Y-319639520D01*
X481529012Y-319695090D01*
X481639521Y-319860480D01*
X481681268Y-319888374D01*
X481825000Y-320032106D01*
X481825000Y-320134266D01*
X481927763Y-320382357D01*
X482117643Y-320572237D01*
X482365734Y-320675000D01*
X482634266Y-320675000D01*
X482882357Y-320572237D01*
X483072237Y-320382357D01*
X483175000Y-320134266D01*
X483175000Y-319865734D01*
X483072237Y-319617643D01*
X482882357Y-319427763D01*
X482634266Y-319325000D01*
X482532106Y-319325000D01*
X482500000Y-319292894D01*
X482500000Y-318882346D01*
X482646317Y-318853242D01*
X482770359Y-318770359D01*
X482853242Y-318646317D01*
X482882346Y-318500000D01*
X482882346Y-317500000D01*
X482853242Y-317353683D01*
X482783963Y-317250000D01*
X482853242Y-317146317D01*
X482882346Y-317000000D01*
X482882346Y-316000000D01*
X482853242Y-315853683D01*
X482770359Y-315729641D01*
X482646317Y-315646758D01*
X482500000Y-315617654D01*
X482500000Y-315457106D01*
X482782107Y-315175000D01*
X482884266Y-315175000D01*
X483132357Y-315072237D01*
X483322237Y-314882357D01*
X483425000Y-314634266D01*
X483425000Y-314365734D01*
X483322237Y-314117643D01*
X483132357Y-313927763D01*
X482884266Y-313825000D01*
X482625687Y-313825000D01*
X482632357Y-313822237D01*
X482822237Y-313632357D01*
X482925000Y-313384266D01*
X482925000Y-313115734D01*
X482822237Y-312867643D01*
X482632357Y-312677763D01*
X482384266Y-312575000D01*
X482115734Y-312575000D01*
X481867643Y-312677763D01*
X481795406Y-312750000D01*
X480957106Y-312750000D01*
X481318733Y-312388374D01*
X481360480Y-312360480D01*
X481470989Y-312195090D01*
X481472791Y-312186029D01*
X481614910Y-312280989D01*
X481760757Y-312310000D01*
X481760758Y-312310000D01*
X481809999Y-312319795D01*
X481859240Y-312310000D01*
X481902628Y-312310000D01*
X481949641Y-312380359D01*
X482073683Y-312463242D01*
X482220000Y-312492346D01*
X483780000Y-312492346D01*
X483926317Y-312463242D01*
X484050359Y-312380359D01*
X484133242Y-312256317D01*
X484162346Y-312110000D01*
X484162346Y-311510000D01*
X484133242Y-311363683D01*
X484050359Y-311239641D01*
X483963618Y-311181682D01*
X484070359Y-311110359D01*
X484153242Y-310986317D01*
X484182346Y-310840000D01*
X484182346Y-310240000D01*
X484153242Y-310093683D01*
X484070359Y-309969641D01*
X483963618Y-309898318D01*
X484050359Y-309840359D01*
X484097372Y-309770000D01*
X484950759Y-309770000D01*
X485000000Y-309779795D01*
X485049241Y-309770000D01*
X485049243Y-309770000D01*
X485195090Y-309740989D01*
X485360480Y-309630480D01*
X485388376Y-309588730D01*
X486618731Y-308358376D01*
X486660479Y-308330481D01*
X486770988Y-308165091D01*
X486799999Y-308019244D01*
X486799999Y-308019243D01*
X486809794Y-307970002D01*
X486799999Y-307920761D01*
X486799999Y-307625408D01*
X487225000Y-307625408D01*
X487225000Y-307881250D01*
X487318750Y-307975000D01*
X488375000Y-307975000D01*
X488375000Y-307418750D01*
X488425000Y-307418750D01*
X488425000Y-307975000D01*
X489481250Y-307975000D01*
X489575000Y-307881250D01*
X489575000Y-307625408D01*
X489517910Y-307487579D01*
X489412420Y-307382090D01*
X489274592Y-307325000D01*
X488518750Y-307325000D01*
X488425000Y-307418750D01*
X488375000Y-307418750D01*
X488281250Y-307325000D01*
X487525408Y-307325000D01*
X487387580Y-307382090D01*
X487282090Y-307487579D01*
X487225000Y-307625408D01*
X486799999Y-307625408D01*
X486799999Y-305349242D01*
X486809794Y-305299999D01*
X486776828Y-305134266D01*
X486770988Y-305104909D01*
X486675000Y-304961251D01*
X486675000Y-304865734D01*
X486572237Y-304617643D01*
X486382357Y-304427763D01*
X486134266Y-304325000D01*
X486007108Y-304325000D01*
X488707107Y-301625002D01*
X491250761Y-301625002D01*
X491300002Y-301634797D01*
X491349243Y-301625002D01*
X491349245Y-301625002D01*
X491495092Y-301595991D01*
X491660482Y-301485482D01*
X491688378Y-301443732D01*
X492818733Y-300313378D01*
X492860480Y-300285484D01*
X492970989Y-300120094D01*
X493000000Y-299974247D01*
X493000000Y-299974246D01*
X493004823Y-299950000D01*
X494757654Y-299950000D01*
X494757654Y-300800000D01*
X494786758Y-300946317D01*
X494869401Y-301070000D01*
X494786758Y-301193683D01*
X494757654Y-301340000D01*
X494757654Y-301840000D01*
X494709241Y-301840000D01*
X494659999Y-301830205D01*
X494610758Y-301840000D01*
X494610757Y-301840000D01*
X494464910Y-301869011D01*
X494299520Y-301979520D01*
X494271625Y-302021268D01*
X491681270Y-304611623D01*
X491639520Y-304639520D01*
X491529011Y-304804911D01*
X491500000Y-304950757D01*
X491490205Y-305000000D01*
X491500000Y-305049241D01*
X491500001Y-308292892D01*
X491022894Y-308770000D01*
X489517372Y-308770000D01*
X489470359Y-308699641D01*
X489372678Y-308634372D01*
X489412420Y-308617910D01*
X489517910Y-308512421D01*
X489575000Y-308374592D01*
X489575000Y-308118750D01*
X489481250Y-308025000D01*
X488425000Y-308025000D01*
X488425000Y-308045000D01*
X488375000Y-308045000D01*
X488375000Y-308025000D01*
X487318750Y-308025000D01*
X487225000Y-308118750D01*
X487225000Y-308374592D01*
X487282090Y-308512421D01*
X487387580Y-308617910D01*
X487427322Y-308634372D01*
X487329641Y-308699641D01*
X487246758Y-308823683D01*
X487217654Y-308970000D01*
X487217654Y-309570000D01*
X487246758Y-309716317D01*
X487329641Y-309840359D01*
X487426382Y-309905000D01*
X487329641Y-309969641D01*
X487246758Y-310093683D01*
X487217654Y-310240000D01*
X487217654Y-310840000D01*
X487246758Y-310986317D01*
X487329641Y-311110359D01*
X487426382Y-311175000D01*
X487329641Y-311239641D01*
X487246758Y-311363683D01*
X487217654Y-311510000D01*
X487217654Y-312110000D01*
X487246758Y-312256317D01*
X487329641Y-312380359D01*
X487453683Y-312463242D01*
X487600000Y-312492346D01*
X488989232Y-312492346D01*
X488804910Y-312529011D01*
X488639520Y-312639520D01*
X488611626Y-312681267D01*
X487681270Y-313611624D01*
X487639520Y-313639520D01*
X487529011Y-313804911D01*
X487516531Y-313867654D01*
X485750000Y-313867654D01*
X485603683Y-313896758D01*
X485479641Y-313979641D01*
X485396758Y-314103683D01*
X485367654Y-314250000D01*
X485367654Y-314500000D01*
X484799243Y-314500000D01*
X484750000Y-314490205D01*
X484700757Y-314500000D01*
X484554910Y-314529011D01*
X484389520Y-314639520D01*
X484361625Y-314681268D01*
X483931270Y-315111624D01*
X483889520Y-315139520D01*
X483779011Y-315304911D01*
X483750000Y-315450757D01*
X483740205Y-315500000D01*
X483750000Y-315549242D01*
X483750000Y-315617654D01*
X483603683Y-315646758D01*
X483479641Y-315729641D01*
X483396758Y-315853683D01*
X483367654Y-316000000D01*
X483367654Y-317000000D01*
X483396758Y-317146317D01*
X483466037Y-317250000D01*
X483396758Y-317353683D01*
X483367654Y-317500000D01*
X483367654Y-318500000D01*
X483396758Y-318646317D01*
X483479641Y-318770359D01*
X483603683Y-318853242D01*
X483750000Y-318882346D01*
X483750000Y-319700758D01*
X483740205Y-319750000D01*
X483750000Y-319799241D01*
X483750000Y-319799242D01*
X483779011Y-319945089D01*
X483889520Y-320110480D01*
X483931271Y-320138377D01*
X484111623Y-320318729D01*
X484139520Y-320360480D01*
X484304910Y-320470989D01*
X484450757Y-320500000D01*
X484450758Y-320500000D01*
X484499999Y-320509795D01*
X484546042Y-320500636D01*
X484617643Y-320572237D01*
X484865734Y-320675000D01*
X485134266Y-320675000D01*
X485382357Y-320572237D01*
X485461454Y-320493140D01*
X485479641Y-320520359D01*
X485603683Y-320603242D01*
X485750000Y-320632346D01*
X489750000Y-320632346D01*
X489896317Y-320603242D01*
X490020359Y-320520359D01*
X490103242Y-320396317D01*
X490132346Y-320250000D01*
X490132346Y-318750000D01*
X490103242Y-318603683D01*
X490020359Y-318479641D01*
X489896317Y-318396758D01*
X489750000Y-318367654D01*
X488678450Y-318367654D01*
X490657731Y-316388374D01*
X490699478Y-316360480D01*
X490809987Y-316195090D01*
X490838998Y-316049243D01*
X490838998Y-316049242D01*
X490848793Y-316000000D01*
X490838998Y-315950757D01*
X490838998Y-315118108D01*
X491138373Y-314818734D01*
X491138375Y-314818731D01*
X492282107Y-313675000D01*
X492384266Y-313675000D01*
X492632357Y-313572237D01*
X492822237Y-313382357D01*
X492925000Y-313134266D01*
X492925000Y-313032107D01*
X492947107Y-313010000D01*
X494757654Y-313010000D01*
X494757654Y-313510000D01*
X494786758Y-313656317D01*
X494869641Y-313780359D01*
X494993683Y-313863242D01*
X495140000Y-313892346D01*
X497140000Y-313892346D01*
X497286317Y-313863242D01*
X497410359Y-313780359D01*
X497493242Y-313656317D01*
X497522346Y-313510000D01*
X497522346Y-311510000D01*
X497493242Y-311363683D01*
X497410359Y-311239641D01*
X497403413Y-311235000D01*
X497410359Y-311230359D01*
X497493242Y-311106317D01*
X497522346Y-310960000D01*
X497522346Y-309985000D01*
X496165000Y-309985000D01*
X496165000Y-310005000D01*
X496115000Y-310005000D01*
X496115000Y-309985000D01*
X494757654Y-309985000D01*
X494757654Y-310960000D01*
X494786758Y-311106317D01*
X494869641Y-311230359D01*
X494876587Y-311235000D01*
X494869641Y-311239641D01*
X494786758Y-311363683D01*
X494757654Y-311510000D01*
X494757654Y-312010000D01*
X492789243Y-312010000D01*
X492750000Y-312002194D01*
X492750000Y-310427106D01*
X494757654Y-308419453D01*
X494757654Y-308430000D01*
X494786758Y-308576317D01*
X494866060Y-308695000D01*
X494786758Y-308813683D01*
X494757654Y-308960000D01*
X494757654Y-309935000D01*
X496115000Y-309935000D01*
X496115000Y-309915000D01*
X496165000Y-309915000D01*
X496165000Y-309935000D01*
X497522346Y-309935000D01*
X497522346Y-308960000D01*
X497493242Y-308813683D01*
X497413940Y-308695000D01*
X497493242Y-308576317D01*
X497522346Y-308430000D01*
X497522346Y-306430000D01*
X497493242Y-306283683D01*
X497410359Y-306159641D01*
X497403413Y-306155000D01*
X497410359Y-306150359D01*
X497493242Y-306026317D01*
X497522346Y-305880000D01*
X497522346Y-303880000D01*
X497493242Y-303733683D01*
X497410599Y-303610000D01*
X497493242Y-303486317D01*
X497522346Y-303340000D01*
X497522346Y-301340000D01*
X497493242Y-301193683D01*
X497410599Y-301070000D01*
X497493242Y-300946317D01*
X497522346Y-300800000D01*
X497522346Y-298800000D01*
X497493242Y-298653683D01*
X497410599Y-298530000D01*
X497493242Y-298406317D01*
X497522346Y-298260000D01*
X497522346Y-296260000D01*
X497493242Y-296113683D01*
X497410599Y-295990000D01*
X497493242Y-295866317D01*
X497522346Y-295720000D01*
X497522346Y-294745000D01*
X496165000Y-294745000D01*
X496165000Y-294765000D01*
X496115000Y-294765000D01*
X496115000Y-294745000D01*
X494757654Y-294745000D01*
X494757654Y-295720000D01*
X494786758Y-295866317D01*
X494869401Y-295990000D01*
X494786758Y-296113683D01*
X494757654Y-296260000D01*
X494757654Y-296760000D01*
X492789243Y-296760000D01*
X492740000Y-296750205D01*
X492690757Y-296760000D01*
X492544910Y-296789011D01*
X492379520Y-296899520D01*
X492351626Y-296941267D01*
X491142894Y-298150000D01*
X490454594Y-298150000D01*
X490382357Y-298077763D01*
X490134266Y-297975000D01*
X489865734Y-297975000D01*
X489617643Y-298077763D01*
X489545406Y-298150000D01*
X488194621Y-298150000D01*
X488382357Y-298072237D01*
X488572237Y-297882357D01*
X488675000Y-297634266D01*
X488675000Y-297365734D01*
X488572237Y-297117643D01*
X488382357Y-296927763D01*
X488134266Y-296825000D01*
X488032106Y-296825000D01*
X487938376Y-296731270D01*
X487910480Y-296689520D01*
X487888749Y-296675000D01*
X488134266Y-296675000D01*
X488382357Y-296572237D01*
X488572237Y-296382357D01*
X488675000Y-296134266D01*
X488675000Y-295865734D01*
X488572237Y-295617643D01*
X488382357Y-295427763D01*
X488134266Y-295325000D01*
X487865734Y-295325000D01*
X487617643Y-295427763D01*
X487550102Y-295495304D01*
X487526494Y-295500000D01*
X487526493Y-295500000D01*
X487380646Y-295529011D01*
X487215256Y-295639520D01*
X487187359Y-295681271D01*
X487118630Y-295750000D01*
X486877373Y-295750000D01*
X486882346Y-295725000D01*
X486882346Y-295175000D01*
X486853242Y-295028683D01*
X486770359Y-294904641D01*
X486646317Y-294821758D01*
X486500000Y-294792654D01*
X485000000Y-294792654D01*
X484853683Y-294821758D01*
X484729641Y-294904641D01*
X484646758Y-295028683D01*
X484617654Y-295175000D01*
X484617654Y-295725000D01*
X484642518Y-295850000D01*
X484617654Y-295975000D01*
X484617654Y-296525000D01*
X484642518Y-296650000D01*
X484617654Y-296775000D01*
X484617654Y-297325000D01*
X484622627Y-297350000D01*
X484199241Y-297350000D01*
X484190353Y-297348232D01*
X484134266Y-297325000D01*
X483865734Y-297325000D01*
X483617643Y-297427763D01*
X483427763Y-297617643D01*
X483325000Y-297865734D01*
X483325000Y-298134266D01*
X483427763Y-298382357D01*
X483617643Y-298572237D01*
X483865734Y-298675000D01*
X484134266Y-298675000D01*
X484382357Y-298572237D01*
X484572237Y-298382357D01*
X484585640Y-298350000D01*
X484622627Y-298350000D01*
X484617654Y-298375000D01*
X484617654Y-298925000D01*
X484642518Y-299050000D01*
X484617654Y-299175000D01*
X484617654Y-299725000D01*
X484642518Y-299850000D01*
X484617654Y-299975000D01*
X484617654Y-300525000D01*
X484642518Y-300650000D01*
X484617654Y-300775000D01*
X484617654Y-301325000D01*
X484646758Y-301471317D01*
X484729641Y-301595359D01*
X484853683Y-301678242D01*
X485000000Y-301707346D01*
X486219445Y-301707346D01*
X484657346Y-303269446D01*
X484657346Y-302000000D01*
X484628242Y-301853683D01*
X484545359Y-301729641D01*
X484421317Y-301646758D01*
X484275000Y-301617654D01*
X483725000Y-301617654D01*
X483700000Y-301622627D01*
X483700000Y-300749240D01*
X483709795Y-300699999D01*
X483697765Y-300639521D01*
X483670989Y-300504910D01*
X483560480Y-300339520D01*
X483518732Y-300311625D01*
X480175000Y-296967894D01*
X480175000Y-296865734D01*
X480072237Y-296617643D01*
X479882357Y-296427763D01*
X479634266Y-296325000D01*
X479365734Y-296325000D01*
X479117643Y-296427763D01*
X478927763Y-296617643D01*
X478825000Y-296865734D01*
X478825000Y-297134266D01*
X478927763Y-297382357D01*
X479117643Y-297572237D01*
X479365734Y-297675000D01*
X479467894Y-297675000D01*
X482700001Y-300907108D01*
X482700001Y-301622627D01*
X482675000Y-301617654D01*
X482125000Y-301617654D01*
X482100000Y-301622627D01*
X482100000Y-301315331D01*
X482175000Y-301134266D01*
X482175000Y-300865734D01*
X482072237Y-300617643D01*
X481882357Y-300427763D01*
X481634266Y-300325000D01*
X481365734Y-300325000D01*
X481117643Y-300427763D01*
X480927763Y-300617643D01*
X480825000Y-300865734D01*
X480825000Y-301134266D01*
X480927763Y-301382357D01*
X481100001Y-301554595D01*
X481100001Y-301622627D01*
X481075000Y-301617654D01*
X480525000Y-301617654D01*
X480400000Y-301642518D01*
X480275000Y-301617654D01*
X479725000Y-301617654D01*
X479600000Y-301642518D01*
X479475000Y-301617654D01*
X478925000Y-301617654D01*
X478800000Y-301642518D01*
X478675000Y-301617654D01*
X478125000Y-301617654D01*
X477978683Y-301646758D01*
X477854641Y-301729641D01*
X477771758Y-301853683D01*
X477742654Y-302000000D01*
X476214164Y-302000000D01*
X476200480Y-301979520D01*
X476035090Y-301869011D01*
X475889243Y-301840000D01*
X475889241Y-301840000D01*
X475840000Y-301830205D01*
X475790759Y-301840000D01*
X472302346Y-301840000D01*
X472302346Y-301340000D01*
X472273242Y-301193683D01*
X472190599Y-301070000D01*
X472273242Y-300946317D01*
X472302346Y-300800000D01*
X472302346Y-300300000D01*
X472592894Y-300300000D01*
X473661625Y-301368732D01*
X473689520Y-301410480D01*
X473739292Y-301443736D01*
X473854909Y-301520989D01*
X474050000Y-301559795D01*
X474099243Y-301550000D01*
X475649333Y-301550000D01*
X475679641Y-301595359D01*
X475803683Y-301678242D01*
X475950000Y-301707346D01*
X477450000Y-301707346D01*
X477596317Y-301678242D01*
X477720359Y-301595359D01*
X477803242Y-301471317D01*
X477832346Y-301325000D01*
X477832346Y-300775000D01*
X477807482Y-300650000D01*
X477832346Y-300525000D01*
X477832346Y-299975000D01*
X477807482Y-299850000D01*
X477832346Y-299725000D01*
X477832346Y-299175000D01*
X477827373Y-299150000D01*
X477831517Y-299150000D01*
X477927763Y-299382357D01*
X478117643Y-299572237D01*
X478365734Y-299675000D01*
X478634266Y-299675000D01*
X478882357Y-299572237D01*
X479072237Y-299382357D01*
X479175000Y-299134266D01*
X479175000Y-298865734D01*
X479072237Y-298617643D01*
X478882357Y-298427763D01*
X478634266Y-298325000D01*
X478534187Y-298325000D01*
X478510480Y-298289520D01*
X478345090Y-298179011D01*
X478199243Y-298150000D01*
X478199241Y-298150000D01*
X478150000Y-298140205D01*
X478100759Y-298150000D01*
X477827373Y-298150000D01*
X477832346Y-298125000D01*
X477832346Y-297575000D01*
X477807482Y-297450000D01*
X477832346Y-297325000D01*
X477832346Y-296775000D01*
X477807482Y-296650000D01*
X477832346Y-296525000D01*
X477832346Y-295975000D01*
X477807482Y-295850000D01*
X477832346Y-295725000D01*
X477832346Y-295175000D01*
X477803242Y-295028683D01*
X477720359Y-294904641D01*
X477596317Y-294821758D01*
X477450000Y-294792654D01*
X475950000Y-294792654D01*
X475803683Y-294821758D01*
X475679641Y-294904641D01*
X475596758Y-295028683D01*
X475567654Y-295175000D01*
X475567654Y-295725000D01*
X475572627Y-295750000D01*
X473767107Y-295750000D01*
X472418376Y-294401270D01*
X472390480Y-294359520D01*
X472312346Y-294307313D01*
X472312346Y-293720000D01*
X472283242Y-293573683D01*
X472200359Y-293449641D01*
X472076317Y-293366758D01*
X471930000Y-293337654D01*
X469930000Y-293337654D01*
X469783683Y-293366758D01*
X469659641Y-293449641D01*
X469576758Y-293573683D01*
X469547654Y-293720000D01*
X469547654Y-295720000D01*
X469576758Y-295866317D01*
X469656223Y-295985243D01*
X469649641Y-295989641D01*
X469566758Y-296113683D01*
X469537654Y-296260000D01*
X469537654Y-298260000D01*
X469566758Y-298406317D01*
X469649401Y-298530000D01*
X469566758Y-298653683D01*
X469537654Y-298800000D01*
X469537654Y-300800000D01*
X469566758Y-300946317D01*
X469649401Y-301070000D01*
X469566758Y-301193683D01*
X469537654Y-301340000D01*
X469537654Y-303340000D01*
X469566758Y-303486317D01*
X469649401Y-303610000D01*
X469566758Y-303733683D01*
X469537654Y-303880000D01*
X469537654Y-305880000D01*
X469566758Y-306026317D01*
X469649641Y-306150359D01*
X469773683Y-306233242D01*
X469920000Y-306262346D01*
X471120545Y-306262346D01*
X469125000Y-308257892D01*
X469125000Y-291355811D01*
X469308365Y-291798493D01*
X470201507Y-292691635D01*
X471368453Y-293175000D01*
X472631547Y-293175000D01*
X473054034Y-293000000D01*
X477742654Y-293000000D01*
X477742654Y-294500000D01*
X477771758Y-294646317D01*
X477854641Y-294770359D01*
X477978683Y-294853242D01*
X478125000Y-294882346D01*
X478675000Y-294882346D01*
X478800000Y-294857482D01*
X478925000Y-294882346D01*
X479475000Y-294882346D01*
X479605483Y-294856392D01*
X479650408Y-294875000D01*
X479881250Y-294875000D01*
X479975000Y-294781250D01*
X479975000Y-293775000D01*
X479955000Y-293775000D01*
X479955000Y-293725000D01*
X479975000Y-293725000D01*
X479975000Y-292718750D01*
X480025000Y-292718750D01*
X480025000Y-293725000D01*
X480045000Y-293725000D01*
X480045000Y-293775000D01*
X480025000Y-293775000D01*
X480025000Y-294781250D01*
X480118750Y-294875000D01*
X480349592Y-294875000D01*
X480394517Y-294856392D01*
X480525000Y-294882346D01*
X481075000Y-294882346D01*
X481205483Y-294856392D01*
X481250408Y-294875000D01*
X481481250Y-294875000D01*
X481575000Y-294781250D01*
X481575000Y-293775000D01*
X481555000Y-293775000D01*
X481555000Y-293725000D01*
X481575000Y-293725000D01*
X481575000Y-292718750D01*
X481625000Y-292718750D01*
X481625000Y-293725000D01*
X481645000Y-293725000D01*
X481645000Y-293775000D01*
X481625000Y-293775000D01*
X481625000Y-294781250D01*
X481718750Y-294875000D01*
X481949592Y-294875000D01*
X481994517Y-294856392D01*
X482125000Y-294882346D01*
X482675000Y-294882346D01*
X482800000Y-294857482D01*
X482925000Y-294882346D01*
X483475000Y-294882346D01*
X483600000Y-294857482D01*
X483725000Y-294882346D01*
X484275000Y-294882346D01*
X484421317Y-294853242D01*
X484545359Y-294770359D01*
X484628242Y-294646317D01*
X484657346Y-294500000D01*
X484657346Y-293750000D01*
X484875000Y-293750000D01*
X484884515Y-293797835D01*
X484911612Y-293838388D01*
X485411612Y-294338388D01*
X485452165Y-294365485D01*
X485500000Y-294375000D01*
X485547835Y-294365485D01*
X485588388Y-294338388D01*
X485615485Y-294297835D01*
X485625000Y-294250000D01*
X485625000Y-293720000D01*
X494757654Y-293720000D01*
X494757654Y-294695000D01*
X496115000Y-294695000D01*
X496115000Y-293337654D01*
X496165000Y-293337654D01*
X496165000Y-294695000D01*
X497522346Y-294695000D01*
X497522346Y-293720000D01*
X497493242Y-293573683D01*
X497410359Y-293449641D01*
X497286317Y-293366758D01*
X497140000Y-293337654D01*
X496165000Y-293337654D01*
X496115000Y-293337654D01*
X495140000Y-293337654D01*
X494993683Y-293366758D01*
X494869641Y-293449641D01*
X494786758Y-293573683D01*
X494757654Y-293720000D01*
X485625000Y-293720000D01*
X485625000Y-293250000D01*
X485615485Y-293202165D01*
X485588388Y-293161612D01*
X485547835Y-293134515D01*
X485500000Y-293125000D01*
X485452165Y-293134515D01*
X485411612Y-293161612D01*
X484911612Y-293661612D01*
X484884515Y-293702165D01*
X484875000Y-293750000D01*
X484657346Y-293750000D01*
X484657346Y-293000000D01*
X484628242Y-292853683D01*
X484545359Y-292729641D01*
X484421317Y-292646758D01*
X484275000Y-292617654D01*
X483725000Y-292617654D01*
X483600000Y-292642518D01*
X483475000Y-292617654D01*
X483272711Y-292617654D01*
X483382357Y-292572237D01*
X483572237Y-292382357D01*
X483588746Y-292342500D01*
X488535715Y-292342500D01*
X488535715Y-289842500D01*
X482964286Y-289842500D01*
X482964286Y-291325000D01*
X482865734Y-291325000D01*
X482617643Y-291427763D01*
X482427763Y-291617643D01*
X482325000Y-291865734D01*
X482325000Y-291967894D01*
X482081268Y-292211626D01*
X482039521Y-292239520D01*
X481972704Y-292339520D01*
X481929012Y-292404910D01*
X481890205Y-292600000D01*
X481895178Y-292625000D01*
X481718750Y-292625000D01*
X481625000Y-292718750D01*
X481575000Y-292718750D01*
X481481250Y-292625000D01*
X481300000Y-292625000D01*
X481300000Y-292606351D01*
X481382357Y-292572237D01*
X481572237Y-292382357D01*
X481675000Y-292134266D01*
X481675000Y-291865734D01*
X481572237Y-291617643D01*
X481382357Y-291427763D01*
X481134266Y-291325000D01*
X480865734Y-291325000D01*
X480617643Y-291427763D01*
X480427763Y-291617643D01*
X480325000Y-291865734D01*
X480325000Y-292025079D01*
X480290205Y-292200000D01*
X480300001Y-292249246D01*
X480300001Y-292625000D01*
X480118750Y-292625000D01*
X480025000Y-292718750D01*
X479975000Y-292718750D01*
X479881250Y-292625000D01*
X479700000Y-292625000D01*
X479700000Y-292007106D01*
X482707107Y-289000000D01*
X484381176Y-289000000D01*
X484461495Y-289193907D01*
X484806093Y-289538505D01*
X485256332Y-289725000D01*
X485743668Y-289725000D01*
X486193907Y-289538505D01*
X486538505Y-289193907D01*
X486725000Y-288743668D01*
X486725000Y-288256332D01*
X486538505Y-287806093D01*
X486193907Y-287461495D01*
X485743668Y-287275000D01*
X485256332Y-287275000D01*
X484806093Y-287461495D01*
X484461495Y-287806093D01*
X484381176Y-288000000D01*
X482549243Y-288000000D01*
X482500000Y-287990205D01*
X482450757Y-288000000D01*
X482304910Y-288029011D01*
X482139520Y-288139520D01*
X482111625Y-288181268D01*
X481825000Y-288467893D01*
X481825000Y-288256332D01*
X481638505Y-287806093D01*
X481293907Y-287461495D01*
X480843668Y-287275000D01*
X480356332Y-287275000D01*
X479906093Y-287461495D01*
X479561495Y-287806093D01*
X479375000Y-288256332D01*
X479375000Y-288743668D01*
X479455319Y-288937575D01*
X478081268Y-290311626D01*
X478039521Y-290339520D01*
X478011627Y-290381267D01*
X477929012Y-290504910D01*
X477890205Y-290700000D01*
X477900001Y-290749246D01*
X477900000Y-292699333D01*
X477854641Y-292729641D01*
X477771758Y-292853683D01*
X477742654Y-293000000D01*
X473054034Y-293000000D01*
X473798493Y-292691635D01*
X474691635Y-291798493D01*
X475175000Y-290631547D01*
X475175000Y-289368453D01*
X474691635Y-288201507D01*
X473798493Y-287308365D01*
X473355811Y-287125000D01*
X493644189Y-287125000D01*
X493201507Y-287308365D01*
G04 #@! TD*
M02*
